<?xml version="1.0" encoding="iso-8859-1"?>
<!-- Generator: Adobe Illustrator 16.0.0, SVG Export Plug-In . SVG Version: 6.00 Build 0)  -->
<!DOCTYPE svg PUBLIC "-//W3C//DTD SVG 1.1//EN" "http://www.w3.org/Graphics/SVG/1.1/DTD/svg11.dtd">
<svg version="1.1" xmlns="http://www.w3.org/2000/svg" xmlns:xlink="http://www.w3.org/1999/xlink" x="0px" y="0px"
	 width="64.238px" height="64.228px" viewBox="0 0 64.238 64.228" style="enable-background:new 0 0 64.238 64.228;"
	 xml:space="preserve">
<g id="Layer_1" style="display:none;">
	
		<path style="display:inline;fill:none;stroke:#000000;stroke-width:2;stroke-linecap:round;stroke-linejoin:round;stroke-miterlimit:10;" d="
		M39.889,32.1c0-8.763-0.003-16.675-1.269-22.331c5.147-5.017,10.746-8.788,15.071-8.788c9.548,0,9.548,13.933,9.548,31.119
		c0,17.187,0,31.109-9.548,31.12c-4.325,0.005-9.925-3.767-15.072-8.785C39.885,48.779,39.889,40.867,39.889,32.1z"/>
	
		<path style="display:inline;fill:none;stroke:#000000;stroke-width:2;stroke-linecap:round;stroke-linejoin:round;stroke-miterlimit:10;" d="
		M1,32.1c0,7.88,18.603,31.132,29.341,31.12c9.548-0.011,9.548-13.933,9.548-31.12c0-17.186,0-31.119-9.548-31.119
		C19.603,0.981,1,24.219,1,32.1z"/>
</g>
<g id="Layer_2">
	<path d="M53.69-0.019c-5.026,0-10.886,4.54-14.556,7.924c-1.435-4.896-4.042-7.924-8.794-7.924C19.153-0.019,0,23.622,0,32.05
		c0,8.427,19.147,32.07,30.332,32.07c0,0,0.009,0,0.01,0c4.749,0,7.355-3.031,8.791-7.922c3.667,3.383,9.523,7.922,14.55,7.922
		c0,0,0.009,0,0.009,0c10.547,0,10.547-14.841,10.547-32.07C64.238,14.815,64.238-0.019,53.69-0.019z M30.34,62.12h-0.007
		c-4.397,0-11.273-4.652-17.944-12.218C6.369,43.074,2,35.591,2,32.075c0-3.517,4.371-11.013,10.394-17.841
		c6.673-7.565,13.55-12.259,17.947-12.259c8.548,0,8.548,13.245,8.548,30.072C38.889,48.87,38.889,62.12,30.34,62.12z M53.689,62.12
		h-0.007c-3.503,0-8.576-2.903-13.97-8.069c0-0.002-0.019,0.041-0.045,0.069c1.217-5.83,1.221-13.644,1.221-22.032
		c0-8.361-0.004-16.157-1.208-21.98c0.021-0.005,0.033-0.006,0.033-0.008c5.397-5.168,10.473-8.12,13.977-8.12
		c8.548,0,8.548,13.243,8.548,30.07C62.238,48.872,62.238,62.12,53.689,62.12z"/>
</g>
</svg>
