<?xml version="1.0" encoding="iso-8859-1"?>
<!-- Generator: Adobe Illustrator 16.0.0, SVG Export Plug-In . SVG Version: 6.00 Build 0)  -->
<!DOCTYPE svg PUBLIC "-//W3C//DTD SVG 1.1//EN" "http://www.w3.org/Graphics/SVG/1.1/DTD/svg11.dtd">
<svg version="1.1" xmlns="http://www.w3.org/2000/svg" xmlns:xlink="http://www.w3.org/1999/xlink" x="0px" y="0px"
	 width="64.238px" height="64.228px" viewBox="0 0 64.238 64.228" style="enable-background:new 0 0 64.238 64.228;"
	 xml:space="preserve">
<g id="Layer_1" style="display:none;">
	
		<path style="display:inline;fill:none;stroke:#000000;stroke-width:2;stroke-linecap:round;stroke-linejoin:round;stroke-miterlimit:10;" d="
		M28.012,0.992c-2.946,0-5.131,0.926-6.757,2.585c-3.143-1.604-6.165-2.58-8.792-2.58C1,0.998,1,14.93,1,32.116
		c0,17.187,0,31.109,11.463,31.12c2.631,0.002,5.657-0.975,8.805-2.582c1.625,1.652,3.806,2.574,6.745,2.577
		c12.892,0.012,35.226-23.239,35.226-31.12S40.904,0.992,28.012,0.992z"/>
</g>
<g id="Layer_2">
	<path d="M12.473,64.236c0,0-0.01,0-0.011,0C0,64.224,0,49.345,0,32.116C0,14.882,0-0.002,12.463-0.002
		c2.478,0,5.373,0.798,8.614,2.374c1.81-1.58,4.139-2.379,6.936-2.379c13.358,0,36.226,23.691,36.226,32.119
		c0,4.751-6.572,13.087-13.086,19.241C42.617,59.416,33.971,64.23,28.023,64.23c0,0,0,0,0,0c-2.8-0.003-5.125-0.8-6.932-2.371
		C17.849,63.437,14.952,64.236,12.473,64.236z M12.463,1.998C2.505,1.998,2,13.442,2,32.116c0,18.668,0.505,30.11,10.464,30.12
		l0.009,1v-1c2.32,0,5.126-0.832,8.34-2.473c0.39-0.199,0.862-0.122,1.167,0.189c1.505,1.53,3.479,2.275,6.033,2.278
		c5.459,0,13.592-4.61,21.766-12.332c7.219-6.821,12.459-14.302,12.459-17.788c0-7.694-22-30.119-34.226-30.119
		c-2.559,0-4.536,0.748-6.043,2.286c-0.305,0.312-0.779,0.39-1.168,0.19C17.587,2.829,14.782,1.998,12.463,1.998z"/>
</g>
</svg>
