<?xml version="1.0" encoding="iso-8859-1"?>
<!-- Generator: Adobe Illustrator 16.0.0, SVG Export Plug-In . SVG Version: 6.00 Build 0)  -->
<!DOCTYPE svg PUBLIC "-//W3C//DTD SVG 1.1//EN" "http://www.w3.org/Graphics/SVG/1.1/DTD/svg11.dtd">
<svg version="1.1" xmlns="http://www.w3.org/2000/svg" xmlns:xlink="http://www.w3.org/1999/xlink" x="0px" y="0px"
	 width="64.238px" height="64.228px" viewBox="0 0 64.238 64.228" style="enable-background:new 0 0 64.238 64.228;"
	 xml:space="preserve">
<g id="Layer_1" style="display:none;">
	<path style="display:inline;fill:none;stroke:#000000;stroke-width:2;stroke-linejoin:round;stroke-miterlimit:10;" d="
		M63.238,25.679c0-8.592-22.322-24.685-31.119-24.685S1,17.087,1,25.679c0,2.906,2.645,4.499,7.048,5.373
		c-2.013,3.799-3.158,8.13-3.158,12.729c0,7.616,3.072,14.501,8.111,19.443l12.791,0.009v-7.775c0-4.294,2.206-7.784,6.5-7.784
		c4.295,0,6.5,3.481,6.5,7.775v7.775v0.009l12.619-0.009c5.039-4.942,8.052-11.827,8.052-19.442c0-4.635-1.218-8.998-3.261-12.818
		C60.633,30.073,63.238,28.491,63.238,25.679z"/>
</g>
<g id="Layer_2">
	<path d="M64.238,25.679c0-9.098-22.521-25.685-32.119-25.685c-5.347,0-13.827,5.023-19.465,9.325C9.686,11.585,0,19.459,0,25.679
		c0,3.985,4.083,5.469,6.578,6.078C4.816,35.5,3.89,39.629,3.89,43.781c0,7.679,2.987,14.838,8.411,20.157
		c0.187,0.183,0.438,0.286,0.7,0.286l12.791,0.009h0c0.265,0,0.739-0.105,0.926-0.292c0.188-0.188,0.513-0.442,0.513-0.708v-7.775
		c0-3.28,1.445-6.784,5.5-6.784c4.056,0,5.5,3.5,5.5,6.775v7.784c0,0.265-0.114,0.52,0.073,0.708
		c0.188,0.187,0.333,0.292,0.598,0.292c0,0-0.055,0-0.054,0l12.592-0.009c0.261,0,0.499-0.103,0.686-0.286
		c5.386-5.282,8.345-12.44,8.345-20.156c0-4.133-0.963-8.295-2.789-12.117C60.17,31.052,64.238,29.575,64.238,25.679z
		 M56.005,29.983c-0.31,0.062-0.573,0.268-0.708,0.554c-0.135,0.286-0.127,0.619,0.022,0.898c2.056,3.845,3.143,8.115,3.143,12.346
		c0,7.036-2.428,13.569-7.246,18.443L40.23,62.232v-6.783c0-5.249-3.014-8.775-7.5-8.775c-4.486,0-7.5,3.53-7.5,8.784v6.775
		l-11.598-0.008C8.778,57.315,6,50.782,6,43.781c0-4.266,0.997-8.505,2.987-12.261c0.148-0.279,0.128-0.612-0.008-0.897
		c-0.136-0.286-0.412-0.49-0.722-0.552c-5.596-1.11-6.25-3.039-6.25-4.392c0-3.471,4.655-9.269,11.864-14.769
		c6.879-5.25,14.384-8.916,18.25-8.916s11.371,3.666,18.25,8.916c7.209,5.5,11.867,11.298,11.867,14.769
		C62.239,26.989,61.592,28.861,56.005,29.983z"/>
</g>
</svg>
