<?xml version="1.0" encoding="iso-8859-1"?>
<!-- Generator: Adobe Illustrator 16.0.0, SVG Export Plug-In . SVG Version: 6.00 Build 0)  -->
<!DOCTYPE svg PUBLIC "-//W3C//DTD SVG 1.1//EN" "http://www.w3.org/Graphics/SVG/1.1/DTD/svg11.dtd">
<svg version="1.1" xmlns="http://www.w3.org/2000/svg" xmlns:xlink="http://www.w3.org/1999/xlink" x="0px" y="0px"
	 width="64.238px" height="64.228px" viewBox="0 0 64.238 64.228" style="enable-background:new 0 0 64.238 64.228;"
	 xml:space="preserve">
<g id="Layer_1" style="display:none;">
	<g style="display:inline;">
		
			<polygon style="fill:none;stroke:#000000;stroke-width:2;stroke-linecap:round;stroke-linejoin:round;stroke-miterlimit:10;" points="
			32.123,2.401 44.942,17.472 63.236,25.006 52.865,41.854 51.352,61.582 32.123,56.924 12.894,61.582 11.381,41.854 1.01,25.006 
			19.304,17.472 		"/>
	</g>
</g>
<g id="Layer_2">
	<path d="M51.352,62.582c-0.079,0-0.158-0.009-0.235-0.028l-18.993-4.6l-18.994,4.6c-0.284,0.069-0.586,0.01-0.823-0.163
		c-0.237-0.172-0.387-0.44-0.409-0.732l-1.494-19.486L0.159,25.531c-0.154-0.25-0.19-0.555-0.1-0.833
		c0.091-0.279,0.299-0.504,0.57-0.616l18.069-7.442L31.361,1.753c0.38-0.446,1.144-0.446,1.523,0l12.663,14.886l18.069,7.442
		c0.271,0.112,0.479,0.337,0.57,0.616c0.09,0.279,0.054,0.583-0.1,0.833L53.843,42.172l-1.495,19.486
		c-0.022,0.292-0.172,0.56-0.409,0.732C51.767,62.516,51.561,62.582,51.352,62.582z M2.478,25.483l9.755,15.847
		c0.083,0.136,0.133,0.289,0.146,0.448l1.422,18.555l18.087-4.38c0.154-0.038,0.316-0.038,0.471,0l18.086,4.38l1.423-18.555
		c0.012-0.159,0.062-0.312,0.146-0.448l9.755-15.847l-17.207-7.087c-0.147-0.061-0.278-0.156-0.381-0.277L32.123,3.944L20.065,18.12
		c-0.103,0.121-0.234,0.216-0.381,0.277L2.478,25.483z"/>
</g>
</svg>
