<?xml version="1.0" encoding="iso-8859-1"?>
<!-- Generator: Adobe Illustrator 16.0.0, SVG Export Plug-In . SVG Version: 6.00 Build 0)  -->
<!DOCTYPE svg PUBLIC "-//W3C//DTD SVG 1.1//EN" "http://www.w3.org/Graphics/SVG/1.1/DTD/svg11.dtd">
<svg version="1.1" xmlns="http://www.w3.org/2000/svg" xmlns:xlink="http://www.w3.org/1999/xlink" x="0px" y="0px"
	 width="64.238px" height="64.228px" viewBox="0 0 64.238 64.228" style="enable-background:new 0 0 64.238 64.228;"
	 xml:space="preserve">
<g id="Layer_1" style="display:none;">
	<g style="display:inline;">
		<g>
			<path style="fill:none;stroke:#000000;stroke-width:2;stroke-linecap:round;stroke-linejoin:round;stroke-miterlimit:10;" d="
				M31.679,32.277l8.127-30.329C34.798,0.665,29.405,0.606,24.055,2.04C7.454,6.488-2.398,23.551,2.05,40.152
				c4.448,16.602,21.513,26.453,38.114,22.005c16.58-4.443,26.427-21.471,22.019-38.053L31.679,32.277z"/>
		</g>
		<path style="fill:none;stroke:#000000;stroke-width:2;stroke-linecap:round;stroke-linejoin:round;stroke-miterlimit:10;" d="
			M63.167,19.224c-0.004-0.017-0.008-0.032-0.012-0.048C60.723,10.1,53.615,3.532,45.119,1.354l-6.555,24.462L63.167,19.224z"/>
	</g>
</g>
<g id="Layer_2">
	<path d="M32.09,64.225c-14.499,0-27.249-9.792-31.006-23.814c-2.221-8.287-1.081-16.942,3.208-24.372S15.509,3.294,23.796,1.074
		c5.323-1.426,10.938-1.457,16.258-0.095c0.259,0.066,0.48,0.233,0.615,0.464c0.135,0.231,0.172,0.506,0.103,0.764l-7.679,28.656
		l28.831-7.725c0.256-0.07,0.529-0.033,0.76,0.1c0.229,0.133,0.397,0.352,0.465,0.609c4.542,17.082-5.654,34.701-22.726,39.276
		C37.694,63.854,34.89,64.225,32.09,64.225z M32.107,1.975c-2.619,0-5.241,0.347-7.793,1.03
		c-7.771,2.083-14.266,7.066-18.289,14.033c-4.022,6.967-5.091,15.083-3.009,22.854C6.539,53.042,18.495,62.225,32.09,62.225
		c2.625,0,5.255-0.348,7.815-1.034c15.686-4.203,25.181-20.148,21.552-35.858l-29.52,7.91c-0.344,0.092-0.713-0.006-0.966-0.259
		c-0.253-0.252-0.352-0.621-0.259-0.966l7.861-29.336C36.448,2.213,34.277,1.975,32.107,1.975z M38.564,26.816
		c-0.262,0-0.517-0.103-0.707-0.293c-0.253-0.252-0.352-0.621-0.259-0.966l6.555-24.462c0.142-0.529,0.683-0.846,1.214-0.71
		c9.131,2.341,16.317,9.442,18.753,18.532c0.069,0.256,0.039,0.553-0.094,0.783c-0.132,0.23-0.345,0.422-0.601,0.49l-24.603,6.592
		C38.737,26.805,38.65,26.816,38.564,26.816z M45.824,2.588l-5.846,21.814l21.944-5.879C59.529,10.861,53.485,4.89,45.824,2.588z"/>
</g>
</svg>
