<?xml version="1.0" encoding="iso-8859-1"?>
<!-- Generator: Adobe Illustrator 16.0.0, SVG Export Plug-In . SVG Version: 6.00 Build 0)  -->
<!DOCTYPE svg PUBLIC "-//W3C//DTD SVG 1.1//EN" "http://www.w3.org/Graphics/SVG/1.1/DTD/svg11.dtd">
<svg version="1.1" xmlns="http://www.w3.org/2000/svg" xmlns:xlink="http://www.w3.org/1999/xlink" x="0px" y="0px"
	 width="64.119px" height="64.158px" viewBox="0 0 64.119 64.158" style="enable-background:new 0 0 64.119 64.158;"
	 xml:space="preserve">
<g id="Layer_1">
	<path d="M63.717,56.496c-4.73-4.235-7.613-10.303-7.613-16.648V24.299c0-13.421-10.579-24.339-24-24.339
		c-13.421,0-24,10.918-24,24.339v15.549c0,6.345-2.883,12.414-7.613,16.649c-0.309,0.276-0.5,0.642-0.352,1.029
		c0.147,0.388,0.435,0.57,0.849,0.57h25.904c-0.03,0-0.05,0.533-0.05,0.767c0,2.901,2.361,5.298,5.263,5.298
		c2.901,0,5.262-2.415,5.262-5.316c0-0.233-0.021-0.749-0.051-0.749H63.22c0.415,0,0.701-0.184,0.849-0.57
		C64.217,57.138,64.026,56.772,63.717,56.496z M35.366,58.863c0,1.799-1.463,3.298-3.262,3.298c-1.799,0-3.263-1.518-3.263-3.316
		c0-0.237,0.033-0.749,0.082-0.749h6.359C35.333,58.096,35.366,58.627,35.366,58.863z M3.415,56.096
		c4.061-4,6.689-10.165,6.689-16.248V24.299c0-12.318,9.682-22.339,22-22.339c12.318,0,22,10.021,22,22.339v15.549
		c0,6.083,2.629,12.248,6.689,16.248H3.415z"/>
</g>
<g id="Layer_2">
</g>
</svg>
