<?xml version="1.0" encoding="iso-8859-1"?>
<!-- Generator: Adobe Illustrator 16.0.0, SVG Export Plug-In . SVG Version: 6.00 Build 0)  -->
<!DOCTYPE svg PUBLIC "-//W3C//DTD SVG 1.1//EN" "http://www.w3.org/Graphics/SVG/1.1/DTD/svg11.dtd">
<svg version="1.1" xmlns="http://www.w3.org/2000/svg" xmlns:xlink="http://www.w3.org/1999/xlink" x="0px" y="0px"
	 width="64.238px" height="64.228px" viewBox="0 0 64.238 64.228" style="enable-background:new 0 0 64.238 64.228;"
	 xml:space="preserve">
<g id="Layer_1" style="display:none;">
	
		<path style="display:inline;fill:none;stroke:#000000;stroke-width:2;stroke-linecap:round;stroke-linejoin:round;stroke-miterlimit:10;" d="
		M32.12,32.109c4.986-2.879,10.905-2.685,15.56-0.004c2.292,1.32,4.278,3.242,5.695,5.698c4.267,7.389,1.777,16.817-5.542,21.157
		c4.515-2.637,8.431-6.442,11.232-11.294c8.594-14.884,3.494-33.917-11.39-42.51"/>
	
		<path style="display:inline;fill:none;stroke:#000000;stroke-width:2;stroke-linecap:round;stroke-linejoin:round;stroke-miterlimit:10;" d="
		M32.119,32.11c0.001,5.758-3.127,10.786-7.775,13.477c-2.289,1.325-4.947,2.084-7.783,2.083c-8.531,0-15.452-6.87-15.551-15.378
		c0.026,5.229,1.363,10.522,4.164,15.375c8.594,14.884,27.627,19.985,42.51,11.391"/>
	
		<circle style="display:inline;fill:none;stroke:#000000;stroke-width:2;stroke-linecap:round;stroke-linejoin:round;stroke-miterlimit:10;" cx="16.559" cy="32.109" r="5.187"/>
	
		<path style="display:inline;fill:none;stroke:#000000;stroke-width:2;stroke-linecap:round;stroke-linejoin:round;stroke-miterlimit:10;" d="
		M24.344,18.635"/>
	
		<path style="display:inline;fill:none;stroke:#000000;stroke-width:2;stroke-linecap:round;stroke-linejoin:round;stroke-miterlimit:10;" d="
		M32.119,32.109c-4.987-2.879-7.777-8.102-7.783-13.474c-0.003-2.645,0.669-5.326,2.087-7.781
		c4.266-7.389,13.675-9.947,21.094-5.778c-4.542-2.592-9.794-4.081-15.397-4.081c-17.187,0-31.12,13.933-31.12,31.119"/>
	
		<circle style="display:inline;fill:none;stroke:#000000;stroke-width:2;stroke-linecap:round;stroke-linejoin:round;stroke-miterlimit:10;" cx="39.899" cy="18.634" r="5.187"/>
	
		<circle style="display:inline;fill:none;stroke:#000000;stroke-width:2;stroke-linecap:round;stroke-linejoin:round;stroke-miterlimit:10;" cx="39.899" cy="45.585" r="5.187"/>
	
		<path style="display:inline;fill:none;stroke:#000000;stroke-width:2;stroke-linecap:round;stroke-linejoin:round;stroke-miterlimit:10;" d="
		M47.821,5.251"/>
</g>
<g id="Layer_2">
	<path d="M63.14,23.793C60.92,15.506,55.605,8.58,48.175,4.29C48.14,4.27,48.1,4.268,48.063,4.252
		c-0.019-0.013-0.031-0.033-0.051-0.045c-4.829-2.755-10.324-4.212-15.893-4.212c-17.711,0-32.12,14.408-32.12,32.119
		c0,0.041,0.019,0.076,0.023,0.116c-0.001,0.023-0.013,0.043-0.013,0.067c0.028,5.56,1.514,11.047,4.298,15.87
		c4.29,7.43,11.217,12.745,19.504,14.966c2.768,0.742,5.575,1.108,8.366,1.108c5.565,0,11.059-1.46,16.006-4.317
		c0.031-0.018,0.049-0.048,0.078-0.069c0.025-0.012,0.051-0.017,0.076-0.031c4.8-2.804,8.81-6.835,11.594-11.658
		C64.221,40.736,65.36,32.081,63.14,23.793z M1.987,32.175c0.001-0.021,0.012-0.039,0.012-0.061
		c0-16.607,13.512-30.119,30.12-30.119c1.603,0,3.199,0.129,4.773,0.382c-4.607,0.856-8.83,3.637-11.335,7.977
		c-1.456,2.521-2.224,5.386-2.221,8.282c0.006,5.694,2.97,11.004,7.765,14.016c-0.187,4.973-2.926,9.786-7.258,12.293
		c-2.203,1.275-4.72,2.173-7.28,2.173c-0.001,0-0.002,0-0.002,0c-7.932,0-14.459-6.68-14.551-14.615
		C2.009,32.467,1.991,32.211,1.987,32.175z M47.322,58.1c-0.032,0.019-0.05,0.05-0.079,0.072c-0.02,0.009-0.041,0.009-0.06,0.02
		c-6.967,4.023-15.084,5.091-22.854,3.009c-7.771-2.082-14.267-7.066-18.289-14.034c-0.801-1.388-1.488-2.61-2.055-4.1
		c3.044,3.562,7.564,6.052,12.576,6.052c0.001,0,0.001,0,0.002,0c2.912,0,5.775-0.992,8.282-2.442
		c4.928-2.853,8.044-8.187,8.254-13.845c4.4-2.325,9.745-2.303,14.082,0.196c2.207,1.271,4.049,3.086,5.328,5.303
		C56.475,45.201,54.148,54.053,47.322,58.1z M58.199,47.166c-0.801,1.388-1.71,2.706-2.716,3.942
		c1.562-4.418,1.265-9.464-1.242-13.804c-1.455-2.522-3.551-4.619-6.062-6.065c-4.934-2.842-11.015-2.929-16.021-0.283
		c-4.213-2.648-6.816-7.316-6.822-12.321c-0.003-2.545,0.672-5.063,1.953-7.28c3.965-6.869,12.819-9.293,19.738-5.407
		c0.032,0.019,0.068,0.019,0.102,0.033c0.018,0.012,0.028,0.03,0.047,0.042c6.967,4.022,11.951,10.517,14.033,18.289
		C63.291,32.082,62.222,40.199,58.199,47.166z M16.559,38.296c3.411,0,6.187-2.775,6.187-6.187s-2.775-6.187-6.187-6.187
		s-6.187,2.775-6.187,6.187S13.147,38.296,16.559,38.296z M16.559,27.923c2.309,0,4.187,1.878,4.187,4.187s-1.878,4.187-4.187,4.187
		s-4.187-1.878-4.187-4.187S14.25,27.923,16.559,27.923z M42.993,13.276c-0.94-0.542-2.008-0.83-3.088-0.83
		c-2.206,0-4.261,1.186-5.363,3.094c-1.705,2.955-0.689,6.746,2.265,8.451c0.94,0.542,2.008,0.83,3.088,0.83
		c2.206,0,4.261-1.186,5.362-3.094c0.827-1.431,1.046-3.098,0.618-4.694C45.447,15.437,44.424,14.103,42.993,13.276z M43.525,20.727
		c-0.745,1.292-2.137,2.094-3.63,2.094c-0.73,0-1.452-0.194-2.088-0.562c-1.999-1.154-2.687-3.719-1.533-5.719
		c0.746-1.292,2.138-2.094,3.631-2.094c0.729,0,1.452,0.194,2.088,0.562c0.968,0.559,1.661,1.462,1.951,2.542
		S44.084,19.759,43.525,20.727z M39.894,39.398c-1.08,0-2.148,0.287-3.088,0.83c-2.954,1.706-3.97,5.497-2.265,8.451
		c1.102,1.909,3.157,3.094,5.363,3.094c1.081,0,2.148-0.287,3.088-0.83c2.954-1.706,3.97-5.497,2.264-8.451
		C44.155,40.583,42.1,39.398,39.894,39.398z M41.993,49.211c-0.636,0.368-1.358,0.562-2.088,0.562c-1.494,0-2.885-0.803-3.63-2.094
		c-1.154-2-0.467-4.565,1.532-5.719c0.636-0.368,1.358-0.562,2.088-0.562c1.494,0,2.885,0.803,3.631,2.094
		C44.679,45.492,43.992,48.057,41.993,49.211z"/>
</g>
</svg>
