<?xml version="1.0" encoding="iso-8859-1"?>
<!-- Generator: Adobe Illustrator 16.0.0, SVG Export Plug-In . SVG Version: 6.00 Build 0)  -->
<!DOCTYPE svg PUBLIC "-//W3C//DTD SVG 1.1//EN" "http://www.w3.org/Graphics/SVG/1.1/DTD/svg11.dtd">
<svg version="1.1" xmlns="http://www.w3.org/2000/svg" xmlns:xlink="http://www.w3.org/1999/xlink" x="0px" y="0px"
	 width="64.238px" height="64.228px" viewBox="0 0 64.238 64.228" style="enable-background:new 0 0 64.238 64.228;"
	 xml:space="preserve">
<g id="Layer_1" style="display:none;">
	<g style="display:inline;">
		<g>
			<path style="fill:none;stroke:#00FF00;stroke-width:2;stroke-linecap:round;stroke-linejoin:round;stroke-miterlimit:10;" d="
				M47.679,32.1c0-8.593-6.966-15.56-15.56-15.56S16.56,23.507,16.56,32.1v31.119L1,63.208V32.1C1,14.914,14.933,0.981,32.119,0.981
				c17.187,0,31.12,13.933,31.12,31.119v31.109"/>
		</g>
		<path style="fill:none;stroke:#000000;stroke-width:2;stroke-linecap:round;stroke-linejoin:round;stroke-miterlimit:10;" d="
			M16.56,32.1c0-8.593,6.966-15.56,15.56-15.56s15.56,6.966,15.56,15.56v31.119l15.56-0.011V32.1
			c0-17.186-13.933-31.119-31.119-31.119C14.933,0.981,1,14.914,1,32.1v31.109l15.56,0.011V32.1z"/>
		
			<line style="fill:none;stroke:#000000;stroke-width:2;stroke-linecap:round;stroke-linejoin:round;stroke-miterlimit:10;" x1="16.56" y1="47.656" x2="1" y2="47.656"/>
		
			<line style="fill:none;stroke:#000000;stroke-width:2;stroke-linecap:round;stroke-linejoin:round;stroke-miterlimit:10;" x1="47.679" y1="47.656" x2="63.238" y2="47.656"/>
	</g>
</g>
<g id="Layer_2">
	<path d="M64.068,28.82c-0.11-1.079-0.271-2.141-0.486-3.186c-0.107-0.522-0.226-1.04-0.358-1.553
		C59.654,10.238,47.062-0.019,32.119-0.019h0h0c-14.943,0-27.535,10.257-31.105,24.101c-0.132,0.513-0.252,1.031-0.359,1.553
		c-0.214,1.044-0.263,2.107-0.373,3.186S0.23,30.993,0.23,32.1v31.109c0,0.552,0.332,0.95,0.884,0.95l15.502-0.039h-0.028
		c0.265,0,0.34-0.056,0.528-0.243c0.188-0.188,0.114-0.393,0.114-0.658V32.1c0-8.028,6.472-14.56,14.5-14.56s14.5,6.531,14.5,14.56
		v31.119c0,0.265,0.33,0.47,0.517,0.658c0.188,0.187,0.554,0.243,0.819,0.243h0.057l15.588,0.039c0.07,0,0.145-0.001,0.21-0.015
		c0.064-0.013,0.141-0.001,0.2-0.026c0.102-0.044,0.192-0.104,0.273-0.176c0.014-0.013,0.031-0.015,0.045-0.029
		c0.181-0.181,0.291-0.428,0.291-0.704V32.1C64.23,30.993,64.178,29.899,64.068,28.82z M2.23,62.209V49.12h13v13.099L2.23,62.209z
		 M31.73,15.541c-9.131,0-16.5,7.429-16.5,16.56v15.02h-13V32.1c0-0.519-0.102-1.035-0.076-1.547
		c0.104-2.051,0.357-4.048,0.853-5.971c0.124-0.481,0.231-0.957,0.378-1.429C7.205,10.901,18.64,1.981,32.134,1.981
		c13.493,0,24.936,8.92,28.755,21.172c0.147,0.472,0.279,0.948,0.403,1.429c0.496,1.923,0.801,3.92,0.905,5.971
		c0.026,0.513,0.033,1.028,0.033,1.547v15.02h-14V32.1C48.23,22.969,40.861,15.541,31.73,15.541z M48.23,49.12h14v13.089l-14,0.01
		V49.12z"/>
</g>
</svg>
