<?xml version="1.0" encoding="iso-8859-1"?>
<!-- Generator: Adobe Illustrator 16.0.0, SVG Export Plug-In . SVG Version: 6.00 Build 0)  -->
<!DOCTYPE svg PUBLIC "-//W3C//DTD SVG 1.1//EN" "http://www.w3.org/Graphics/SVG/1.1/DTD/svg11.dtd">
<svg version="1.1" xmlns="http://www.w3.org/2000/svg" xmlns:xlink="http://www.w3.org/1999/xlink" x="0px" y="0px"
	 width="64.119px" height="64.158px" viewBox="0 0 64.119 64.158" style="enable-background:new 0 0 64.119 64.158;"
	 xml:space="preserve">
<g id="Layer_1">
	<path d="M8.765,64.197c-4.841,0-8.78-3.938-8.78-8.78s3.938-8.78,8.78-8.78s8.78,3.938,8.78,8.78S13.606,64.197,8.765,64.197z
		 M8.765,48.637c-3.738,0-6.78,3.042-6.78,6.78s3.042,6.78,6.78,6.78s6.78-3.042,6.78-6.78S12.503,48.637,8.765,48.637z
		 M48.663,63.196c0-26.291-21.388-47.679-47.678-47.679c-0.552,0-1,0.448-1,1s0.448,1,1,1c25.187,0,45.678,20.492,45.678,45.679
		c0,0.552,0.448,1,1,1S48.663,63.749,48.663,63.196z M33.103,63.196c0-17.71-14.408-32.118-32.119-32.118c-0.552,0-1,0.448-1,1
		s0.448,1,1,1c16.607,0,30.119,13.511,30.119,30.118c0,0.552,0.448,1,1,1S33.103,63.748,33.103,63.196z M64.223,63.195
		c0-34.869-28.368-63.237-63.237-63.237c-0.552,0-1,0.448-1,1s0.448,1,1,1c33.766,0,61.237,27.471,61.237,61.237
		c0,0.552,0.448,1,1,1S64.223,63.748,64.223,63.195z"/>
</g>
<g id="Layer_2">
</g>
</svg>
