<?xml version="1.0" encoding="iso-8859-1"?>
<!-- Generator: Adobe Illustrator 16.0.0, SVG Export Plug-In . SVG Version: 6.00 Build 0)  -->
<!DOCTYPE svg PUBLIC "-//W3C//DTD SVG 1.1//EN" "http://www.w3.org/Graphics/SVG/1.1/DTD/svg11.dtd">
<svg version="1.1" xmlns="http://www.w3.org/2000/svg" xmlns:xlink="http://www.w3.org/1999/xlink" x="0px" y="0px"
	 width="64.238px" height="64.228px" viewBox="0 0 64.238 64.228" style="enable-background:new 0 0 64.238 64.228;"
	 xml:space="preserve">
<g id="Layer_1" style="display:none;">
	
		<path style="display:inline;fill:none;stroke:#000000;stroke-width:2;stroke-linecap:round;stroke-linejoin:round;stroke-miterlimit:10;" d="
		M24.373,32.1c0-8.763,0.003-16.675,1.269-22.331c-5.147-5.017-10.746-8.788-15.071-8.788c-9.548,0-9.548,13.933-9.548,31.119
		c0,17.187,0,31.109,9.548,31.12c4.325,0.005,9.925-3.767,15.072-8.785C24.376,48.779,24.373,40.867,24.373,32.1z"/>
	
		<path style="display:inline;fill:none;stroke:#000000;stroke-width:2;stroke-linecap:round;stroke-linejoin:round;stroke-miterlimit:10;" d="
		M63.261,32.1c0,7.88-18.603,31.132-29.341,31.12c-9.548-0.011-9.548-13.933-9.548-31.12c0-17.186,0-31.119,9.548-31.119
		C44.659,0.981,63.261,24.219,63.261,32.1z"/>
</g>
<g id="Layer_2">
	<path d="M33.92-0.019c-4.752,0-7.359,3.028-8.794,7.924c-3.669-3.383-9.529-7.924-14.556-7.924
		C0.023-0.019,0.023,14.815,0.023,32.05c0,17.229,0,32.07,10.547,32.07c0,0,0.009,0,0.01,0c5.029,0,10.882-4.54,14.549-7.923
		c1.435,4.891,4.042,7.923,8.791,7.923h0.009c11.185,0,30.333-23.642,30.333-32.07C64.261,23.622,45.108-0.019,33.92-0.019z
		 M24.549,54.051c-5.394,5.167-10.467,8.069-13.97,8.069h-0.007c-8.549,0-8.549-13.247-8.549-30.07c0-16.827,0-30.094,8.548-30.094
		c3.503,0,8.579,2.966,13.977,8.134c-0.001,0.004,0.012,0.014,0.033,0.018c-1.204,5.824-1.208,13.628-1.208,21.988
		c0,8.364,0.004,16.146,1.21,21.97C24.574,54.068,24.548,54.049,24.549,54.051z M33.929,62.12h-0.007
		c-8.549,0-8.549-13.247-8.549-30.07c0-16.827,0-30.094,8.548-30.094c4.397,0,11.274,4.712,17.947,12.278
		c6.022,6.828,10.394,14.343,10.394,17.859s-4.369,10.978-10.389,17.806C45.202,57.466,38.326,62.12,33.929,62.12z"/>
</g>
</svg>
