<?xml version="1.0" encoding="iso-8859-1"?>
<!-- Generator: Adobe Illustrator 16.0.0, SVG Export Plug-In . SVG Version: 6.00 Build 0)  -->
<!DOCTYPE svg PUBLIC "-//W3C//DTD SVG 1.1//EN" "http://www.w3.org/Graphics/SVG/1.1/DTD/svg11.dtd">
<svg version="1.1" xmlns="http://www.w3.org/2000/svg" xmlns:xlink="http://www.w3.org/1999/xlink" x="0px" y="0px"
	 width="64.238px" height="64.228px" viewBox="0 0 64.238 64.228" style="enable-background:new 0 0 64.238 64.228;"
	 xml:space="preserve">
<g id="Layer_1" style="display:none;">
	
		<path style="display:inline;fill:none;stroke:#000000;stroke-width:2;stroke-linecap:round;stroke-linejoin:round;stroke-miterlimit:10;" d="
		M6.028,14.719c9.606-14.25,28.947-18.015,43.198-8.407c14.25,9.606,18.015,28.947,8.409,43.197
		c-9.607,14.251-28.948,18.017-43.198,8.409C7.312,53.116,2.808,45.879,1.286,38.062"/>
	
		<polyline style="display:inline;fill:none;stroke:#000000;stroke-width:2;stroke-linecap:round;stroke-linejoin:round;stroke-miterlimit:10;" points="
		19.734,14.702 6.027,14.72 6.008,1.012 	"/>
</g>
<g id="Layer_2">
	<path d="M58.464,50.068c-4.795,7.114-12.075,11.935-20.496,13.574c-2.067,0.402-4.145,0.601-6.205,0.601
		c-6.332,0-12.519-1.877-17.886-5.496C6.764,53.953,1.943,46.674,0.304,38.253c-0.105-0.542,0.248-1.067,0.791-1.172
		c0.54-0.109,1.067,0.248,1.172,0.79c1.538,7.896,6.058,14.722,12.729,19.218c6.67,4.498,14.693,6.127,22.59,4.589
		c7.897-1.537,14.723-6.06,19.22-12.73c4.497-6.67,6.126-14.695,4.589-22.592S55.338,11.629,48.667,7.132
		c-6.67-4.497-14.692-6.137-22.591-4.6C19.029,3.904,12.84,7.639,8.393,13.17l11.152-0.051c0,0,0.001,0,0.001,0
		c0.526,0,0.953,0.467,0.954,0.998c0,0.532-0.426,1.001-0.953,1.001L6.473,15.137c0,0,0,0-0.001,0c-0.526,0-0.953-0.431-0.954-0.963
		L5.5,0.965C5.499,0.433,5.926,0.001,6.453,0c0,0,0,0,0.001,0C6.98,0,7.407,0.431,7.408,0.962l0.014,10.281
		c4.693-5.511,11.062-9.252,18.272-10.656c8.422-1.639,16.977,0.1,24.091,4.896c7.114,4.795,11.934,12.074,13.573,20.495
		C64.998,34.399,63.259,42.955,58.464,50.068z"/>
</g>
</svg>
