<?xml version="1.0" encoding="iso-8859-1"?>
<!-- Generator: Adobe Illustrator 16.0.0, SVG Export Plug-In . SVG Version: 6.00 Build 0)  -->
<!DOCTYPE svg PUBLIC "-//W3C//DTD SVG 1.1//EN" "http://www.w3.org/Graphics/SVG/1.1/DTD/svg11.dtd">
<svg version="1.1" xmlns="http://www.w3.org/2000/svg" xmlns:xlink="http://www.w3.org/1999/xlink" x="0px" y="0px"
	 width="64.119px" height="64.158px" viewBox="0 0 64.119 64.158" style="enable-background:new 0 0 64.119 64.158;"
	 xml:space="preserve">
<g id="Layer_1">
	<path d="M63.96,56.967l-2.114-2.114l2.043-2.043c0.391-0.391,0.391-1.023,0-1.414l-3.776-3.777
		c2.588-4.628,4.069-9.954,4.069-15.623c0-17.71-14.408-32.119-32.119-32.119c-17.711,0-32.12,14.408-32.12,32.119
		c0,17.711,14.409,32.12,32.12,32.12c5.575,0,10.821-1.43,15.395-3.938c0,0,0,0,0.001,0c0.081-0.044,0.16-0.093,0.24-0.139
		l3.773,3.774c0.188,0.188,0.442,0.293,0.707,0.293s0.52-0.105,0.707-0.293l2.043-2.043l2.114,2.115
		c0.188,0.188,0.442,0.293,0.707,0.293s0.52-0.105,0.707-0.293l5.501-5.502C64.351,57.99,64.351,57.357,63.96,56.967z
		 M56.575,49.466c-0.162,0.226-0.322,0.453-0.49,0.674c-0.183,0.242-0.372,0.479-0.562,0.714c-0.161,0.2-0.324,0.396-0.49,0.592
		c-0.198,0.233-0.396,0.466-0.601,0.693c-0.175,0.195-0.357,0.383-0.538,0.573c-0.36,0.38-0.73,0.75-1.11,1.11
		c-0.189,0.18-0.376,0.361-0.57,0.536c-0.229,0.207-0.463,0.406-0.698,0.605c-0.192,0.163-0.386,0.324-0.583,0.483
		c-0.239,0.192-0.479,0.384-0.724,0.569c-0.212,0.161-0.43,0.315-0.646,0.471c-0.367,0.263-0.739,0.518-1.118,0.765
		c-0.134,0.087-0.271,0.172-0.406,0.258c-0.45-3.809-3.049-8.496-7.019-12.465c-2.896-2.897-6.128-5.052-9.184-6.19
		c0.164-0.425,0.198-0.919,0.102-1.465c0.204,0.037,0.404,0.062,0.597,0.062c0.649,0,1.207-0.214,1.61-0.618
		c0.532-0.531,0.706-1.3,0.547-2.194c0.203,0.036,0.402,0.061,0.594,0.061c0.649,0,1.206-0.213,1.61-0.618
		c0.531-0.531,0.706-1.3,0.547-2.194c0.202,0.036,0.402,0.061,0.593,0.061c0.321,0,0.619-0.053,0.888-0.155
		c1.141,3.051,3.293,6.274,6.183,9.163c3.97,3.971,8.657,6.57,12.466,7.018c-0.089,0.142-0.177,0.284-0.269,0.424
		C57.069,48.76,56.826,49.115,56.575,49.466z M31.395,28.581c0.011-0.008,0.071-0.033,0.196-0.033c0.534,0,1.549,0.44,2.516,1.408
		c1.345,1.345,1.509,2.535,1.376,2.71c0,0-0.05,0.033-0.197,0.033c-0.534,0-1.549-0.44-2.516-1.407
		C31.425,29.947,31.261,28.756,31.395,28.581z M34.146,25.83c0.011-0.009,0.071-0.033,0.196-0.033c0.534,0,1.548,0.44,2.515,1.408
		c1.347,1.347,1.51,2.537,1.377,2.711c0,0-0.05,0.033-0.197,0.033c-0.534,0-1.549-0.44-2.516-1.407
		C34.175,27.195,34.011,26.005,34.146,25.83z M31.356,32.706c1.343,1.344,1.509,2.535,1.375,2.711
		c-0.011,0.009-0.071,0.033-0.196,0.033c-0.534,0-1.548-0.44-2.516-1.408c-1.347-1.347-1.51-2.537-1.376-2.711
		c0,0,0.05-0.033,0.197-0.033C29.374,31.298,30.389,31.739,31.356,32.706z M29.977,38.164c-0.011,0.009-0.071,0.033-0.196,0.033
		c-0.534,0-1.549-0.441-2.516-1.408c-1.345-1.345-1.509-2.536-1.375-2.711c0.011-0.008,0.071-0.033,0.196-0.033
		c0.534,0,1.549,0.44,2.516,1.408C29.947,36.799,30.111,37.989,29.977,38.164z M1.944,31.996c0-16.607,13.512-30.119,30.12-30.119
		c16.607,0,30.119,13.511,30.119,30.119c0,5.072-1.266,9.853-3.489,14.05c-3.416-0.004-8.215-2.546-12.171-6.503
		c-3.4-3.401-5.782-7.408-6.371-10.718c-0.021-0.122-0.071-0.231-0.13-0.332c-0.299-0.89-0.881-1.834-1.75-2.702
		c-1.248-1.248-2.717-1.994-3.929-1.994c-0.649,0-1.206,0.214-1.61,0.618c-0.541,0.541-0.71,1.329-0.536,2.243
		c-0.89-0.161-1.69-0.018-2.215,0.507c-0.541,0.541-0.71,1.329-0.536,2.243c-0.889-0.16-1.688-0.018-2.215,0.508
		c-0.545,0.545-0.699,1.347-0.533,2.24c-0.893-0.163-1.695-0.021-2.222,0.506c-0.649,0.649-0.794,1.644-0.409,2.802
		c0.308,0.924,0.941,1.896,1.784,2.739c0.918,0.918,1.956,1.562,2.923,1.839c0.04,0.012,0.073,0.038,0.115,0.045
		c3.31,0.588,7.316,2.969,10.718,6.37c3.956,3.956,6.501,8.755,6.505,12.17c-4.197,2.223-8.976,3.488-14.047,3.488
		C15.456,62.115,1.944,48.604,1.944,31.996z M52.181,61.69l-2.707-2.707c0.138-0.089,0.27-0.187,0.406-0.278
		c0.115-0.077,0.229-0.157,0.343-0.235c0.331-0.228,0.659-0.459,0.981-0.699c0.082-0.061,0.161-0.124,0.241-0.185
		c0.348-0.264,0.693-0.532,1.03-0.81c0.015-0.013,0.03-0.026,0.045-0.039c1.543-1.278,2.964-2.698,4.245-4.238
		c0.029-0.035,0.059-0.068,0.088-0.103c0.267-0.324,0.524-0.656,0.779-0.991c0.073-0.095,0.147-0.189,0.219-0.286
		c0.23-0.31,0.452-0.625,0.671-0.943c0.089-0.128,0.178-0.257,0.265-0.387c0.089-0.134,0.185-0.263,0.272-0.398l2.709,2.709
		l-2.011,2.011c-0.012,0.011-0.028,0.014-0.039,0.025l-5.501,5.501c-0.012,0.012-0.016,0.028-0.027,0.041L52.181,61.69z
		 M57.752,61.761l-1.407-1.407l4.087-4.087l1.407,1.407L57.752,61.761z"/>
</g>
<g id="Layer_2">
</g>
</svg>
