<?xml version="1.0" encoding="iso-8859-1"?>
<!-- Generator: Adobe Illustrator 16.0.0, SVG Export Plug-In . SVG Version: 6.00 Build 0)  -->
<!DOCTYPE svg PUBLIC "-//W3C//DTD SVG 1.1//EN" "http://www.w3.org/Graphics/SVG/1.1/DTD/svg11.dtd">
<svg version="1.1" xmlns="http://www.w3.org/2000/svg" xmlns:xlink="http://www.w3.org/1999/xlink" x="0px" y="0px"
	 width="64.238px" height="64.228px" viewBox="0 0 64.238 64.228" style="enable-background:new 0 0 64.238 64.228;"
	 xml:space="preserve">
<g id="Layer_1" style="display:none;">
	<g style="display:inline;">
		
			<circle style="fill:none;stroke:#000000;stroke-width:2;stroke-linecap:round;stroke-linejoin:round;stroke-miterlimit:10;" cx="32.119" cy="32.082" r="31.119"/>
		
			<circle style="fill:none;stroke:#000000;stroke-width:2;stroke-linecap:round;stroke-linejoin:round;stroke-miterlimit:10;" cx="32.119" cy="32.082" r="2.938"/>
		
			<line style="fill:none;stroke:#000000;stroke-width:2;stroke-linecap:round;stroke-linejoin:round;stroke-miterlimit:10;" x1="32.119" y1="26.27" x2="32.119" y2="11.27"/>
		
			<line style="fill:none;stroke:#000000;stroke-width:2;stroke-linecap:round;stroke-linejoin:round;stroke-miterlimit:10;" x1="37.932" y1="32.06" x2="47.122" y2="32.06"/>
		
			<line style="fill:none;stroke:#000000;stroke-width:2;stroke-linecap:round;stroke-linejoin:round;stroke-miterlimit:10;" x1="60.173" y1="32.06" x2="63.152" y2="32.06"/>
		
			<line style="fill:none;stroke:#000000;stroke-width:2;stroke-linecap:round;stroke-linejoin:round;stroke-miterlimit:10;" x1="32.142" y1="60.136" x2="32.142" y2="63.115"/>
		
			<line style="fill:none;stroke:#000000;stroke-width:2;stroke-linecap:round;stroke-linejoin:round;stroke-miterlimit:10;" x1="4.065" y1="32.105" x2="1.086" y2="32.105"/>
		
			<line style="fill:none;stroke:#000000;stroke-width:2;stroke-linecap:round;stroke-linejoin:round;stroke-miterlimit:10;" x1="32.097" y1="4.028" x2="32.097" y2="1.049"/>
	</g>
</g>
<g id="Layer_2">
	<path d="M32.119,36.02c-2.171,0-3.938-1.767-3.938-3.938s1.767-3.938,3.938-3.938s3.938,1.767,3.938,3.938
		S34.29,36.02,32.119,36.02z M32.119,30.145c-1.068,0-1.938,0.869-1.938,1.938s0.869,1.938,1.938,1.938s1.938-0.869,1.938-1.938
		S33.188,30.145,32.119,30.145z M33.119,26.27v-15c0-0.552-0.448-1-1-1s-1,0.448-1,1v15c0,0.552,0.448,1,1,1
		S33.119,26.822,33.119,26.27z M48.122,32.06c0-0.552-0.448-1-1-1h-9.189c-0.552,0-1,0.448-1,1s0.448,1,1,1h9.189
		C47.674,33.06,48.122,32.612,48.122,32.06z M32.12-0.037C14.409-0.037,0,14.371,0,32.082c0,17.711,14.409,32.12,32.12,32.12
		c17.71,0,32.119-14.409,32.119-32.12C64.238,14.371,49.83-0.037,32.12-0.037z M33.23,62.175v-2.039c0-0.552-0.448-1-1-1
		s-1,0.448-1,1v2.04C15.23,61.668,2.558,49.12,2.026,33.12h2.04c0.552,0,1-0.448,1-1s-0.448-1-1-1H2.025
		c0.507-16,13.206-28.6,29.206-29.131v2.04c0,0.552,0.448,1,1,1s1-0.448,1-1V1.988c16,0.508,28.451,13.132,28.982,29.132h-2.039
		c-0.552,0-1,0.448-1,1s0.448,1,1,1h2.04C61.705,49.12,49.23,61.644,33.23,62.175z"/>
</g>
</svg>
