<?xml version="1.0" encoding="iso-8859-1"?>
<!-- Generator: Adobe Illustrator 16.0.0, SVG Export Plug-In . SVG Version: 6.00 Build 0)  -->
<!DOCTYPE svg PUBLIC "-//W3C//DTD SVG 1.1//EN" "http://www.w3.org/Graphics/SVG/1.1/DTD/svg11.dtd">
<svg version="1.1" xmlns="http://www.w3.org/2000/svg" xmlns:xlink="http://www.w3.org/1999/xlink" x="0px" y="0px"
	 width="64.238px" height="64.228px" viewBox="0 0 64.238 64.228" style="enable-background:new 0 0 64.238 64.228;"
	 xml:space="preserve">
<g id="Layer_1" style="display:none;">
	
		<path style="display:inline;fill:none;stroke:#000000;stroke-width:2;stroke-linecap:round;stroke-linejoin:round;stroke-miterlimit:10;" d="
		M24.763,1.905c-14,3.357-23.783,15.603-23.783,30.203c0,17.187,13.851,31.12,31.038,31.12c17.186,0,31.241-13.933,31.241-31.12
		c0-14.6-10.496-26.846-23.496-30.203"/>
	
		<line style="display:inline;fill:none;stroke:#000000;stroke-width:2;stroke-linecap:round;stroke-linejoin:round;stroke-miterlimit:10;" x1="31.935" y1="46.955" x2="31.935" y2="0.989"/>
	
		<polyline style="display:inline;fill:none;stroke:#000000;stroke-width:2;stroke-linecap:round;stroke-linejoin:round;stroke-miterlimit:10;" points="
		46.651,32.238 31.935,46.955 17.219,32.238 	"/>
</g>
<g id="Layer_2">
	<path d="M32.018,64.227c-17.666,0-32.038-14.409-32.038-32.12c0-14.89,10.095-27.709,24.55-31.175
		c0.542-0.127,1.078,0.203,1.206,0.739c0.128,0.537-0.203,1.077-0.739,1.206C11.444,6.126,1.979,18.146,1.979,32.107
		c0,16.608,13.475,30.12,30.038,30.12c16.675,0,30.241-13.512,30.241-30.12c0-13.537-9.566-25.832-22.746-29.235
		c-0.535-0.138-0.856-0.684-0.718-1.218c0.138-0.534,0.681-0.855,1.218-0.718c14.049,3.628,24.246,16.737,24.246,31.171
		C64.259,49.818,49.795,64.227,32.018,64.227z M47.64,31.531c-0.391-0.391-1.017-0.391-1.407,0L33.23,44.54V1c0-0.552-0.448-1-1-1
		s-1,0.448-1,1v43.541l-13.017-13.01c-0.391-0.391-1.027-0.391-1.417,0s-0.392,1.023-0.001,1.414L31.488,47.64
		c0.183,0.198,0.438,0.326,0.729,0.326c0.292,0,0.548-0.129,0.731-0.329L47.64,32.945C48.03,32.554,48.03,31.921,47.64,31.531z"/>
</g>
</svg>
