<?xml version="1.0" encoding="iso-8859-1"?>
<!-- Generator: Adobe Illustrator 16.0.0, SVG Export Plug-In . SVG Version: 6.00 Build 0)  -->
<!DOCTYPE svg PUBLIC "-//W3C//DTD SVG 1.1//EN" "http://www.w3.org/Graphics/SVG/1.1/DTD/svg11.dtd">
<svg version="1.1" xmlns="http://www.w3.org/2000/svg" xmlns:xlink="http://www.w3.org/1999/xlink" x="0px" y="0px"
	 width="64.238px" height="64.228px" viewBox="0 0 64.238 64.228" style="enable-background:new 0 0 64.238 64.228;"
	 xml:space="preserve">
<g id="Layer_1" style="display:none;">
	<g style="display:inline;">
		
			<circle style="fill:none;stroke:#000000;stroke-width:2;stroke-linecap:round;stroke-linejoin:round;stroke-miterlimit:10;" cx="32.12" cy="32.113" r="31.119"/>
		
			<line style="fill:none;stroke:#000000;stroke-width:2;stroke-linecap:round;stroke-linejoin:round;stroke-miterlimit:10;" x1="32.12" y1="32.114" x2="32.12" y2="11.301"/>
		
			<line style="fill:none;stroke:#000000;stroke-width:2;stroke-linecap:round;stroke-linejoin:round;stroke-miterlimit:10;" x1="32.12" y1="32.114" x2="32.12" y2="52.926"/>
		
			<line style="fill:none;stroke:#000000;stroke-width:2;stroke-linecap:round;stroke-linejoin:round;stroke-miterlimit:10;" x1="32.12" y1="32.114" x2="52.932" y2="32.114"/>
		
			<line style="fill:none;stroke:#000000;stroke-width:2;stroke-linecap:round;stroke-linejoin:round;stroke-miterlimit:10;" x1="32.12" y1="32.114" x2="11.307" y2="32.114"/>
	</g>
</g>
<g id="Layer_2">
	<path d="M32.12,64.233C14.409,64.233,0,49.824,0,32.113C0,14.403,14.409-0.005,32.12-0.005c17.71,0,32.119,14.408,32.119,32.119
		C64.239,49.824,49.831,64.233,32.12,64.233z M32.12,1.995C15.512,1.995,2,15.506,2,32.113c0,16.608,13.512,30.12,30.12,30.12
		c16.607,0,30.119-13.512,30.119-30.12C62.239,15.506,48.728,1.995,32.12,1.995z M52.932,31.12H33.23V11.301c0-0.552-0.448-1-1-1
		s-1,0.448-1,1V31.12H11.307c-0.552,0-1,0.448-1,1s0.448,1,1,1H31.23v19.807c0,0.552,0.448,1,1,1s1-0.448,1-1V33.12h19.702
		c0.552,0,1-0.448,1-1S53.484,31.12,52.932,31.12z"/>
</g>
</svg>
