<?xml version="1.0" encoding="iso-8859-1"?>
<!-- Generator: Adobe Illustrator 16.0.0, SVG Export Plug-In . SVG Version: 6.00 Build 0)  -->
<!DOCTYPE svg PUBLIC "-//W3C//DTD SVG 1.1//EN" "http://www.w3.org/Graphics/SVG/1.1/DTD/svg11.dtd">
<svg version="1.1" xmlns="http://www.w3.org/2000/svg" xmlns:xlink="http://www.w3.org/1999/xlink" x="0px" y="0px"
	 width="64.238px" height="64.228px" viewBox="0 0 64.238 64.228" style="enable-background:new 0 0 64.238 64.228;"
	 xml:space="preserve">
<g id="Layer_1" style="display:none;">
	
		<polyline style="display:inline;fill:none;stroke:#000000;stroke-width:2;stroke-linecap:round;stroke-linejoin:round;stroke-miterlimit:10;" points="
		17.393,37.075 32.109,22.358 46.825,37.075 	"/>
	<g style="display:inline;">
		
			<circle style="fill:none;stroke:#000000;stroke-width:2;stroke-linecap:round;stroke-linejoin:round;stroke-miterlimit:10;" cx="32.113" cy="32.098" r="31.119"/>
	</g>
</g>
<g id="Layer_2">
	<path d="M17.393,38.075c-0.256,0-0.512-0.098-0.707-0.293c-0.391-0.391-0.391-1.023,0-1.414l14.717-14.717
		c0.375-0.375,1.039-0.375,1.414,0l14.716,14.717c0.391,0.391,0.391,1.023,0,1.414s-1.023,0.391-1.414,0l-14.009-14.01L18.1,37.782
		C17.904,37.978,17.648,38.075,17.393,38.075z M64.233,32.097c0-17.71-14.409-32.118-32.12-32.118
		c-17.71,0-32.118,14.408-32.118,32.118c0,17.711,14.408,32.12,32.118,32.12C49.824,64.217,64.233,49.808,64.233,32.097z
		 M62.233,32.097c0,16.608-13.512,30.12-30.12,30.12c-16.607,0-30.118-13.512-30.118-30.12c0-16.607,13.511-30.118,30.118-30.118
		C48.722,1.979,62.233,15.489,62.233,32.097z"/>
</g>
</svg>
