<?xml version="1.0" encoding="iso-8859-1"?>
<!-- Generator: Adobe Illustrator 16.0.0, SVG Export Plug-In . SVG Version: 6.00 Build 0)  -->
<!DOCTYPE svg PUBLIC "-//W3C//DTD SVG 1.1//EN" "http://www.w3.org/Graphics/SVG/1.1/DTD/svg11.dtd">
<svg version="1.1" xmlns="http://www.w3.org/2000/svg" xmlns:xlink="http://www.w3.org/1999/xlink" x="0px" y="0px"
	 width="64.119px" height="64.158px" viewBox="0 0 64.119 64.158" style="enable-background:new 0 0 64.119 64.158;"
	 xml:space="preserve">
<g id="Layer_1">
	<g>
		<path d="M63.111,31.096h-7.008V24.3c0-13.421-10.579-24.34-24-24.34s-24,10.919-24,24.34v6.796h-7.23c-0.552,0-1,0.439-1,0.991
			c0,17.711,14.409,32.115,32.12,32.115c17.71,0,32.119-14.402,32.119-32.113C64.111,31.537,63.664,31.096,63.111,31.096z
			 M10.104,24.3c0-12.318,9.681-22.34,22-22.34s22,10.022,22,22.34v6.796h-44V24.3z M31.993,62.215
			c-16.273,0-29.574-13.12-30.103-29.12h6.759c0.001,0,0.001,0,0.002,0s0.001,0,0.002,0h46.677c0.001,0,0.001,0,0.002,0
			s0.001,0,0.002,0h6.759C61.566,49.096,48.266,62.215,31.993,62.215z"/>
		<path d="M33.57,48.354c1.92-0.66,3.312-2.464,3.312-4.605c0-2.696-2.193-4.89-4.89-4.89s-4.89,2.194-4.89,4.89
			c0,2.141,1.392,3.945,3.312,4.605l-3.771,6.532c-0.178,0.31-0.178,0.545,0,0.855c0.179,0.31,0.509,0.355,0.866,0.355h8.965
			c0.007,0,0.013,0,0.02,0c0.552,0,1-0.303,1-0.855c0-0.249-0.091-0.405-0.242-0.58L33.57,48.354z M29.103,43.749
			c0-1.594,1.296-2.89,2.89-2.89s2.89,1.296,2.89,2.89c0,1.593-1.296,2.89-2.89,2.89S29.103,45.342,29.103,43.749z M29.242,54.096
			l2.75-4.764l2.75,4.764H29.242z"/>
	</g>
</g>
<g id="Layer_2">
</g>
</svg>
