<?xml version="1.0" encoding="iso-8859-1"?>
<!-- Generator: Adobe Illustrator 16.0.0, SVG Export Plug-In . SVG Version: 6.00 Build 0)  -->
<!DOCTYPE svg PUBLIC "-//W3C//DTD SVG 1.1//EN" "http://www.w3.org/Graphics/SVG/1.1/DTD/svg11.dtd">
<svg version="1.1" xmlns="http://www.w3.org/2000/svg" xmlns:xlink="http://www.w3.org/1999/xlink" x="0px" y="0px"
	 width="64.119px" height="64.158px" viewBox="0 0 64.119 64.158" style="enable-background:new 0 0 64.119 64.158;"
	 xml:space="preserve">
<g id="Layer_1">
	<path d="M32.06,33.079c-18.011,0-32.12-7.274-32.12-16.56c0-9.286,14.108-16.559,32.12-16.559c18.01,0,32.119,7.273,32.119,16.559
		C64.179,25.805,50.07,33.079,32.06,33.079z M32.06,1.959c-16.608,0-30.12,6.531-30.12,14.559c0,8.028,13.512,14.56,30.12,14.56
		c16.607,0,30.119-6.532,30.119-14.56C62.179,8.491,48.667,1.959,32.06,1.959z M64.179,32.078c0-2.169-0.786-4.277-2.336-6.264
		c-0.341-0.436-0.969-0.514-1.403-0.174c-0.436,0.34-0.514,0.968-0.174,1.403c1.27,1.628,1.913,3.322,1.913,5.035
		c0,8.028-13.511,14.56-30.119,14.56c-16.608,0-30.12-6.532-30.12-14.56c0-1.713,0.644-3.407,1.913-5.034
		c0.339-0.436,0.262-1.064-0.173-1.404c-0.436-0.339-1.063-0.262-1.404,0.173c-1.55,1.987-2.336,4.095-2.336,6.265
		c0,9.286,14.108,16.56,32.12,16.56C50.07,48.638,64.179,41.364,64.179,32.078z M64.179,47.638c0-2.169-0.786-4.277-2.336-6.264
		c-0.341-0.436-0.969-0.513-1.403-0.174c-0.436,0.34-0.514,0.968-0.174,1.403c1.27,1.628,1.913,3.322,1.913,5.035
		c0,8.028-13.511,14.56-30.119,14.56c-16.608,0-30.12-6.532-30.12-14.56c0-1.713,0.644-3.407,1.913-5.034
		C4.193,42.168,4.115,41.54,3.68,41.2c-0.436-0.339-1.063-0.262-1.404,0.173c-1.55,1.987-2.336,4.095-2.336,6.265
		c0,9.286,14.108,16.56,32.12,16.56C50.07,64.198,64.179,56.924,64.179,47.638z"/>
</g>
<g id="Layer_2">
</g>
</svg>
