<?xml version="1.0" encoding="iso-8859-1"?>
<!-- Generator: Adobe Illustrator 16.0.0, SVG Export Plug-In . SVG Version: 6.00 Build 0)  -->
<!DOCTYPE svg PUBLIC "-//W3C//DTD SVG 1.1//EN" "http://www.w3.org/Graphics/SVG/1.1/DTD/svg11.dtd">
<svg version="1.1" xmlns="http://www.w3.org/2000/svg" xmlns:xlink="http://www.w3.org/1999/xlink" x="0px" y="0px"
	 width="64.238px" height="64.228px" viewBox="0 0 64.238 64.228" style="enable-background:new 0 0 64.238 64.228;"
	 xml:space="preserve">
<g id="Layer_1" style="display:none;">
	<g style="display:inline;">
		
			<circle style="fill:none;stroke:#000000;stroke-width:2;stroke-linecap:round;stroke-linejoin:round;stroke-miterlimit:10;" cx="32.109" cy="32.113" r="31.119"/>
		
			<line style="fill:none;stroke:#000000;stroke-width:2;stroke-linecap:round;stroke-linejoin:round;stroke-miterlimit:10;" x1="32.109" y1="32.114" x2="52.921" y2="32.114"/>
		
			<line style="fill:none;stroke:#000000;stroke-width:2;stroke-linecap:round;stroke-linejoin:round;stroke-miterlimit:10;" x1="32.109" y1="32.114" x2="11.296" y2="32.114"/>
	</g>
</g>
<g id="Layer_2">
	<path d="M32.109,64.233c-17.711,0-32.12-14.409-32.12-32.12c0-17.71,14.409-32.119,32.12-32.119
		c17.71,0,32.119,14.408,32.119,32.119C64.228,49.824,49.82,64.233,32.109,64.233z M32.109,1.995
		c-16.608,0-30.12,13.511-30.12,30.119c0,16.608,13.512,30.12,30.12,30.12c16.607,0,30.119-13.512,30.119-30.12
		C62.228,15.506,48.717,1.995,32.109,1.995z M53.921,32.114c0-0.552-0.448-1-1-1H32.109c-0.552,0-1,0.448-1,1s0.448,1,1,1h20.812
		C53.474,33.114,53.921,32.666,53.921,32.114z M33.109,32.114c0-0.552-0.448-1-1-1H11.296c-0.552,0-1,0.448-1,1s0.448,1,1,1h20.812
		C32.661,33.114,33.109,32.666,33.109,32.114z"/>
</g>
</svg>
