<?xml version="1.0" encoding="iso-8859-1"?>
<!-- Generator: Adobe Illustrator 16.0.0, SVG Export Plug-In . SVG Version: 6.00 Build 0)  -->
<!DOCTYPE svg PUBLIC "-//W3C//DTD SVG 1.1//EN" "http://www.w3.org/Graphics/SVG/1.1/DTD/svg11.dtd">
<svg version="1.1" xmlns="http://www.w3.org/2000/svg" xmlns:xlink="http://www.w3.org/1999/xlink" x="0px" y="0px"
	 width="64.238px" height="64.228px" viewBox="0 0 64.238 64.228" style="enable-background:new 0 0 64.238 64.228;"
	 xml:space="preserve">
<g id="Layer_1" style="display:none;">
	
		<circle style="display:inline;fill:none;stroke:#000000;stroke-width:2;stroke-linecap:round;stroke-linejoin:round;stroke-miterlimit:10;" cx="32.119" cy="32.113" r="31.119"/>
	
		<path style="display:inline;fill:none;stroke:#000000;stroke-width:2;stroke-linecap:round;stroke-linejoin:round;stroke-miterlimit:10;" d="
		M59.007,47.966c-3.072-3.324-7.455-6.748-11.904-9.561"/>
	
		<path style="display:inline;fill:none;stroke:#000000;stroke-width:2;stroke-linecap:round;stroke-linejoin:round;stroke-miterlimit:10;" d="
		M17.134,38.408c-4.447,2.812-8.829,6.236-11.9,9.56"/>
	
		<path style="display:inline;fill:none;stroke:#000000;stroke-width:2;stroke-linecap:round;stroke-linejoin:round;stroke-miterlimit:10;" d="
		M3.226,20.558c6.002,12.427,22.502,27.114,28.894,27.114c6.393,0,22.889-14.692,28.892-27.12"/>
</g>
<g id="Layer_2">
	<path d="M32.12-0.005C14.409-0.005,0,14.403,0,32.113c0,17.711,14.409,32.12,32.12,32.12c17.71,0,32.118-14.409,32.118-32.12
		C64.238,14.403,49.83-0.005,32.12-0.005z M48.708,38.258c4.743-4.597,9.251-10.105,12.128-15.226
		c0.909,2.867,1.402,5.917,1.402,9.081c0,5.097-1.277,9.901-3.522,14.114C56.061,43.564,52.582,40.796,48.708,38.258z M32.12,1.995
		c12.497,0,23.238,7.652,27.791,18.516C54.75,30.774,38.917,46.672,32.119,46.672c-6.801,0-22.634-15.896-27.794-26.156
		C8.877,9.649,19.62,1.995,32.12,1.995z M3.4,23.039c2.876,5.119,7.385,10.627,12.128,15.222c-3.873,2.539-7.351,5.308-10.004,7.969
		C3.278,42.016,2,37.211,2,32.113C2,28.952,2.492,25.904,3.4,23.039z M32.12,62.233c-10.768,0-20.229-5.684-25.555-14.204
		c2.686-2.771,6.345-5.696,10.46-8.357c5.716,5.251,11.55,9,15.094,9c3.543,0,9.376-3.75,15.092-9.003
		c4.116,2.66,7.776,5.584,10.464,8.357C52.35,56.548,42.888,62.233,32.12,62.233z"/>
</g>
</svg>
