<?xml version="1.0" encoding="iso-8859-1"?>
<!-- Generator: Adobe Illustrator 16.0.0, SVG Export Plug-In . SVG Version: 6.00 Build 0)  -->
<!DOCTYPE svg PUBLIC "-//W3C//DTD SVG 1.1//EN" "http://www.w3.org/Graphics/SVG/1.1/DTD/svg11.dtd">
<svg version="1.1" xmlns="http://www.w3.org/2000/svg" xmlns:xlink="http://www.w3.org/1999/xlink" x="0px" y="0px"
	 width="64.238px" height="64.228px" viewBox="0 0 64.238 64.228" style="enable-background:new 0 0 64.238 64.228;"
	 xml:space="preserve">
<g id="Layer_1" style="display:none;">
	
		<path style="display:inline;fill:none;stroke:#000000;stroke-width:2;stroke-linecap:round;stroke-linejoin:round;stroke-miterlimit:10;" d="
		M2.698,42.217c3.567,10.398,12.481,18.308,23.465,20.442c-8.491-9.747-10.311-24.179-3.485-36c1.021-1.769,2.194-3.395,3.485-4.88"
		/>
	
		<path style="display:inline;fill:none;stroke:#000000;stroke-width:2;stroke-linecap:round;stroke-linejoin:round;stroke-miterlimit:10;" d="
		M26.16,62.659c10.789,2.11,22.096-1.655,29.437-10.1c-12.687,2.48-26.095-3.16-32.92-14.981c-1.021-1.769-1.843-3.598-2.483-5.459"
		/>
	
		<path style="display:inline;fill:none;stroke:#000000;stroke-width:2;stroke-linecap:round;stroke-linejoin:round;stroke-miterlimit:10;" d="
		M55.595,52.561c7.222-8.288,9.614-19.963,5.972-30.542c-4.195,12.227-15.784,21.019-29.435,21.019c-2.042,0-4.037-0.203-5.97-0.579
		"/>
	
		<path style="display:inline;fill:none;stroke:#000000;stroke-width:2;stroke-linecap:round;stroke-linejoin:round;stroke-miterlimit:10;" d="
		M61.566,22.021C58,11.623,49.086,3.713,38.102,1.578c8.492,9.747,10.311,24.179,3.486,36c-1.021,1.769-2.194,3.395-3.486,4.88"/>
	
		<path style="display:inline;fill:none;stroke:#000000;stroke-width:2;stroke-linecap:round;stroke-linejoin:round;stroke-miterlimit:10;" d="
		M38.105,1.579c-10.789-2.11-22.096,1.655-29.438,10.1c12.688-2.481,26.095,3.16,32.921,14.981c1.021,1.769,1.843,3.598,2.483,5.459
		"/>
	
		<path style="display:inline;fill:none;stroke:#000000;stroke-width:2;stroke-linecap:round;stroke-linejoin:round;stroke-miterlimit:10;" d="
		M8.671,11.676C1.449,19.965-0.943,31.639,2.699,42.22C6.895,29.992,18.483,21.201,32.134,21.2c2.042,0,4.037,0.203,5.97,0.579"/>
	
		<path style="display:inline;fill:none;stroke:#000000;stroke-width:2;stroke-linecap:round;stroke-linejoin:round;stroke-miterlimit:10;" d="
		M30.448,20.797"/>
</g>
<g id="Layer_2">
	<path d="M62.494,21.689c-0.005-0.014-0.01-0.028-0.015-0.042C58.752,10.837,49.482,2.772,38.274,0.594
		c-0.001,0-0.003,0-0.004-0.001C27.032-1.602,15.395,2.394,7.895,11.02c-0.01,0.011-0.019,0.022-0.028,0.034
		c-7.496,8.63-9.847,20.686-6.135,31.479c0.001,0.002,0.001,0.004,0.002,0.006C5.449,53.368,14.723,61.45,25.939,63.636
		c0.003,0,0.007,0.001,0.01,0.002c2.042,0.399,4.096,0.594,6.138,0.594c9.195,0,18.107-3.958,24.246-11.02
		c0.009-0.01,0.017-0.02,0.025-0.03C63.86,44.55,66.211,32.487,62.494,21.689z M55.049,51.639
		c-9.615,1.768-19.303-1.261-26.167-7.769c1.078,0.11,2.158,0.165,3.232,0.165c12.724,0,24.148-7.5,29.292-18.94
		C63.63,34.373,61.301,44.293,55.049,51.639z M32.115,22.197c1.813,0,3.643,0.167,5.442,0.497c1.167,1.372,2.223,2.863,3.147,4.463
		c0.906,1.57,1.675,3.237,2.291,4.962c-0.604,1.697-1.367,3.356-2.291,4.957c-0.906,1.568-1.965,3.068-3.152,4.464
		c-1.772,0.325-3.591,0.494-5.438,0.494c-1.81,0-3.639-0.167-5.442-0.497c-1.167-1.373-2.223-2.863-3.147-4.463
		c-0.904-1.566-1.674-3.233-2.29-4.961c0.605-1.697,1.368-3.356,2.292-4.957c0.905-1.568,1.964-3.069,3.151-4.464
		C28.449,22.367,30.267,22.197,32.115,22.197z M60.488,22.017c-3.278,9.211-10.744,16.086-19.812,18.776
		c0.634-0.878,1.222-1.786,1.759-2.716c6.361-11.021,5.579-24.665-1.757-34.837C49.827,5.952,57.254,12.928,60.488,22.017z
		 M37.554,2.493c6.339,7.444,8.56,17.347,6.355,26.545c-0.444-0.987-0.936-1.951-1.473-2.881
		C36.073,15.138,23.868,8.993,11.388,10.26C18.312,3.695,28.069,0.752,37.554,2.493z M9.18,12.594
		c9.617-1.768,19.304,1.261,26.167,7.769c-1.077-0.109-2.157-0.165-3.232-0.165c-12.724,0.001-24.149,7.501-29.292,18.94
		C0.599,29.859,2.928,19.939,9.18,12.594z M3.74,42.217c3.278-9.211,10.744-16.086,19.811-18.777
		c-0.633,0.879-1.221,1.786-1.758,2.716c-6.362,11.019-5.579,24.664,1.757,34.837C14.403,58.281,6.977,51.305,3.74,42.217z
		 M26.674,61.739c-6.339-7.445-8.559-17.348-6.355-26.546c0.444,0.989,0.937,1.952,1.473,2.881
		C28.154,49.095,40.371,55.24,52.84,53.972C45.918,60.538,36.165,63.484,26.674,61.739z"/>
</g>
</svg>
