<?xml version="1.0" encoding="iso-8859-1"?>
<!-- Generator: Adobe Illustrator 16.0.0, SVG Export Plug-In . SVG Version: 6.00 Build 0)  -->
<!DOCTYPE svg PUBLIC "-//W3C//DTD SVG 1.1//EN" "http://www.w3.org/Graphics/SVG/1.1/DTD/svg11.dtd">
<svg version="1.1" xmlns="http://www.w3.org/2000/svg" xmlns:xlink="http://www.w3.org/1999/xlink" x="0px" y="0px"
	 width="64.238px" height="64.228px" viewBox="0 0 64.238 64.228" style="enable-background:new 0 0 64.238 64.228;"
	 xml:space="preserve">
<g id="Layer_1" style="display:none;">
	
		<polyline style="display:inline;fill:none;stroke:#000000;stroke-width:2;stroke-linecap:round;stroke-linejoin:round;stroke-miterlimit:10;" points="
		27.142,17.392 41.858,32.109 27.142,46.825 	"/>
	<g style="display:inline;">
		
			<circle style="fill:none;stroke:#000000;stroke-width:2;stroke-linecap:round;stroke-linejoin:round;stroke-miterlimit:10;" cx="32.119" cy="32.113" r="31.119"/>
	</g>
</g>
<g id="Layer_2">
	<path d="M27.142,47.825c-0.256,0-0.512-0.098-0.707-0.293c-0.391-0.391-0.391-1.023,0-1.414l14.01-14.009l-14.01-14.01
		c-0.391-0.391-0.391-1.023,0-1.414s1.023-0.391,1.414,0l14.717,14.717c0.188,0.188,0.293,0.442,0.293,0.707
		s-0.105,0.52-0.293,0.707L27.849,47.532C27.653,47.727,27.397,47.825,27.142,47.825z M64.238,32.113
		c0-17.71-14.408-32.119-32.118-32.119C14.409-0.005,0,14.403,0,32.113c0,17.711,14.409,32.12,32.12,32.12
		C49.83,64.233,64.238,49.824,64.238,32.113z M62.238,32.113c0,16.608-13.511,30.12-30.118,30.12C15.512,62.233,2,48.721,2,32.113
		C2,15.506,15.512,1.995,32.12,1.995C48.728,1.995,62.238,15.506,62.238,32.113z"/>
</g>
</svg>
