<?xml version="1.0" encoding="iso-8859-1"?>
<!-- Generator: Adobe Illustrator 16.0.0, SVG Export Plug-In . SVG Version: 6.00 Build 0)  -->
<!DOCTYPE svg PUBLIC "-//W3C//DTD SVG 1.1//EN" "http://www.w3.org/Graphics/SVG/1.1/DTD/svg11.dtd">
<svg version="1.1" xmlns="http://www.w3.org/2000/svg" xmlns:xlink="http://www.w3.org/1999/xlink" x="0px" y="0px"
	 width="64.238px" height="64.228px" viewBox="0 0 64.238 64.228" style="enable-background:new 0 0 64.238 64.228;"
	 xml:space="preserve">
<g id="Layer_1" style="display:none;">
	
		<path style="display:inline;fill:none;stroke:#000000;stroke-width:2;stroke-linecap:round;stroke-linejoin:round;stroke-miterlimit:10;" d="
		M63.238,32.113c0,7.88-29.772,31.132-46.958,31.12C1,63.222,1,49.3,1,32.113C1,14.927,1,0.995,16.28,0.995
		C33.466,0.995,63.238,24.233,63.238,32.113z"/>
</g>
<g id="Layer_2">
	<path d="M16.294,64.233c0,0-0.014,0-0.014,0C0,64.222,0,49.342,0,32.113C0,14.879,0-0.005,16.28-0.005
		c17.684,0,47.958,23.691,47.958,32.119C64.238,40.542,33.973,64.233,16.294,64.233z M16.28,1.995C2,1.995,2,14.628,2,32.113
		c0,17.48,0,30.109,14.281,30.12l0.013,1v-1c17.459,0,45.944-23.265,45.944-30.12C62.238,25.259,33.744,1.995,16.28,1.995z"/>
</g>
</svg>
