<?xml version="1.0" encoding="iso-8859-1"?>
<!-- Generator: Adobe Illustrator 16.0.0, SVG Export Plug-In . SVG Version: 6.00 Build 0)  -->
<!DOCTYPE svg PUBLIC "-//W3C//DTD SVG 1.1//EN" "http://www.w3.org/Graphics/SVG/1.1/DTD/svg11.dtd">
<svg version="1.1" xmlns="http://www.w3.org/2000/svg" xmlns:xlink="http://www.w3.org/1999/xlink" x="0px" y="0px"
	 width="64.238px" height="64.228px" viewBox="0 0 64.238 64.228" style="enable-background:new 0 0 64.238 64.228;"
	 xml:space="preserve">
<g id="Layer_1" style="display:none;">
	
		<path style="display:inline;fill:none;stroke:#000000;stroke-width:2;stroke-linecap:round;stroke-linejoin:round;stroke-miterlimit:10;" d="
		M36.226,0.992c2.946,0,5.131,0.926,6.757,2.585c3.143-1.604,6.165-2.58,8.792-2.58c11.463,0,11.463,13.933,11.463,31.119
		c0,17.187,0,31.109-11.463,31.12c-2.631,0.002-5.657-0.975-8.805-2.582c-1.625,1.652-3.806,2.574-6.745,2.577
		C23.334,63.243,1,39.991,1,32.111S23.334,0.992,36.226,0.992z"/>
</g>
<g id="Layer_2">
	<path d="M51.776,64.236c0,0-0.011,0-0.011,0c-2.479,0-5.376-0.799-8.618-2.376c-1.807,1.571-4.131,2.368-6.92,2.371
		c-5.959,0-14.605-4.814-23.141-12.878C6.572,45.198,0,36.862,0,32.111C0,23.683,22.868-0.008,36.226-0.008
		c2.796,0,5.125,0.8,6.936,2.379c3.241-1.576,6.136-2.374,8.614-2.374c12.463,0,12.463,14.884,12.463,32.119
		C64.238,49.345,64.238,64.224,51.776,64.236z M42.971,59.654c0.154,0,0.31,0.036,0.454,0.109c3.214,1.641,6.02,2.473,8.34,2.473v1
		l0.009-1c9.958-0.009,10.464-11.452,10.464-30.12c0-18.674-0.505-30.119-10.463-30.119c-2.319,0-5.125,0.832-8.337,2.471
		c-0.39,0.2-0.863,0.122-1.168-0.19c-1.508-1.538-3.484-2.286-6.043-2.286C24,1.992,2,24.417,2,32.111s21.993,30.12,34.216,30.12
		c2.563-0.002,4.537-0.748,6.042-2.278C42.45,59.757,42.709,59.654,42.971,59.654z"/>
</g>
</svg>
