<?xml version="1.0" encoding="iso-8859-1"?>
<!-- Generator: Adobe Illustrator 16.0.0, SVG Export Plug-In . SVG Version: 6.00 Build 0)  -->
<!DOCTYPE svg PUBLIC "-//W3C//DTD SVG 1.1//EN" "http://www.w3.org/Graphics/SVG/1.1/DTD/svg11.dtd">
<svg version="1.1" xmlns="http://www.w3.org/2000/svg" xmlns:xlink="http://www.w3.org/1999/xlink" x="0px" y="0px"
	 width="64.238px" height="64.228px" viewBox="0 0 64.238 64.228" style="enable-background:new 0 0 64.238 64.228;"
	 xml:space="preserve">
<g id="Layer_1" style="display:none;">
	
		<path style="display:inline;fill:none;stroke:#000000;stroke-width:2;stroke-linecap:round;stroke-linejoin:round;stroke-miterlimit:10;" d="
		M39.849,18.644c4.625,2.697,7.734,7.711,7.733,13.451c0,5.738-3.107,10.752-7.73,13.449"/>
	
		<path style="display:inline;fill:none;stroke:#000000;stroke-width:2;stroke-linecap:round;stroke-linejoin:round;stroke-miterlimit:10;" d="
		M39.846,10.098c9.042,3.216,15.516,11.85,15.516,21.997c0,10.146-6.471,18.778-15.511,21.995"/>
	
		<path style="display:inline;fill:none;stroke:#000000;stroke-width:2;stroke-linecap:round;stroke-linejoin:round;stroke-miterlimit:10;" d="
		M39.85,1.968c13.398,3.471,23.292,15.643,23.292,30.127c0,14.483-9.895,26.655-23.292,30.125"/>
	
		<path style="display:inline;fill:none;stroke:#000000;stroke-width:2;stroke-linecap:round;stroke-linejoin:round;stroke-miterlimit:10;" d="
		M4.969,17.193c-1.217-0.31-2.738-0.492-3.738-0.492v30.784c1,0,2.517-0.182,3.732-0.49c5.279,9.666,15.268,16.224,27.268,16.224
		V0.981C20.23,0.981,10.251,7.534,4.969,17.193z"/>
</g>
<g id="Layer_2">
	<path d="M39.853,46.544c-0.344,0-0.679-0.178-0.865-0.496c-0.278-0.477-0.117-1.089,0.36-1.368
		c4.463-2.604,7.235-7.426,7.234-12.585c0-5.161-2.772-9.984-7.237-12.587c-0.477-0.278-0.638-0.89-0.36-1.368
		c0.278-0.477,0.889-0.638,1.368-0.36c5.077,2.96,8.23,8.445,8.229,14.315c0,5.868-3.152,11.353-8.227,14.313
		C40.197,46.5,40.024,46.544,39.853,46.544z M40.187,55.032c9.675-3.443,16.175-12.661,16.175-22.937
		c0-10.278-6.502-19.496-16.181-22.939c-0.521-0.184-1.092,0.086-1.277,0.607c-0.185,0.52,0.087,1.092,0.607,1.277
		c8.883,3.159,14.851,11.621,14.851,21.054c0,9.432-5.966,17.893-14.846,21.053c-0.52,0.185-0.792,0.757-0.606,1.277
		c0.146,0.409,0.531,0.665,0.942,0.665C39.963,55.09,40.076,55.071,40.187,55.032z M40.101,63.189
		c14.155-3.667,24.041-16.453,24.041-31.094c0-14.641-9.886-27.428-24.042-31.095c-0.536-0.135-1.081,0.183-1.219,0.717
		c-0.138,0.535,0.183,1.081,0.717,1.219c13.273,3.438,22.543,15.429,22.543,29.159c0,13.729-9.27,25.719-22.543,29.157
		c-0.535,0.139-0.855,0.685-0.717,1.219c0.117,0.45,0.523,0.749,0.968,0.749C39.933,63.221,40.017,63.21,40.101,63.189z
		 M33.23,63.219V0.981c0-0.552-0.448-1-1-1c-11.639,0-21.964,5.994-27.769,16.073c-1.081-0.216-2.301-0.353-3.231-0.353
		c-0.552,0-1,0.448-1,1v30.784c0,0.552,0.448,1,1,1c0.928,0,2.145-0.136,3.225-0.351c5.802,10.086,16.13,16.084,27.775,16.084
		C32.783,64.219,33.23,63.771,33.23,63.219z M4.717,46.026c-0.742,0.188-1.663,0.337-2.486,0.41V17.751
		c0.826,0.073,1.749,0.223,2.492,0.412c0.443,0.113,0.905-0.089,1.124-0.489C11.058,8.142,20.495,2.337,31.23,1.997v60.207
		c-10.742-0.34-20.181-6.149-25.39-15.688c-0.178-0.326-0.518-0.521-0.877-0.521C4.881,45.996,4.799,46.005,4.717,46.026z"/>
</g>
</svg>
