<?xml version="1.0" encoding="iso-8859-1"?>
<!-- Generator: Adobe Illustrator 16.0.0, SVG Export Plug-In . SVG Version: 6.00 Build 0)  -->
<!DOCTYPE svg PUBLIC "-//W3C//DTD SVG 1.1//EN" "http://www.w3.org/Graphics/SVG/1.1/DTD/svg11.dtd">
<svg version="1.1" xmlns="http://www.w3.org/2000/svg" xmlns:xlink="http://www.w3.org/1999/xlink" x="0px" y="0px"
	 width="64.238px" height="64.228px" viewBox="0 0 64.238 64.228" style="enable-background:new 0 0 64.238 64.228;"
	 xml:space="preserve">
<g id="Layer_1" style="display:none;">
	<g style="display:inline;">
		<path style="fill:none;stroke:#000000;stroke-width:2;stroke-linecap:round;stroke-linejoin:round;stroke-miterlimit:10;" d="
			M63.238,32.113c0,7.812-2.878,14.952-7.633,20.417c-0.237,0.273-0.48,0.542-0.72,0.811c-2.732,3.585,3.268,5.585,2.268,7.585
			c-3,2-7-1-9.531-0.825c-0.43,0.008-0.826,0.043-1.208,0.099c-0.765,0.11-1.5,0.287-2.147,0.599
			c-0.406,0.146-0.782,0.297-1.161,0.44c-3.416,1.289-7.118,1.994-10.985,1.994C14.933,63.233,1,49.3,1,32.113
			C1,14.927,14.933,0.995,32.12,0.995C49.306,0.995,63.238,14.927,63.238,32.113z"/>
		
			<circle style="fill:none;stroke:#000000;stroke-width:2;stroke-linecap:round;stroke-linejoin:round;stroke-miterlimit:10;" cx="32.119" cy="32.114" r="2.938"/>
		
			<circle style="fill:none;stroke:#000000;stroke-width:2;stroke-linecap:round;stroke-linejoin:round;stroke-miterlimit:10;" cx="47.144" cy="32.005" r="2.938"/>
		
			<circle style="fill:none;stroke:#000000;stroke-width:2;stroke-linecap:round;stroke-linejoin:round;stroke-miterlimit:10;" cx="17.117" cy="32.168" r="2.938"/>
	</g>
</g>
<g id="Layer_2">
	<g>
		<path d="M17.117,28.23c-2.171,0-3.938,1.767-3.938,3.938s1.767,3.938,3.938,3.938s3.938-1.767,3.938-3.938
			S19.288,28.23,17.117,28.23z M17.117,34.105c-1.068,0-1.938-0.869-1.938-1.938s0.869-1.938,1.938-1.938s1.938,0.869,1.938,1.938
			S18.185,34.105,17.117,34.105z"/>
		<path d="M47.144,28.067c-2.171,0-3.938,1.767-3.938,3.938s1.767,3.938,3.938,3.938s3.938-1.767,3.938-3.938
			S49.315,28.067,47.144,28.067z M47.144,33.942c-1.068,0-1.938-0.869-1.938-1.938s0.869-1.938,1.938-1.938s1.938,0.869,1.938,1.938
			S48.212,33.942,47.144,33.942z"/>
		<path d="M55.632,54.007l0.178-0.199c0.184-0.206,0.369-0.413,0.55-0.621c5.081-5.839,7.879-13.323,7.879-21.073
			c0-17.71-14.408-32.119-32.119-32.119C14.409-0.005,0,14.403,0,32.113c0,17.711,14.409,32.12,32.12,32.12
			c3.903,0,7.718-0.692,11.339-2.059l0.4-0.153c0.243-0.094,0.488-0.188,0.746-0.282c0.032-0.011,0.064-0.024,0.095-0.04
			c0.484-0.233,1.091-0.4,1.856-0.51c0.365-0.053,0.72-0.082,1.135-0.091c0.746-0.051,1.774,0.284,2.875,0.638
			c1.282,0.413,2.735,0.88,4.17,0.88c1.118,0,2.118-0.289,2.972-0.858c0.145-0.097,0.262-0.229,0.34-0.385
			c0.716-1.433-0.434-2.676-1.357-3.675C55.216,56.104,54.675,55.267,55.632,54.007z M51.178,59.833
			c-1.181-0.38-2.296-0.739-3.335-0.739c-0.098,0-0.194,0.003-0.24,0.007c-0.449,0.009-0.885,0.044-1.331,0.109
			c-0.947,0.136-1.73,0.354-2.391,0.665c-0.255,0.093-0.5,0.187-0.741,0.28l-0.388,0.148c-3.394,1.28-6.97,1.93-10.632,1.93
			C15.512,62.233,2,48.721,2,32.113C2,15.506,15.512,1.995,32.12,1.995c16.607,0,30.119,13.511,30.119,30.119
			c0,7.268-2.624,14.285-7.388,19.761c-0.175,0.202-0.354,0.402-0.532,0.601l-0.229,0.261c-2.129,2.794-0.088,5.001,1.132,6.321
			c0.297,0.322,0.856,0.926,1.007,1.249C54.916,60.932,52.977,60.412,51.178,59.833z"/>
		<path d="M32.119,28.176c-2.171,0-3.938,1.767-3.938,3.938s1.767,3.938,3.938,3.938s3.938-1.767,3.938-3.938
			S34.29,28.176,32.119,28.176z M32.119,34.051c-1.068,0-1.938-0.869-1.938-1.938s0.869-1.938,1.938-1.938s1.938,0.869,1.938,1.938
			S33.188,34.051,32.119,34.051z"/>
	</g>
</g>
</svg>
