<?xml version="1.0" encoding="iso-8859-1"?>
<!-- Generator: Adobe Illustrator 16.0.0, SVG Export Plug-In . SVG Version: 6.00 Build 0)  -->
<!DOCTYPE svg PUBLIC "-//W3C//DTD SVG 1.1//EN" "http://www.w3.org/Graphics/SVG/1.1/DTD/svg11.dtd">
<svg version="1.1" xmlns="http://www.w3.org/2000/svg" xmlns:xlink="http://www.w3.org/1999/xlink" x="0px" y="0px"
	 width="64.238px" height="64.228px" viewBox="0 0 64.238 64.228" style="enable-background:new 0 0 64.238 64.228;"
	 xml:space="preserve">
<g id="Layer_1" style="display:none;">
	
		<path style="display:inline;fill:none;stroke:#000000;stroke-width:2;stroke-linecap:round;stroke-linejoin:round;stroke-miterlimit:10;" d="
		M1.006,32.319c0.11,17.091,13.996,30.914,31.113,30.914c17.119,0,31.004-13.823,31.114-30.915c0.001-0.067,0.01-0.132,0.01-0.199
		c0-8.595-6.967-15.562-15.562-15.562c-8.594,0-15.562,6.967-15.562,15.562v0 M47.682,26.926c2.866,0,5.188,2.324,5.188,5.189
		c0,2.864-2.322,5.187-5.188,5.187s-5.188-2.323-5.188-5.187C42.494,29.25,44.816,26.926,47.682,26.926z"/>
	
		<path style="display:inline;fill:none;stroke:#000000;stroke-width:2;stroke-linecap:round;stroke-linejoin:round;stroke-miterlimit:10;" d="
		M63.233,31.921C63.123,14.83,49.238,1.007,32.12,1.007c-17.119,0-31.004,13.823-31.114,30.915c-0.001,0.067-0.01,0.132-0.01,0.199
		c0,8.595,6.967,15.562,15.562,15.562c8.594,0,15.562-6.967,15.562-15.562v0 M16.558,37.314c-2.866,0-5.188-2.324-5.188-5.189
		c0-2.864,2.322-5.187,5.188-5.187s5.188,2.323,5.188,5.187C21.746,34.991,19.423,37.314,16.558,37.314z"/>
</g>
<g id="Layer_2">
	<path d="M64.233,31.915L64.233,31.915C64.12,14.32,49.714,0.007,32.12,0.007c-17.595,0-32.001,14.314-32.117,31.935
		c-0.004,0.059-0.008,0.119-0.008,0.179c0,0.069,0.009,0.136,0.01,0.205v0C0.12,49.92,14.525,64.233,32.119,64.233
		c17.595,0,32.001-14.314,32.117-31.935c0.004-0.059,0.008-0.119,0.008-0.179C64.244,32.05,64.234,31.984,64.233,31.915z
		 M2.006,31.928C2.112,15.43,15.621,2.007,32.12,2.007c12.768,0,23.739,8.042,28.1,19.323c-3.04-3.527-7.528-5.772-12.539-5.772
		c-9.132,0-16.562,7.43-16.562,16.562c0,0,0,0,0,0s0,0,0,0c0,8.03-6.532,14.562-14.562,14.562c-8.03,0-14.562-6.533-14.56-14.593
		C2,32.067,2.006,31.951,2.006,31.928z M62.233,32.312c-0.106,16.499-13.615,29.921-30.114,29.921
		c-12.768,0-23.739-8.042-28.1-19.323c3.04,3.527,7.528,5.772,12.539,5.772c9.132,0,16.562-7.43,16.562-16.562c0,0,0,0,0,0s0,0,0,0
		c0-8.03,6.532-14.562,14.562-14.562c8.03,0,14.562,6.533,14.56,14.593C62.24,32.173,62.233,32.29,62.233,32.312z M47.682,25.926
		c-3.412,0-6.188,2.776-6.188,6.189c0,3.412,2.776,6.187,6.188,6.187s6.188-2.775,6.188-6.187
		C53.87,28.702,51.094,25.926,47.682,25.926z M47.682,36.302c-2.309,0-4.188-1.878-4.188-4.187c0-2.31,1.879-4.189,4.188-4.189
		s4.188,1.879,4.188,4.189C51.87,34.423,49.991,36.302,47.682,36.302z M16.558,38.314c3.412,0,6.188-2.776,6.188-6.189
		c0-3.412-2.776-6.187-6.188-6.187s-6.188,2.775-6.188,6.187C10.37,35.538,13.146,38.314,16.558,38.314z M16.558,27.938
		c2.309,0,4.188,1.878,4.188,4.187c0,2.31-1.879,4.189-4.188,4.189s-4.188-1.879-4.188-4.189
		C12.37,29.817,14.249,27.938,16.558,27.938z"/>
</g>
</svg>
