<?xml version="1.0" encoding="iso-8859-1"?>
<!-- Generator: Adobe Illustrator 16.0.0, SVG Export Plug-In . SVG Version: 6.00 Build 0)  -->
<!DOCTYPE svg PUBLIC "-//W3C//DTD SVG 1.1//EN" "http://www.w3.org/Graphics/SVG/1.1/DTD/svg11.dtd">
<svg version="1.1" xmlns="http://www.w3.org/2000/svg" xmlns:xlink="http://www.w3.org/1999/xlink" x="0px" y="0px"
	 width="64.119px" height="64.158px" viewBox="0 0 64.119 64.158" style="enable-background:new 0 0 64.119 64.158;"
	 xml:space="preserve">
<g id="Layer_1">
	<path d="M63.299,30.821l-6.894-0.001c-0.15-3.684-1.126-7.157-2.748-10.243l5.974-3.448c0.478-0.276,0.642-0.888,0.366-1.366
		c-0.277-0.479-0.887-0.643-1.366-0.366l-5.977,3.45c-1.918-3.016-4.482-5.58-7.498-7.498l3.452-5.976
		c0.276-0.478,0.113-1.09-0.366-1.366c-0.477-0.278-1.09-0.113-1.366,0.366l-3.308,5.973c-3.187-1.675-6.466-2.659-10.466-2.758
		V0.996c0-0.552-0.448-1-1-1s-1,0.448-1,1v6.616c-4,0.198-7.037,1.166-10.021,2.734l-3.52-5.973
		c-0.276-0.479-0.924-0.642-1.401-0.366c-0.479,0.276-0.66,0.888-0.384,1.366l3.442,5.977c-3.016,1.918-5.583,4.481-7.501,7.497
		L5.74,15.396c-0.479-0.277-1.092-0.112-1.368,0.366s-0.113,1.09,0.366,1.366l5.973,3.499c-1.647,3.134-2.627,6.469-2.753,10.469
		H0.819c-0.552,0-1,0.448-1,1s0.448,1,1,1h7.147c0.174,4,1.148,6.979,2.745,10.016l-5.975,3.424
		c-0.479,0.276-0.642,0.875-0.366,1.354c0.186,0.32,0.521,0.494,0.867,0.494c0.169,0,0.341-0.046,0.499-0.137l5.979-3.453
		c1.918,3.015,4.481,5.578,7.497,7.496l-3.453,5.978c-0.276,0.478-0.112,1.089,0.366,1.366c0.157,0.091,0.33,0.134,0.499,0.134
		c0.346,0,0.682-0.179,0.867-0.5l3.592-5.975c2.983,1.568,6.02,2.535,10.02,2.733v6.972c0,0.552,0.448,1,1,1s1-0.448,1-1v-6.947
		c4-0.099,7.278-1.083,10.464-2.757l3.377,5.975c0.186,0.321,0.486,0.5,0.832,0.5c0.169,0,0.323-0.043,0.481-0.134
		c0.478-0.276,0.633-0.888,0.357-1.366l-3.455-5.979c3.015-1.917,5.577-4.481,7.495-7.496l5.975,3.452
		c0.157,0.091,0.329,0.134,0.499,0.134c0.346,0,0.682-0.179,0.867-0.5c0.276-0.478,0.112-1.09-0.366-1.366l-5.973-3.45
		c1.622-3.085,2.599-6.559,2.75-10.243l6.894,0.001c0.552,0,1-0.448,1-1S63.852,30.821,63.299,30.821z M32.184,54.065
		c-12.267,0-22.247-9.98-22.247-22.247c0-12.267,9.98-22.247,22.247-22.247c12.26,0,22.236,9.969,22.247,22.227
		c0,0.007-0.004,0.014-0.004,0.021s0.004,0.014,0.004,0.021C54.418,44.097,44.443,54.065,32.184,54.065z"/>
</g>
<g id="Layer_2">
</g>
</svg>
