<?xml version="1.0" encoding="iso-8859-1"?>
<!-- Generator: Adobe Illustrator 16.0.0, SVG Export Plug-In . SVG Version: 6.00 Build 0)  -->
<!DOCTYPE svg PUBLIC "-//W3C//DTD SVG 1.1//EN" "http://www.w3.org/Graphics/SVG/1.1/DTD/svg11.dtd">
<svg version="1.1" xmlns="http://www.w3.org/2000/svg" xmlns:xlink="http://www.w3.org/1999/xlink" x="0px" y="0px"
	 width="64.238px" height="64.228px" viewBox="0 0 64.238 64.228" style="enable-background:new 0 0 64.238 64.228;"
	 xml:space="preserve">
<g id="Layer_1" style="display:none;">
	
		<path style="display:inline;fill:none;stroke:#000000;stroke-width:2;stroke-linecap:round;stroke-linejoin:round;stroke-miterlimit:10;" d="
		M19.193,12.744c2.469-1.65,5.295-2.852,8.387-3.466l-1.531-7.699c4.123-0.82,8.219-0.785,12.102-0.017l-1.523,7.703
		c3.023,0.598,5.873,1.79,8.396,3.472l4.357-6.53c3.376,2.251,6.314,5.157,8.607,8.582l-6.529,4.364
		c1.656,2.471,2.861,5.304,3.479,8.403l7.703-1.527c0.82,4.128,0.784,8.228,0.014,12.114l-7.707-1.531
		c-0.6,3.024-1.793,5.875-3.479,8.398l6.533,4.366c-2.252,3.375-5.16,6.312-8.586,8.603l-4.365-6.537
		c-2.471,1.651-5.298,2.855-8.393,3.47l1.533,7.709c-4.154,0.827-8.281,0.784-12.189-0.001l1.543-7.708
		c-3.014-0.605-5.855-1.802-8.371-3.485l-4.369,6.532c-3.365-2.253-6.293-5.159-8.576-8.579l6.534-4.367
		c-1.647-2.466-2.847-5.29-3.461-8.378l-7.704,1.537c-0.824-4.148-0.783-8.269-0.002-12.173L9.3,27.533
		c0.604-3.015,1.798-5.858,3.482-8.374l-6.529-4.363c2.252-3.365,5.156-6.294,8.575-8.58L19.193,12.744z"/>
	
		<circle style="display:inline;fill:none;stroke:#000000;stroke-width:2;stroke-linecap:round;stroke-linejoin:round;stroke-miterlimit:10;" cx="32.119" cy="32.1" r="11.672"/>
</g>
<g id="Layer_2">
	<path d="M32.086,64.225c-2.105,0-4.219-0.21-6.282-0.625c-0.542-0.109-0.892-0.635-0.784-1.177l1.351-6.749
		c-2.442-0.595-4.76-1.561-6.912-2.878l-3.824,5.717c-0.147,0.22-0.376,0.373-0.637,0.425c-0.261,0.05-0.53-0.003-0.75-0.15
		c-3.528-2.362-6.506-5.341-8.852-8.855c-0.307-0.459-0.183-1.08,0.276-1.387l5.72-3.822c-1.307-2.142-2.265-4.462-2.857-6.919
		l-6.742,1.345c-0.26,0.052-0.53-0.001-0.751-0.149c-0.22-0.147-0.374-0.376-0.425-0.637c-0.832-4.186-0.832-8.413-0.001-12.564
		c0.108-0.541,0.632-0.89,1.176-0.785l6.745,1.344c0.594-2.445,1.559-4.764,2.876-6.916l-5.714-3.818
		c-0.221-0.147-0.374-0.376-0.425-0.637s0.002-0.53,0.15-0.751c2.36-3.527,5.338-6.507,8.851-8.855
		c0.22-0.147,0.492-0.201,0.75-0.15c0.26,0.052,0.489,0.205,0.637,0.425l3.82,5.714c2.145-1.31,4.468-2.27,6.928-2.862l-1.34-6.737
		c-0.107-0.542,0.244-1.068,0.786-1.176c4.13-0.821,8.396-0.826,12.491-0.017c0.542,0.107,0.895,0.633,0.787,1.175l-1.333,6.742
		c2.451,0.59,4.777,1.552,6.938,2.87l3.813-5.716c0.306-0.458,0.926-0.584,1.387-0.277c3.54,2.36,6.528,5.34,8.884,8.857
		c0.147,0.221,0.202,0.491,0.15,0.751s-0.205,0.49-0.425,0.637l-5.714,3.819c1.315,2.148,2.278,4.477,2.874,6.945l6.743-1.337
		c0.541-0.11,1.067,0.245,1.175,0.786c0.828,4.167,0.833,8.373,0.014,12.503c-0.052,0.26-0.205,0.489-0.425,0.637
		c-0.221,0.148-0.491,0.201-0.751,0.15l-6.746-1.34c-0.591,2.453-1.555,4.78-2.875,6.939l5.719,3.822
		c0.459,0.307,0.583,0.927,0.276,1.387c-2.361,3.538-5.342,6.525-8.862,8.878c-0.22,0.147-0.49,0.201-0.75,0.15
		c-0.26-0.052-0.489-0.205-0.637-0.426l-3.821-5.722c-2.149,1.312-4.474,2.273-6.933,2.866l1.342,6.748
		c0.107,0.542-0.244,1.068-0.786,1.176C36.308,64.016,34.188,64.225,32.086,64.225z M27.182,61.82c3.239,0.539,6.566,0.539,9.83,0
		l-1.335-6.712c-0.052-0.26,0.002-0.53,0.149-0.75s0.376-0.374,0.637-0.425c2.893-0.575,5.595-1.691,8.032-3.32
		c0.221-0.146,0.491-0.201,0.751-0.149c0.26,0.052,0.489,0.205,0.636,0.426l3.8,5.691c2.675-1.919,4.997-4.246,6.919-6.934
		l-5.689-3.802c-0.459-0.307-0.583-0.928-0.276-1.387c1.638-2.453,2.758-5.157,3.329-8.038c0.052-0.26,0.205-0.489,0.425-0.637
		c0.222-0.147,0.492-0.2,0.751-0.15l6.709,1.333c0.53-3.23,0.525-6.503-0.013-9.757l-6.707,1.33
		c-0.538,0.107-1.067-0.244-1.175-0.786c-0.578-2.903-1.698-5.609-3.328-8.042c-0.148-0.22-0.202-0.491-0.15-0.751
		s0.205-0.49,0.425-0.637l5.684-3.799c-1.92-2.673-4.248-4.993-6.938-6.916l-3.793,5.686c-0.307,0.458-0.927,0.583-1.387,0.277
		c-2.454-1.636-5.157-2.754-8.036-3.323c-0.542-0.107-0.895-0.633-0.787-1.175l1.326-6.706c-3.212-0.523-6.509-0.519-9.744,0.015
		l1.333,6.702c0.052,0.26-0.002,0.53-0.149,0.751s-0.376,0.374-0.637,0.425c-2.894,0.575-5.594,1.691-8.026,3.317
		c-0.459,0.306-1.08,0.183-1.387-0.276l-3.799-5.683c-2.668,1.914-4.986,4.233-6.908,6.913l5.684,3.798
		c0.221,0.147,0.374,0.376,0.425,0.637s-0.002,0.531-0.15,0.751c-1.636,2.444-2.758,5.141-3.333,8.014
		c-0.109,0.541-0.635,0.89-1.176,0.785l-6.709-1.336c-0.539,3.249-0.538,6.541,0.003,9.814l6.707-1.338
		c0.26-0.053,0.53,0.001,0.751,0.149c0.221,0.147,0.374,0.376,0.426,0.637c0.575,2.892,1.689,5.589,3.312,8.018
		c0.307,0.459,0.183,1.08-0.276,1.387l-5.689,3.802c1.912,2.669,4.23,4.988,6.91,6.911l3.804-5.687
		c0.147-0.22,0.376-0.373,0.637-0.425c0.259-0.052,0.53,0.003,0.75,0.15c2.446,1.637,5.142,2.759,8.012,3.336
		c0.542,0.109,0.892,0.635,0.784,1.177L27.182,61.82z M32.119,44.772c-6.987,0-12.672-5.685-12.672-12.672
		s5.685-12.672,12.672-12.672S44.791,25.112,44.791,32.1S39.106,44.772,32.119,44.772z M32.119,21.428
		c-5.884,0-10.672,4.788-10.672,10.672s4.788,10.672,10.672,10.672S42.791,37.985,42.791,32.1S38.003,21.428,32.119,21.428z"/>
</g>
</svg>
