<?xml version="1.0" encoding="iso-8859-1"?>
<!-- Generator: Adobe Illustrator 16.0.0, SVG Export Plug-In . SVG Version: 6.00 Build 0)  -->
<!DOCTYPE svg PUBLIC "-//W3C//DTD SVG 1.1//EN" "http://www.w3.org/Graphics/SVG/1.1/DTD/svg11.dtd">
<svg version="1.1" xmlns="http://www.w3.org/2000/svg" xmlns:xlink="http://www.w3.org/1999/xlink" x="0px" y="0px"
	 width="64.238px" height="64.228px" viewBox="0 0 64.238 64.228" style="enable-background:new 0 0 64.238 64.228;"
	 xml:space="preserve">
<g id="Layer_1" style="display:none;">
	
		<path style="display:inline;fill:none;stroke:#000000;stroke-width:2;stroke-linecap:round;stroke-linejoin:round;stroke-miterlimit:10;" d="
		M1,47.91V32.098c0-17.187,13.933-31.12,31.119-31.12c17.187,0,31.12,13.933,31.12,31.119V47.91"/>
	
		<ellipse style="display:inline;fill:none;stroke:#000000;stroke-width:2;stroke-linecap:round;stroke-linejoin:round;stroke-miterlimit:10;" cx="8.654" cy="47.91" rx="7.653" ry="15.307"/>
	
		<ellipse style="display:inline;fill:none;stroke:#000000;stroke-width:2;stroke-linecap:round;stroke-linejoin:round;stroke-miterlimit:10;" cx="55.585" cy="47.91" rx="7.653" ry="15.307"/>
</g>
<g id="Layer_2">
	<path d="M32.23-0.021c-17.71,0-32,14.409-32,32.12V47.91c0,9.144,3.686,16.307,8.538,16.307s8.596-7.163,8.596-16.307
		S13.65,31.603,8.797,31.603c-2.704,0-5.567,2.227-6.567,5.777v-5.282c0-16.608,13.392-30.12,30-30.12c16.608,0,30,13.511,30,30.119
		v5.283c-2-3.55-3.945-5.777-6.649-5.777c-4.853,0-8.651,7.163-8.651,16.307s3.797,16.307,8.65,16.307s8.65-7.163,8.65-16.307l0,0
		V32.098C64.23,14.387,49.941-0.021,32.23-0.021z M8.654,33.603c3.606,0,6.653,6.552,6.653,14.307
		c0,7.755-3.047,14.307-6.653,14.307S2,55.665,2,47.91C2,40.155,5.047,33.603,8.654,33.603z M55.585,62.217
		c-3.606,0-6.653-6.552-6.653-14.307c0-7.755,3.047-14.307,6.653-14.307s6.653,6.552,6.653,14.307
		C62.239,55.665,59.192,62.217,55.585,62.217z"/>
</g>
</svg>
