<?xml version="1.0" encoding="iso-8859-1"?>
<!-- Generator: Adobe Illustrator 16.0.0, SVG Export Plug-In . SVG Version: 6.00 Build 0)  -->
<!DOCTYPE svg PUBLIC "-//W3C//DTD SVG 1.1//EN" "http://www.w3.org/Graphics/SVG/1.1/DTD/svg11.dtd">
<svg version="1.1" xmlns="http://www.w3.org/2000/svg" xmlns:xlink="http://www.w3.org/1999/xlink" x="0px" y="0px"
	 width="64.119px" height="64.158px" viewBox="0 0 64.119 64.158" style="enable-background:new 0 0 64.119 64.158;"
	 xml:space="preserve">
<g id="Layer_1">
	<g>
		<path d="M63.111,31.096h-7.008v-6.796c0-13.421-10.805-24.34-24.226-24.34c-6.517,0-12.583,2.542-17.183,7.159
			c-0.39,0.392-0.36,1.024,0.031,1.415c0.391,0.389,1.039,0.388,1.429-0.002c4.222-4.237,9.734-6.571,15.716-6.571
			c12.319,0,22.233,10.022,22.233,22.34v6.796H0.873c-0.552,0-1,0.438-1,0.991c0,17.711,14.409,32.115,32.12,32.115
			c17.71,0,32.119-14.402,32.119-32.113C64.111,31.537,63.664,31.096,63.111,31.096z M31.993,62.215
			c-16.273,0-29.574-13.12-30.103-29.12h53.441c0.001,0,0.001,0,0.002,0s0.001,0,0.002,0h6.759
			C61.566,49.096,48.266,62.215,31.993,62.215z"/>
		<path d="M33.57,48.354c1.92-0.66,3.312-2.464,3.312-4.605c0-2.696-2.193-4.89-4.89-4.89s-4.89,2.194-4.89,4.89
			c0,2.141,1.392,3.945,3.312,4.605l-3.771,6.532c-0.178,0.31-0.178,0.545,0,0.855c0.179,0.31,0.509,0.355,0.866,0.355h8.965
			c0.007,0,0.013,0,0.02,0c0.552,0,1-0.303,1-0.855c0-0.249-0.091-0.404-0.242-0.579L33.57,48.354z M29.103,43.748
			c0-1.594,1.296-2.89,2.89-2.89s2.89,1.296,2.89,2.89c0,1.593-1.296,2.89-2.89,2.89S29.103,45.341,29.103,43.748z M29.242,54.096
			l2.75-4.764l2.75,4.764H29.242z"/>
	</g>
</g>
<g id="Layer_2">
</g>
</svg>
