<?xml version="1.0" encoding="iso-8859-1"?>
<!-- Generator: Adobe Illustrator 16.0.0, SVG Export Plug-In . SVG Version: 6.00 Build 0)  -->
<!DOCTYPE svg PUBLIC "-//W3C//DTD SVG 1.1//EN" "http://www.w3.org/Graphics/SVG/1.1/DTD/svg11.dtd">
<svg version="1.1" xmlns="http://www.w3.org/2000/svg" xmlns:xlink="http://www.w3.org/1999/xlink" x="0px" y="0px"
	 width="64.238px" height="64.228px" viewBox="0 0 64.238 64.228" style="enable-background:new 0 0 64.238 64.228;"
	 xml:space="preserve">
<g id="Layer_1" style="display:none;">
	<g style="display:inline;">
		<path style="fill:none;stroke:#000000;stroke-width:2;stroke-linecap:round;stroke-linejoin:round;stroke-miterlimit:10;" d="
			M32.119,14.516c7.357-16.625,31.12-10,31.12,8.792c0,24.625-31.12,35.905-31.12,35.905S1,47.933,1,23.308
			C1,4.516,24.762-2.109,32.119,14.516z"/>
	</g>
</g>
<g id="Layer_2">
	<path d="M32.119,60.213c-0.115,0-0.23-0.02-0.341-0.06C31.46,60.038,0,48.344,0,23.308C0,11.231,9.26,4.015,18.212,4.015
		c5.93,0,10.904,2.989,13.907,8.277c3.003-5.288,7.977-8.277,13.907-8.277c8.953,0,18.213,7.216,18.213,19.293
		c0,25.037-31.461,36.73-31.779,36.845C32.35,60.193,32.234,60.213,32.119,60.213z M18.212,6.015C10.243,6.015,2,12.483,2,23.308
		c0,22.282,26.767,33.517,30.119,34.834c3.353-1.32,30.12-12.573,30.12-34.834c0-10.825-8.243-17.293-16.213-17.293
		c-5.752,0-10.488,3.246-12.992,8.906c-0.16,0.362-0.519,0.595-0.915,0.595s-0.754-0.233-0.915-0.595
		C28.7,9.261,23.965,6.015,18.212,6.015z"/>
</g>
</svg>
