<?xml version="1.0" encoding="iso-8859-1"?>
<!-- Generator: Adobe Illustrator 16.0.0, SVG Export Plug-In . SVG Version: 6.00 Build 0)  -->
<!DOCTYPE svg PUBLIC "-//W3C//DTD SVG 1.1//EN" "http://www.w3.org/Graphics/SVG/1.1/DTD/svg11.dtd">
<svg version="1.1" xmlns="http://www.w3.org/2000/svg" xmlns:xlink="http://www.w3.org/1999/xlink" x="0px" y="0px"
	 width="64.238px" height="64.228px" viewBox="0 0 64.238 64.228" style="enable-background:new 0 0 64.238 64.228;"
	 xml:space="preserve">
<g id="Layer_1" style="display:none;">
	
		<path style="display:inline;fill:none;stroke:#000000;stroke-width:2;stroke-linecap:round;stroke-linejoin:round;stroke-miterlimit:10;" d="
		M63.261,32.116c0,17.187,0,31.12-13.615,31.12s-13.615-13.933-13.615-31.12c0-17.186,0-31.119,13.615-31.119
		S63.261,14.93,63.261,32.116z"/>
	
		<path style="display:inline;fill:none;stroke:#000000;stroke-width:2;stroke-linecap:round;stroke-linejoin:round;stroke-miterlimit:10;" d="
		M28.252,32.11c0,17.187,0,31.12-13.615,31.12S1.023,49.297,1.023,32.11c0-17.186,0-31.119,13.615-31.119
		S28.252,14.924,28.252,32.11z"/>
</g>
<g id="Layer_2">
	<path d="M49.646,64.235c-14.615,0-14.615-14.885-14.615-32.12c0-17.234,0-32.119,14.615-32.119s14.615,14.884,14.615,32.119
		C64.261,49.351,64.261,64.235,49.646,64.235z M49.646,1.997c-12.005,0-12.615,11.445-12.615,30.119
		c0,18.674,0.609,30.12,12.615,30.12s12.615-11.445,12.615-30.12C62.261,13.442,61.652,1.997,49.646,1.997z M14.638,64.23
		c-14.615,0-14.615-14.885-14.615-32.12c0-17.234,0-32.119,14.615-32.119S29.252,14.876,29.252,32.11
		C29.252,49.345,29.252,64.23,14.638,64.23z M14.638,1.992C2.632,1.992,2.023,13.437,2.023,32.11c0,18.674,0.609,30.12,12.615,30.12
		s12.615-11.445,12.615-30.12C27.252,13.437,26.643,1.992,14.638,1.992z"/>
</g>
</svg>
