<?xml version="1.0" encoding="iso-8859-1"?>
<!-- Generator: Adobe Illustrator 16.0.0, SVG Export Plug-In . SVG Version: 6.00 Build 0)  -->
<!DOCTYPE svg PUBLIC "-//W3C//DTD SVG 1.1//EN" "http://www.w3.org/Graphics/SVG/1.1/DTD/svg11.dtd">
<svg version="1.1" xmlns="http://www.w3.org/2000/svg" xmlns:xlink="http://www.w3.org/1999/xlink" x="0px" y="0px"
	 width="64.238px" height="64.228px" viewBox="0 0 64.238 64.228" style="enable-background:new 0 0 64.238 64.228;"
	 xml:space="preserve">
<g id="Layer_1" style="display:none;">
	
		<circle style="display:inline;fill:none;stroke:#000000;stroke-width:2;stroke-linecap:round;stroke-linejoin:round;stroke-miterlimit:10;" cx="32.119" cy="32.108" r="15.557"/>
	
		<path style="display:inline;fill:none;stroke:#000000;stroke-width:2;stroke-linecap:round;stroke-linejoin:round;stroke-miterlimit:10;" d="
		M47.676,39.887c0,4.296,3.482,7.778,7.778,7.778s7.778-3.482,7.778-7.778l0.006-7.773c0-17.186-13.933-31.119-31.119-31.119
		C14.933,0.995,1,14.927,1,32.113c0,17.187,13.933,31.12,31.12,31.12"/>
	
		<path style="display:inline;fill:none;stroke:#000000;stroke-width:2;stroke-linecap:round;stroke-linejoin:round;stroke-miterlimit:10;" d="
		M47.673,39.881l0.006-7.773"/>
</g>
<g id="Layer_2">
	<path d="M32.12-0.005C14.409-0.005,0,14.403,0,32.113c0,17.711,14.409,32.12,32.12,32.12c0.552,0,1-0.448,1-1s-0.448-1-1-1
		C15.512,62.233,2,48.721,2,32.113C2,15.506,15.512,1.995,32.12,1.995c16.607,0,30.119,13.511,30.119,30.118l-0.006,7.774
		c0,3.738-3.041,6.778-6.778,6.778s-6.778-3.041-6.778-6.778c0-0.005-0.003-0.009-0.003-0.014l0.006-7.764
		c0-0.007-0.004-0.013-0.004-0.019c-0.01-9.121-7.433-16.539-16.556-16.539c-9.129,0-16.557,7.427-16.557,16.557
		s7.427,16.557,16.557,16.557c6.281,0,11.756-3.517,14.562-8.684c0.051,4.797,3.965,8.684,8.773,8.684
		c4.84,0,8.778-3.938,8.778-8.777l0.006-7.774C64.238,14.403,49.83-0.005,32.12-0.005z M32.119,46.665
		c-8.026,0-14.557-6.53-14.557-14.557c0-8.026,6.53-14.557,14.557-14.557s14.557,6.53,14.557,14.557
		C46.676,40.135,40.146,46.665,32.119,46.665z"/>
</g>
</svg>
