<?xml version="1.0" standalone="no"?>
<!DOCTYPE svg PUBLIC "-//W3C//DTD SVG 1.1//EN" "http://www.w3.org/Graphics/SVG/1.1/DTD/svg11.dtd" >
<svg xmlns="http://www.w3.org/2000/svg">
<metadata>
<json>
{
	"fontFamily": "around-in-circles",
	"majorVersion": 1,
	"minorVersion": 0,
	"fontURL": "",
	"designer": "Florian Pellet",
	"designerURL": "http://florianpellet.com",
	"version": "Version 1.0",
	"fontId": "around-in-circles",
	"psName": "around-in-circles",
	"subFamily": "Regular",
	"fullName": "around-in-circles",
	"description": "Generated by IcoMoon"
}
</json>
</metadata>
<defs>
<font id="around-in-circles" horiz-adv-x="512">
<font-face units-per-em="512" ascent="480" descent="-32" />
<missing-glyph horiz-adv-x="512" />
<glyph unicode="&#x20;" d="" horiz-adv-x="256" />
<glyph unicode="&#xe600;" d="M255.234-42.659c-140.827 0-255.394 114.863-255.394 256.048 0 118.697 80.474 220.885 195.703 248.514 4.321 1.013 8.594-1.618 9.614-5.891 1.020-4.281-1.618-8.586-5.891-9.614-108.039-25.899-183.49-121.718-183.49-233.010 0-132.392 107.418-240.104 239.451-240.104 132.927 0 241.069 107.712 241.069 240.105 0 107.911-76.257 205.923-181.322 233.050-4.265 1.1-6.824 5.452-5.724 9.709 1.1 4.257 5.428 6.815 9.709 5.724 111.993-28.921 193.28-133.421 193.28-248.483 0.008-141.185-115.293-256.048-257.005-256.048zM379.767 217.981c-3.117 3.117-8.107 3.117-11.216 0l-103.654-103.703v347.084c0 4.401-3.572 7.972-7.971 7.972s-7.971-3.572-7.971-7.972v-347.091l-103.767 103.711c-3.117 3.117-8.187 3.117-11.296 0s-3.125-8.155-0.008-11.272l117.126-117.142c1.459-1.579 3.492-2.599 5.812-2.599 2.327 0 4.368 1.029 5.827 2.623l117.119 117.119c3.109 3.117 3.109 8.163 0 11.272z" />
<glyph unicode="&#xe601;" d="M256.048 469.373c-141.185 0-256.048-114.855-256.048-256.032 0-141.185 114.863-256.048 256.048-256.048 4.401 0 7.971 3.572 7.971 7.971s-3.572 7.971-7.971 7.971c-132.393 0-240.105 107.712-240.105 240.105 0 132.385 107.713 240.089 240.105 240.089 132.385 0 240.096-107.704 240.096-240.089l-0.048-61.971c0-29.798-24.241-54.031-54.031-54.031s-54.031 24.241-54.031 54.031c0 0.040-0.024 0.072-0.024 0.111l0.048 61.892c0 0.056-0.032 0.103-0.032 0.151-0.079 72.709-59.253 131.843-131.978 131.843-72.772 0-131.986-59.205-131.986-131.986s59.205-131.986 131.986-131.986c50.070 0 93.714 28.036 116.082 69.226 0.406-38.24 31.608-69.226 69.935-69.226 38.582 0 69.974 31.392 69.974 69.966l0.048 61.971c-0.008 141.185-114.863 256.040-256.040 256.040zM256.040 97.338c-63.98 0-116.043 52.055-116.043 116.043 0 63.98 52.054 116.043 116.043 116.043s116.043-52.055 116.043-116.043c0-63.988-52.055-116.043-116.043-116.043z" />
<glyph unicode="&#xe602;" d="M256.048 469.373c-141.185 0-256.048-114.855-256.048-256.032 0-141.185 114.863-256.048 256.048-256.048 141.177 0 256.032 114.863 256.032 256.048 0 141.177-114.855 256.032-256.032 256.032zM388.281 164.356c37.81 36.646 73.745 80.553 96.68 121.375 7.246-22.854 11.176-47.168 11.176-72.39 0-40.632-10.18-78.927-28.076-112.511-21.164 21.228-48.898 43.294-79.78 63.526zM256.048 453.43c99.621 0 185.244-60.999 221.539-147.602-41.142-81.813-167.356-208.545-221.547-208.545-54.215 0-180.429 126.716-221.563 208.505 36.286 86.628 121.925 147.642 221.571 147.642zM27.104 285.676c22.927-40.806 58.871-84.714 96.68-121.344-30.874-20.24-58.599-42.313-79.748-63.526-17.904 33.593-28.092 71.896-28.092 112.535 0 25.198 3.922 49.495 11.16 72.334zM256.048-26.763c-85.838 0-161.257 45.31-203.714 113.228 21.412 22.089 50.58 45.406 83.383 66.618 45.565-41.859 92.072-71.745 120.323-71.745 28.243 0 74.741 29.894 120.308 71.769 32.811-21.204 61.987-44.514 83.415-66.618-42.449-67.934-117.876-113.252-203.714-113.252z" />
<glyph unicode="&#xe603;" d="M256.040-10.661c-0.917 0-1.833 0.159-2.719 0.478-2.535 0.916-253.321 94.137-253.321 293.714 0 96.273 73.817 153.796 145.179 153.796 47.272 0 86.923-23.827 110.861-65.981 23.938 42.154 63.589 65.981 110.861 65.981 71.37 0 145.187-57.523 145.187-153.796 0-199.585-250.794-292.797-253.329-293.714-0.877-0.319-1.801-0.478-2.719-0.478zM145.179 421.384c-63.525 0-129.236-51.56-129.236-137.853 0-177.623 213.376-267.184 240.096-277.683 26.729 10.522 240.105 100.227 240.105 277.683 0 86.292-65.71 137.853-129.244 137.853-45.853 0-83.606-25.876-103.567-70.995-1.276-2.885-4.137-4.743-7.294-4.743s-6.011 1.857-7.294 4.743c-19.961 45.12-57.707 70.995-103.567 70.995z" />
<glyph unicode="&#xe604;" d="M512.080 264.631c0 72.525-179.529 204.75-256.040 204.75-42.624 0-110.224-40.041-155.167-74.335-23.66-18.063-100.873-80.832-100.873-130.415 0-31.767 32.548-43.597 52.437-48.452-14.046-29.837-21.427-62.752-21.427-95.851 0-61.214 23.811-118.283 67.049-160.683 1.49-1.459 3.492-2.28 5.58-2.28l101.965-0.072c2.113 0 5.891 0.837 7.381 2.327 1.499 1.498 4.089 3.524 4.089 5.644v61.979c0 26.147 11.519 54.079 43.844 54.079 32.333 0 43.844-27.901 43.844-54.007v-62.051c0-2.113-0.909-4.145 0.582-5.644 1.498-1.49 2.654-2.327 4.767-2.327 0 0-0.438 0-0.43 0l100.379 0.072c2.080 0 3.978 0.821 5.469 2.28 42.935 42.106 66.523 99.166 66.523 160.675 0 32.947-7.676 66.125-22.233 96.592 19.834 4.887 52.262 16.661 52.262 47.718zM446.45 230.321c-2.471-0.494-4.567-2.137-5.644-4.417-1.076-2.28-1.012-4.935 0.175-7.159 16.389-30.651 25.055-64.69 25.055-98.418 0-56.088-19.355-108.166-57.762-147.020l-87.576-0.064v54.072c0 41.843-24.026 69.951-59.787 69.951-35.761 0-59.787-28.14-59.787-70.022v-54.007l-92.454 0.064c-38.694 39.141-60.84 91.219-60.84 147.028 0 34.007 7.947 67.798 23.811 97.74 1.18 2.224 1.020 4.879-0.064 7.151-1.084 2.28-3.284 3.906-5.755 4.4-44.609 8.849-49.822 24.226-49.822 35.012 0 27.669 37.108 73.889 94.575 117.732 54.837 41.851 114.663 71.075 145.482 71.075s90.645-29.224 145.481-71.075c57.467-43.844 94.599-90.063 94.599-117.732 0.008-10.443-5.149-25.366-49.687-34.31z" />
<glyph unicode="&#xe605;" d="M255.777-42.643c-16.78 0-33.632 1.674-50.077 4.982-4.321 0.869-7.111 5.062-6.25 9.382l10.769 53.8c-19.466 4.743-37.945 12.444-55.1 22.942l-30.483-45.574c-1.172-1.754-2.998-2.974-5.078-3.388-2.081-0.399-4.225 0.024-5.978 1.195-28.124 18.829-51.863 42.577-70.564 70.589-2.447 3.659-1.459 8.61 2.2 11.056l45.597 30.467c-10.419 17.075-18.055 35.57-22.775 55.156l-53.745-10.722c-2.072-0.414-4.225 0.008-5.986 1.188-1.754 1.172-2.982 2.998-3.388 5.078-6.633 33.369-6.633 67.065-0.008 100.155 0.861 4.313 5.038 7.094 9.375 6.257l53.769-10.714c4.735 19.49 12.427 37.977 22.927 55.132l-45.55 30.435c-1.761 1.172-2.981 2.998-3.388 5.078s0.016 4.225 1.196 5.987c18.813 28.116 42.553 51.871 70.556 70.588 1.754 1.172 3.922 1.603 5.978 1.196 2.073-0.415 3.898-1.634 5.078-3.388l30.452-45.549c17.099 10.443 35.617 18.096 55.227 22.814l-10.682 53.705c-0.853 4.32 1.945 8.513 6.266 9.375 32.922 6.544 66.929 6.584 99.573 0.135 4.32-0.853 7.135-5.046 6.274-9.367l-10.626-53.744c19.538-4.703 38.081-12.372 55.307-22.879l30.395 45.565c2.44 3.651 7.382 4.656 11.057 2.208 28.219-18.813 52.038-42.568 70.82-70.605 1.172-1.761 1.611-3.914 1.195-5.986s-1.634-3.906-3.388-5.078l-45.55-30.444c10.483-17.123 18.159-35.689 22.911-55.363l53.752 10.658c4.313 0.877 8.505-1.953 9.366-6.266 6.601-33.218 6.64-66.746 0.111-99.669-0.414-2.072-1.634-3.898-3.388-5.078-1.762-1.18-3.914-1.603-5.986-1.195l-53.776 10.682c-4.711-19.555-12.396-38.105-22.918-55.315l45.589-30.468c3.659-2.447 4.647-7.389 2.2-11.057-18.821-28.204-42.584-52.014-70.644-70.772-1.754-1.172-3.906-1.603-5.978-1.195-2.072 0.414-3.898 1.634-5.078 3.396l-30.459 45.613c-17.131-10.459-35.665-18.12-55.267-22.846l10.698-53.793c0.853-4.32-1.945-8.513-6.265-9.374-16.605-3.324-33.505-4.99-50.261-4.99zM216.684-23.471c25.82-4.296 52.342-4.296 78.361 0l-10.642 53.505c-0.414 2.072 0.016 4.225 1.188 5.978s2.998 2.981 5.078 3.388c23.062 4.584 44.601 13.48 64.028 26.466 1.762 1.164 3.914 1.603 5.986 1.188 2.072-0.414 3.898-1.634 5.070-3.396l30.292-45.366c21.324 15.298 39.834 33.847 55.156 55.275l-45.351 30.308c-3.659 2.447-4.647 7.397-2.2 11.057 13.058 19.555 21.986 41.11 26.538 64.076 0.414 2.072 1.634 3.898 3.388 5.078 1.769 1.172 3.922 1.594 5.986 1.195l53.481-10.626c4.225 25.748 4.185 51.84-0.103 77.779l-53.466-10.602c-4.288-0.853-8.505 1.945-9.366 6.266-4.608 23.142-13.536 44.713-26.529 64.108-1.18 1.754-1.611 3.914-1.195 5.986s1.634 3.906 3.388 5.078l45.31 30.284c-15.305 21.308-33.863 39.802-55.307 55.132l-30.236-45.326c-2.447-3.651-7.389-4.648-11.056-2.208-19.563 13.041-41.11 21.954-64.060 26.489-4.32 0.853-7.135 5.046-6.274 9.367l10.57 53.457c-25.605 4.169-51.887 4.137-77.675-0.119l10.626-53.426c0.415-2.072-0.016-4.225-1.188-5.986s-2.998-2.981-5.078-3.388c-23.070-4.583-44.593-13.48-63.98-26.442-3.659-2.44-8.609-1.459-11.056 2.2l-30.284 45.303c-21.268-15.257-39.746-33.744-55.068-55.107l45.311-30.276c1.761-1.172 2.981-2.997 3.388-5.078s-0.016-4.233-1.195-5.986c-13.041-19.483-21.986-40.982-26.57-63.885-0.869-4.313-5.062-7.095-9.374-6.257l-53.481 10.65c-4.296-25.899-4.288-52.142 0.024-78.234l53.466 10.666c2.073 0.423 4.225-0.008 5.987-1.188 1.761-1.172 2.981-2.998 3.396-5.078 4.584-23.054 13.464-44.553 26.402-63.916 2.448-3.659 1.459-8.61-2.2-11.057l-45.35-30.308c15.242-21.276 33.72-39.762 55.084-55.091l30.324 45.334c1.172 1.754 2.998 2.974 5.078 3.388 2.065 0.414 4.225-0.024 5.978-1.195 19.499-13.050 40.99-21.993 63.868-26.594 4.321-0.869 7.111-5.062 6.25-9.382l-10.714-53.481zM256.040 112.429c-55.697 0-101.016 45.318-101.016 101.016s45.319 101.016 101.016 101.016 101.016-45.311 101.016-101.016-45.318-101.016-101.016-101.016zM256.040 298.518c-46.905 0-85.073-38.168-85.073-85.073s38.168-85.073 85.073-85.073 85.073 38.16 85.073 85.073-38.168 85.073-85.073 85.073z" />
<glyph unicode="&#xe606;" d="M256.040 182.196c-17.306 0-31.392 14.086-31.392 31.392s14.086 31.392 31.392 31.392 31.392-14.086 31.392-31.392-14.086-31.392-31.392-31.392zM256.040 229.029c-8.513 0-15.449-6.928-15.449-15.449s6.928-15.449 15.449-15.449 15.449 6.928 15.449 15.449-6.928 15.449-15.449 15.449zM264.012 259.919v119.574c0 4.4-3.572 7.971-7.971 7.971s-7.971-3.572-7.971-7.971v-119.574c0-4.401 3.571-7.972 7.971-7.972s7.971 3.571 7.971 7.972zM383.61 213.764c0 4.401-3.572 7.971-7.971 7.971h-73.251c-4.401 0-7.971-3.571-7.971-7.971s3.572-7.971 7.971-7.971h73.251c4.401 0 7.971 3.572 7.971 7.971zM256.048 469.628c-141.185 0-256.048-114.855-256.048-256.040s114.863-256.048 256.048-256.048c141.177 0 256.040 114.863 256.040 256.048-0.008 141.185-114.863 256.040-256.040 256.040zM264.897-26.301v16.254c0 4.401-3.572 7.971-7.971 7.971s-7.971-3.572-7.971-7.971v-16.262c-127.546 4.050-228.562 104.077-232.803 231.623h16.262c4.401 0 7.971 3.572 7.971 7.971s-3.572 7.971-7.971 7.971h-16.27c4.041 127.546 105.273 227.988 232.819 232.221v-16.262c0-4.401 3.571-7.971 7.971-7.971s7.971 3.572 7.971 7.971v16.27c127.546-4.049 226.8-104.683 231.033-232.228h-16.254c-4.401 0-7.971-3.571-7.971-7.971s3.572-7.971 7.971-7.971h16.262c-4.058-127.546-103.503-227.382-231.049-231.615z" />
<glyph unicode="&#xe607;" d="M136.45 244.295c-17.306 0-31.392-14.086-31.392-31.392s14.086-31.392 31.392-31.392 31.392 14.086 31.392 31.392-14.086 31.392-31.392 31.392zM136.45 197.462c-8.513 0-15.449 6.928-15.449 15.449s6.927 15.449 15.449 15.449 15.449-6.928 15.449-15.449-6.935-15.449-15.449-15.449zM375.813 245.594c-17.307 0-31.392-14.086-31.392-31.392s14.086-31.392 31.392-31.392 31.392 14.086 31.392 31.392-14.086 31.392-31.392 31.392zM375.813 198.761c-8.514 0-15.449 6.928-15.449 15.449s6.928 15.449 15.449 15.449 15.449-6.928 15.449-15.449-6.935-15.449-15.449-15.449zM443.476 38.811l1.419 1.587c1.467 1.642 2.942 3.293 4.385 4.95 40.504 46.546 62.808 106.206 62.808 167.986 0 141.177-114.855 256.040-256.040 256.040-141.185 0-256.048-114.855-256.048-256.032 0-141.185 114.863-256.048 256.048-256.048 31.113 0 61.525 5.516 90.39 16.413l3.188 1.219c1.937 0.75 3.89 1.498 5.947 2.248 0.255 0.087 0.51 0.192 0.757 0.319 3.858 1.858 8.697 3.188 14.796 4.065 2.909 0.423 5.74 0.654 9.048 0.726 5.947 0.406 14.142-2.264 22.918-5.086 10.219-3.293 21.803-7.015 33.242-7.015 8.913 0 16.884 2.304 23.692 6.839 1.156 0.773 2.089 1.825 2.711 3.069 5.707 11.423-3.459 21.332-10.817 29.296-11.758 12.707-16.070 19.379-8.442 29.423zM407.971-7.632c-9.414 3.029-18.303 5.891-26.586 5.891-0.781 0-1.546-0.024-1.913-0.056-3.579-0.072-7.055-0.351-10.61-0.869-7.549-1.084-13.791-2.822-19.060-5.301-2.033-0.741-3.986-1.49-5.907-2.232l-3.093-1.18c-27.055-10.204-55.562-15.385-84.754-15.385-132.393 0-240.105 107.712-240.105 240.105 0 132.385 107.713 240.089 240.105 240.089 132.385 0 240.096-107.704 240.096-240.097 0-57.938-20.918-113.875-58.894-157.527-1.395-1.611-2.822-3.204-4.241-4.791l-1.825-2.080c-16.971-22.272-0.702-39.866 9.024-50.389 2.368-2.567 6.824-7.382 8.027-9.957-10.466-4.983-25.923-0.837-40.264 3.779zM256.040 244.725c-17.306 0-31.392-14.086-31.392-31.392s14.086-31.392 31.392-31.392 31.392 14.086 31.392 31.392-14.086 31.392-31.392 31.392zM256.040 197.892c-8.513 0-15.449 6.928-15.449 15.449s6.928 15.449 15.449 15.449 15.449-6.928 15.449-15.449-6.928-15.449-15.449-15.449z" />
<glyph unicode="&#xe608;" d="M478.264 86.505c21.476 37.45 33.823 80.769 33.823 126.94s-12.348 89.497-33.824 126.94c-0.135 0.327-0.343 0.59-0.51 0.893-44.322 76.56-127.075 128.207-221.706 128.207-94.623 0-177.352-51.632-221.674-128.151-0.184-0.327-0.414-0.606-0.55-0.957-21.476-37.442-33.824-80.76-33.824-126.932 0-46.171 12.348-89.481 33.816-126.924 0.151-0.382 0.398-0.693 0.598-1.045 44.338-76.488 127.043-128.071 221.627-128.071 94.607 0 177.329 51.616 221.651 128.119 0.192 0.335 0.43 0.622 0.574 0.981zM16.142 205.314h107.992c0.59-39.858 5.477-71.745 13.799-111.603h-91.977c-17.889 39.858-28.523 71.745-29.814 111.603zM45.949 332.859h91.984c-8.322-31.886-13.209-71.745-13.791-111.603h-107.999c1.291 39.858 11.925 79.716 29.806 111.603zM495.937 221.257h-107.991c-0.59 39.858-5.469 79.716-13.791 111.602h91.984c17.873-31.886 28.514-71.745 29.798-111.603zM372.010 221.257h-107.115v111.602h92.702c8.641-31.886 13.791-71.745 14.413-111.603zM264.897 348.803v104.109c39.858-5.238 68.612-48.308 88.022-104.109h-88.022zM248.953 452.912v-104.109h-89.792c19.411 55.801 49.934 98.872 89.792 104.109zM248.953 332.859v-111.603h-108.876c0.622 39.858 5.763 79.716 14.405 111.603h94.472zM140.077 205.314h108.876v-111.603h-94.472c-8.641 39.858-13.783 71.745-14.405 111.603zM248.953 77.768v-103.791c-39.858 5.238-70.381 47.997-89.792 103.798h89.792zM264.897-26.022v103.791h88.022c-19.411-55.801-48.164-98.553-88.022-103.791zM264.897 93.711v111.603h107.106c-0.622-39.858-5.764-71.745-14.413-111.603h-92.694zM387.946 205.314h107.991c-1.284-39.858-11.925-71.745-29.806-111.603h-91.984c8.331 39.858 13.209 71.745 13.799 111.603zM456.454 348.803h-86.755c-13.639 39.858-34.151 80.362-58.91 101.726 60.56-14.181 112.352-53.896 145.665-101.726zM201.291 450.528c-24.76-21.364-45.27-61.867-58.918-101.725h-86.747c33.313 47.829 85.113 87.536 145.665 101.726zM55.634 77.768h86.747c13.639-39.858 34.15-80.353 58.91-101.718-60.553 14.19-112.344 53.888-145.657 101.717zM310.789-23.941c24.76 21.364 45.263 61.86 58.91 101.717h86.747c-33.313-47.837-85.105-87.536-145.657-101.717z" />
<glyph unicode="&#xe609;" d="M270.397 469.485c-37.881 0-58.663-24.138-70.103-63.167-29.248 26.968-75.962 63.167-116.034 63.167-84.076 0-84.076-118.25-84.076-255.642 0-137.342 0-255.649 84.076-255.649 0 0 0.072 0 0.079 0 40.089 0 86.747 36.191 115.979 63.159 11.439-38.989 32.221-63.159 70.079-63.159h0.072c89.162 0 241.803 188.464 241.803 255.649-0.008 67.185-152.688 255.642-241.875 255.642zM195.695 38.46c-42.999-41.19-83.439-64.323-111.364-64.323h-0.056c-68.149 0-68.149 105.6-68.149 239.706 0 134.138 0 239.897 68.141 239.897 27.924 0 68.389-23.644 111.419-64.841-0.008-0.032 0.095-0.112 0.263-0.144-9.598-46.427-9.63-108.637-9.63-175.28 0-66.674 0.032-128.709 9.645-175.136-0.071-0.016-0.279 0.135-0.271 0.12zM270.469-25.863h-0.056c-68.149 0-68.149 105.6-68.149 239.706 0 134.138 0 239.897 68.141 239.897 35.051 0 89.872-37.562 143.066-97.875 48.005-54.43 82.857-114.336 82.857-142.365s-34.828-87.512-82.817-141.942c-53.178-60.321-107.991-97.421-143.043-97.421z" />
<glyph unicode="&#xe60a;" d="M427.995 469.485c-40.065 0-86.779-36.191-116.034-63.167-11.439 39.029-32.221 63.167-70.103 63.167-89.178 0-241.858-188.457-241.858-255.642 0-67.177 152.632-255.649 241.794-255.649 0 0 0.071 0 0.079 0 37.857 0 58.631 24.162 70.078 63.151 29.232-26.968 75.913-63.151 115.987-63.151 0 0 0.072 0 0.072 0 84.077 0 84.077 118.306 84.077 255.649-0.008 137.391-0.008 255.642-84.092 255.642zM241.858-25.863h-0.056c-35.051 0-89.864 37.084-143.042 97.397-47.989 54.43-82.817 114.082-82.817 142.11 0 28.036 34.844 87.791 82.857 142.221 53.194 60.305 108.015 97.724 143.066 97.724 68.141 0 68.141-105.584 68.141-239.722 0-134.107 0-239.73-68.149-239.73zM427.988-25.863h-0.056c-27.925 0-68.365 23.142-111.363 64.323 0 0.016-0.151-0.327-0.358-0.55 9.702 46.474 9.733 108.764 9.733 175.631 0 66.651-0.032 128.797-9.63 175.216 0.168 0.040 0.263 0.048 0.263 0.064 43.022 41.197 83.486 64.729 111.419 64.729 68.141 0 68.141-105.568 68.141-239.706 0-134.099 0-239.706-68.149-239.706z" />
<glyph unicode="&#xe60b;" d="M256.048-42.228c-68.548 0-256.048 185.603-256.048 327.385 0 122.555 86.149 184.694 256.048 184.694 169.891 0 256.040-62.139 256.040-184.686-0.008-141.791-187.5-327.394-256.040-327.394zM256.048 453.908c-161.569 0-240.105-55.196-240.105-168.751 0-131.324 177.504-311.45 240.105-311.45s240.096 180.126 240.096 311.45c-0.008 113.556-78.544 168.751-240.096 168.751zM256.040 143.757c-72.813 0-132.049 59.237-132.049 132.050s59.237 132.049 132.049 132.049 132.050-59.237 132.050-132.049-59.237-132.050-132.049-132.050zM256.040 391.913c-64.020 0-116.106-52.087-116.106-116.106s52.087-116.106 116.106-116.106 116.106 52.087 116.106 116.106-52.087 116.106-116.106 116.106z" />
<glyph unicode="&#xe60c;" d="M256.048-42.228c-141.185 0-256.048 114.855-256.048 256.040 0 141.185 114.863 256.040 256.048 256.040 141.177 0 256.040-114.855 256.040-256.040 0-141.185-114.855-256.040-256.040-256.040zM256.048 453.908c-132.393 0-240.105-107.704-240.105-240.097 0-132.392 107.713-240.104 240.105-240.104 132.385 0 240.096 107.712 240.096 240.105 0 132.392-107.704 240.096-240.096 240.096zM256.048 249.301c-17.306 0-31.392 14.086-31.392 31.392s14.086 31.392 31.392 31.392 31.392-14.086 31.392-31.392-14.086-31.392-31.392-31.392zM256.048 296.134c-8.513 0-15.449-6.928-15.449-15.449s6.928-15.449 15.449-15.449 15.449 6.928 15.449 15.449-6.935 15.449-15.449 15.449zM264.019 75.68v119.574c0 4.401-3.572 7.971-7.971 7.971s-7.971-3.572-7.971-7.971v-119.574c0-4.401 3.571-7.971 7.971-7.971s7.971 3.572 7.971 7.971z" />
<glyph unicode="&#xe60d;" d="M255.234-42.707c-140.827 0-255.394 114.863-255.394 256.048 0 118.697 80.474 220.885 195.703 248.514 4.321 0.997 8.594-1.618 9.614-5.891 1.020-4.281-1.618-8.586-5.891-9.614-108.039-25.899-183.49-121.719-183.49-233.010 0-132.393 107.418-240.105 239.451-240.105 132.927 0 241.069 107.712 241.069 240.105 0 107.911-76.257 205.923-181.322 233.050-4.265 1.1-6.824 5.452-5.724 9.709 1.1 4.257 5.428 6.808 9.709 5.724 112.001-28.921 193.287-133.421 193.287-248.483 0-141.185-115.301-256.048-257.012-256.048zM262.545 213.812v247.59c0 4.4-3.572 7.971-7.971 7.971s-7.971-3.572-7.971-7.971v-247.598c0-4.401 3.571-7.972 7.971-7.972s7.971 3.579 7.971 7.98z" />
<glyph unicode="&#xe60e;" d="M395.758-42.723c-116.505 0-116.505 118.657-116.505 256.048 0 137.382 0 256.040 116.505 256.040s116.505-118.649 116.505-256.040c0-137.399 0-256.048-116.505-256.048zM395.758 453.414c-95.699 0-100.562-91.235-100.562-240.096s4.854-240.105 100.562-240.105 100.562 91.235 100.562 240.105c0 148.862-4.854 240.096-100.562 240.096zM116.689-42.683c-116.505 0-116.505 118.657-116.505 256.048 0 137.382 0 256.040 116.505 256.040s116.497-118.657 116.497-256.040c0-137.39 0-256.048-116.497-256.048zM116.689 453.454c-95.707 0-100.562-91.235-100.562-240.089 0-148.862 4.855-240.104 100.562-240.104s100.562 91.235 100.562 240.105c-0.008 148.853-4.863 240.089-100.562 240.089z" />
<glyph unicode="&#xe60f;" d="M129.889-42.707c0 0-0.112 0-0.112 0-129.778 0.087-129.778 118.705-129.778 256.048 0 137.382 0 256.032 129.778 256.032 140.97 0 382.302-188.855 382.302-256.040 0-67.185-241.26-256.040-382.19-256.040zM129.778 453.43c-113.835 0-113.835-100.705-113.835-240.089 0-139.344 0-240.017 113.843-240.104l0.103-7.971v7.971c139.176 0 366.248 185.459 366.248 240.105 0 54.637-227.143 240.089-366.359 240.089z" />
<glyph unicode="&#xe610;" d="M409.358-29.546c-0.63 0-1.26 0.072-1.873 0.223l-151.404 36.67-151.412-36.669c-2.264-0.55-4.671-0.079-6.561 1.3-1.889 1.371-3.085 3.507-3.26 5.835l-11.909 155.334-81.669 132.663c-1.228 1.993-1.514 4.424-0.797 6.641 0.726 2.224 2.384 4.017 4.544 4.911l144.039 59.325 100.945 118.673c3.029 3.555 9.12 3.555 12.14 0l100.945-118.666 144.039-59.324c2.161-0.893 3.818-2.687 4.544-4.911 0.718-2.224 0.43-4.647-0.797-6.64l-81.653-132.664-11.918-155.334c-0.175-2.327-1.371-4.464-3.26-5.835-1.371-1.005-3.014-1.531-4.68-1.531zM19.753 266.193l77.763-126.326c0.662-1.084 1.060-2.304 1.164-3.572l11.335-147.913 144.183 34.916c1.227 0.303 2.519 0.303 3.755 0l144.175-34.916 11.344 147.913c0.096 1.267 0.494 2.487 1.164 3.572l77.763 126.326-137.168 56.494c-1.172 0.487-2.216 1.244-3.037 2.208l-96.122 112.998-96.121-113.005c-0.821-0.965-1.865-1.722-3.037-2.208l-137.16-56.487z" />
<glyph unicode="&#xe611;" d="M466.051 70.211c-38.224-56.71-96.257-95.141-163.386-108.207-16.478-3.204-33.043-4.791-49.464-4.791-50.476 0-99.796 14.962-142.58 43.812-56.702 38.216-95.133 96.241-108.198 163.37-0.837 4.32 1.977 8.505 6.306 9.342 4.304 0.869 8.505-1.977 9.342-6.298 12.261-62.944 48.292-117.358 101.471-153.198 53.17-35.856 117.127-48.842 180.079-36.582 62.952 12.252 117.366 48.308 153.214 101.478 35.849 53.171 48.834 117.142 36.582 180.095s-48.284 117.398-101.462 153.246c-53.171 35.849-117.119 48.922-180.087 36.67-56.176-10.937-105.512-40.711-140.962-84.802l88.899 0.406c0 0 0.008 0 0.008 0 4.193 0 7.597-3.722 7.605-7.956 0-4.241-3.396-7.979-7.597-7.979l-104.221-0.151c0 0 0 0-0.008 0-4.193 0-7.597 3.436-7.605 7.677l-0.144 105.297c-0.008 4.241 3.396 7.685 7.597 7.692 0 0 0 0 0.008 0 4.193 0 7.597-3.436 7.605-7.668l0.111-81.956c37.41 43.931 88.182 73.753 145.657 84.945 67.137 13.065 135.334-0.797 192.044-39.029 56.71-38.224 95.133-96.249 108.198-163.378 13.073-67.129-0.789-135.334-39.013-192.036z" />
<glyph unicode="&#xe612;" d="M498.178 296.437c-0.040 0.112-0.079 0.223-0.12 0.335-29.71 86.173-103.607 150.464-192.952 167.826-0.008 0-0.024 0-0.032 0.008-89.585 17.498-182.351-14.357-242.137-83.12-0.080-0.088-0.151-0.175-0.223-0.271-59.755-68.795-78.496-164.9-48.906-250.938 0.008-0.016 0.008-0.032 0.016-0.048 29.614-86.325 103.543-150.751 192.952-168.177 0.024 0 0.056-0.008 0.079-0.016 16.278-3.18 32.651-4.735 48.929-4.735 73.299 0 144.342 31.551 193.28 87.847 0.072 0.079 0.135 0.159 0.2 0.239 59.803 68.811 78.544 164.973 48.913 251.050zM438.829 57.688c-76.647-14.094-153.876 10.052-208.593 61.931 8.594-0.877 17.203-1.315 25.764-1.315 101.431 0 192.498 59.787 233.504 150.982 17.729-73.961-0.837-153.039-50.675-211.598zM256.008 292.388c14.452 0 29.041-1.332 43.382-3.962 9.303-10.937 17.721-22.822 25.087-35.578 7.223-12.516 13.353-25.804 18.263-39.555-4.815-13.528-10.897-26.752-18.263-39.515-7.223-12.5-15.664-24.457-25.127-35.585-14.125-2.591-28.626-3.938-43.35-3.938-14.429 0-29.008 1.332-43.381 3.962-9.303 10.945-17.721 22.822-25.087 35.577-7.207 12.483-13.345 25.772-18.255 39.547 4.823 13.528 10.905 26.752 18.271 39.515 7.214 12.5 15.656 24.465 25.119 35.585 14.118 2.591 28.61 3.946 43.342 3.946zM482.186 293.823c-26.131-73.427-85.647-128.231-157.934-149.675 5.054 6.999 9.741 14.238 14.022 21.651 50.707 87.855 44.474 196.62-14.006 277.707 72.932-21.619 132.137-77.229 157.918-149.683zM299.365 449.46c50.532-59.341 68.237-138.284 50.659-211.606-3.539 7.868-7.462 15.553-11.742 22.966-50.724 87.839-148.017 136.825-247.502 126.725 55.196 52.334 132.975 75.794 208.585 61.916zM73.18 368.939c76.663 14.094 153.884-10.052 208.593-61.932-8.586 0.869-17.195 1.315-25.764 1.315-101.43-0.008-192.506-59.795-233.504-150.982-17.729 73.969 0.837 153.047 50.675 211.598zM29.814 132.796c26.131 73.426 85.647 128.231 157.925 149.683-5.046-7.007-9.733-14.237-14.014-21.651-50.715-87.839-44.474-196.612 14.006-277.707-72.916 21.619-132.113 77.229-157.917 149.675zM212.635-22.825c-50.532 59.349-68.229 138.292-50.66 211.614 3.54-7.884 7.47-15.56 11.742-22.966 50.715-87.855 148.105-136.841 247.502-126.733-55.18-52.341-132.926-75.826-208.585-61.916z" />
<glyph unicode="&#xe613;" d="M256.925-42.595c-92.829 0-175.16 47.813-221.411 128.215-8.61-1.714-18.311-2.798-25.709-2.798-4.401 0-7.971 3.572-7.971 7.971v245.398c0 4.401 3.571 7.971 7.971 7.971 7.413 0 17.139-1.084 25.756-2.814 46.283 80.353 128.59 128.136 221.363 128.136 4.401 0 7.971-3.572 7.971-7.971v-496.137c0-4.401-3.563-7.971-7.971-7.971zM39.563 102.671c2.862 0 5.572-1.546 6.991-4.153 41.524-76.033 116.768-122.348 202.399-125.058v479.954c-85.575-2.71-160.803-48.985-202.351-124.963-1.746-3.189-5.444-4.807-8.96-3.898-5.923 1.506-13.28 2.694-19.865 3.284v-228.674c6.569 0.582 13.902 1.769 19.817 3.269 0.661 0.168 1.316 0.239 1.969 0.239zM421.937 213.445l87.385 87.385c3.117 3.117 3.117 8.155 0 11.272s-8.155 3.117-11.272 0l-87.385-87.385-87.392 87.385c-3.117 3.117-8.155 3.117-11.272 0s-3.117-8.155 0-11.272l87.392-87.385-87.392-87.385c-3.117-3.117-3.117-8.155 0-11.272 1.555-1.555 3.595-2.336 5.636-2.336s4.082 0.781 5.636 2.336l87.385 87.385 87.385-87.385c1.555-1.555 3.595-2.336 5.636-2.336s4.082 0.781 5.636 2.336c3.117 3.117 3.117 8.155 0 11.272l-87.377 87.385z" />
<glyph unicode="&#xe614;" d="M317.692 98.303c-2.742 0-5.413 1.419-6.896 3.954-2.216 3.803-0.933 8.681 2.87 10.905 35.577 20.758 57.675 59.197 57.666 100.322 0 41.142-22.098 79.589-57.69 100.339-3.803 2.216-5.086 7.094-2.87 10.905 2.216 3.803 7.087 5.086 10.905 2.87 40.472-23.596 65.606-67.32 65.599-114.114 0-46.777-25.127-90.502-65.582-114.098-1.26-0.733-2.639-1.084-4.002-1.084zM320.354 30.64c77.125 27.446 128.94 100.928 128.94 182.845 0 81.932-51.832 155.415-128.988 182.861-4.153 1.467-8.705-0.685-10.18-4.839-1.474-4.145 0.693-8.705 4.839-10.18 70.811-25.183 118.387-92.638 118.387-167.834 0-75.188-47.558-142.636-118.346-167.826-4.145-1.474-6.313-6.034-4.831-10.18 1.164-3.26 4.233-5.301 7.509-5.301 0.885-0.008 1.786 0.144 2.671 0.454zM319.669-34.384c112.838 29.232 191.645 131.157 191.645 247.869 0 116.712-78.808 218.645-191.653 247.877-4.273 1.076-8.618-1.459-9.717-5.716-1.1-4.265 1.459-8.618 5.716-9.717 105.807-27.406 179.704-122.994 179.704-232.444 0-109.442-73.897-205.022-179.704-232.428-4.265-1.108-6.815-5.461-5.716-9.717 0.933-3.587 4.169-5.97 7.716-5.97 0.67-0.008 1.339 0.079 2.009 0.247zM264.897-34.623v496.136c0 4.401-3.572 7.971-7.971 7.971-92.781 0-175.089-47.782-221.363-128.127-8.617 1.722-18.343 2.814-25.756 2.814-4.401 0-7.971-3.571-7.971-7.971v-245.398c0-4.401 3.571-7.971 7.971-7.971 7.398 0 17.099 1.084 25.709 2.798 46.251-80.401 128.582-128.215 221.411-128.215 4.409-0.008 7.971 3.563 7.971 7.963zM37.602 102.432c-5.915-1.498-13.257-2.687-19.817-3.269v228.666c6.585-0.582 13.942-1.778 19.865-3.285 3.532-0.901 7.215 0.709 8.96 3.898 41.54 75.986 116.768 122.261 202.343 124.971v-479.946c-85.631 2.711-160.875 49.017-202.399 125.058-1.419 2.599-4.13 4.153-6.991 4.153-0.654-0.008-1.307-0.079-1.961-0.247z" />
<glyph unicode="&#xe615;" d="M255.96-42.707c-141.185 0-256.048 114.863-256.048 256.048 0 141.177 114.863 256.040 256.048 256.040 141.177 0 256.040-114.855 256.040-256.040 0-141.185-114.855-256.048-256.040-256.048zM255.96 453.43c-132.393 0-240.105-107.705-240.105-240.097s107.713-240.105 240.105-240.105c132.385 0 240.097 107.712 240.097 240.105 0 132.393-107.704 240.096-240.096 240.096zM429.837 213.333c0 4.401-3.572 7.971-7.971 7.971h-165.905c-4.4 0-7.971-3.571-7.971-7.971s3.571-7.971 7.971-7.971h165.905c4.409 0 7.971 3.572 7.971 7.971zM263.932 213.333c0 4.401-3.572 7.971-7.971 7.971h-165.913c-4.4 0-7.972-3.571-7.972-7.971s3.572-7.971 7.972-7.971h165.905c4.408 0 7.98 3.572 7.98 7.971z" />
<glyph unicode="&#xe616;" d="M256.048-42.707c-141.185 0-256.048 114.863-256.048 256.048 0 141.177 114.863 256.032 256.048 256.032 141.177 0 256.040-114.855 256.040-256.040 0-141.177-114.855-256.040-256.040-256.040zM256.048 453.43c-132.393 0-240.105-107.705-240.105-240.089 0-132.392 107.713-240.104 240.105-240.104 132.385 0 240.096 107.712 240.096 240.105 0 132.385-107.704 240.089-240.096 240.089zM421.953 221.257h-157.057v157.989c0 4.4-3.572 7.971-7.971 7.971s-7.971-3.572-7.971-7.971v-157.989h-158.818c-4.4 0-7.972-3.572-7.972-7.972s3.572-7.971 7.972-7.971h158.818v-157.894c0-4.401 3.571-7.971 7.971-7.971s7.971 3.572 7.971 7.971v157.894h157.057c4.401 0 7.971 3.572 7.971 7.971s-3.572 7.971-7.971 7.971z" />
<glyph unicode="&#xe617;" d="M256.183-42.707c-68.397 0-132.688 26.633-181.043 74.989-99.829 99.829-99.829 262.266 0 362.102 48.356 48.355 112.654 74.989 181.043 74.989s132.696-26.633 181.051-74.997 74.989-112.654 74.989-181.043-26.633-132.688-74.989-181.043-112.654-74.997-181.051-74.997zM256.183 453.43c-64.132 0-124.428-24.975-169.771-70.317-93.618-93.619-93.618-245.94 0-339.559 45.343-45.342 105.639-70.317 169.771-70.317s124.428 24.975 169.779 70.326c93.611 93.618 93.611 245.932 0 339.55-45.351 45.351-105.639 70.317-169.779 70.317zM267.455 213.333l111.682 111.682c3.117 3.117 3.117 8.155 0 11.272s-8.155 3.117-11.272 0l-111.682-111.682-111.682 111.682c-3.117 3.117-8.155 3.117-11.272 0s-3.117-8.155 0-11.272l111.682-111.682-111.682-111.682c-3.117-3.117-3.117-8.155 0-11.272 1.554-1.555 3.595-2.336 5.636-2.336s4.082 0.781 5.636 2.336l111.682 111.682 111.682-111.682c1.555-1.555 3.595-2.336 5.636-2.336s4.082 0.781 5.636 2.336c3.117 3.117 3.117 8.155 0 11.272l-111.682 111.682z" />
<glyph unicode="&#xe618;" d="M99.43-42.731c0 0-0.079 0-0.088 0-99.342 0.096-99.342 118.705-99.342 256.048 0 137.382 0 256.032 99.35 256.032 19.754 0 42.831-6.361 68.668-18.924 14.429 12.595 32.994 18.964 55.291 18.964 106.484 0 288.779-188.855 288.779-256.040 0-37.873-52.389-104.325-104.317-153.382-68.046-64.275-136.968-102.65-184.383-102.65 0 0 0 0 0 0-22.321 0.024-40.855 6.377-55.259 18.9-25.844-12.579-48.938-18.948-68.7-18.948zM99.35 453.406c-79.381 0-83.407-91.227-83.407-240.089 0-148.814 4.026-240.025 83.415-240.104l0.072-7.971v7.971c18.494 0 40.862 6.632 66.483 19.714 3.109 1.587 6.871 0.973 9.303-1.507 11.998-12.197 27.733-18.135 48.093-18.159 43.517 0 108.35 36.749 173.51 98.306 57.547 54.375 99.318 114.010 99.318 141.799 0 61.334-175.375 240.096-272.836 240.096-20.399 0-36.159-5.963-48.173-18.223-2.431-2.487-6.21-3.109-9.311-1.514-25.62 13.058-47.981 19.682-66.467 19.682z" />
<glyph unicode="&#xe619;" d="M412.738-42.731c0 0-0.087 0-0.087 0-19.762 0-42.856 6.37-68.7 18.94-14.404-12.524-32.93-18.877-55.163-18.9-47.503 0-116.425 38.375-184.471 102.658-51.927 49.065-104.317 115.517-104.317 153.389 0 67.185 182.295 256.040 288.779 256.040 22.288 0 40.855-6.377 55.291-18.964 25.836 12.563 48.913 18.925 68.668 18.925 99.35 0 99.35-118.649 99.35-256.040-0.008-137.343-0.008-255.952-99.35-256.048zM342.548-6.205c1.228 0 2.471-0.287 3.619-0.869 25.62-13.082 47.989-19.714 66.483-19.714v-7.971l0.072 7.971c79.381 0.072 83.415 91.291 83.415 240.104 0 148.862-4.026 240.096-83.407 240.096-18.486 0-40.854-6.632-66.459-19.698-3.109-1.594-6.88-0.973-9.311 1.514-12.021 12.26-27.773 18.223-48.173 18.223-97.469 0-272.844-178.763-272.844-240.096s175.32-240.105 272.757-240.105c20.431 0.016 36.167 5.963 48.164 18.159 1.531 1.563 3.595 2.384 5.684 2.384z" />
<glyph unicode="&#xe61a;" d="M255.809-42.643c-115.58 0-217.218 78.058-247.167 189.835-17.705 66.060-8.617 135.055 25.573 194.284s89.417 101.598 155.478 119.295c42.433 11.368 87.194 11.615 129.602 0.757 2.065-0.526 3.827-1.858 4.902-3.699 1.076-1.841 1.371-4.034 0.821-6.090l-61.214-228.434 229.829 61.581c2.041 0.558 4.217 0.263 6.058-0.797 1.825-1.060 3.164-2.806 3.707-4.854 36.207-136.171-45.072-276.623-181.163-313.092-21.755-5.827-44.107-8.784-66.428-8.784zM255.944 453.589c-20.877 0-41.779-2.766-62.123-8.211-61.947-16.605-113.723-56.327-145.792-111.865-32.062-55.538-40.584-120.236-23.986-182.183 28.084-104.827 123.393-178.030 231.767-178.030 20.926 0 41.891 2.774 62.298 8.243 125.043 33.505 200.733 160.612 171.804 285.846l-235.321-63.055c-2.742-0.733-5.684 0.048-7.701 2.065-2.017 2.009-2.806 4.95-2.065 7.701l62.665 233.855c-16.94 3.739-34.246 5.636-51.544 5.636zM307.417 255.567c-2.089 0-4.122 0.821-5.636 2.335-2.017 2.009-2.806 4.951-2.065 7.701l52.254 195.001c1.132 4.217 5.445 6.744 9.678 5.66 72.788-18.661 130.072-75.268 149.492-147.729 0.55-2.041 0.311-4.409-0.75-6.242-1.053-1.833-2.75-3.364-4.791-3.906l-196.125-52.549c-0.678-0.184-1.371-0.271-2.057-0.271zM365.291 448.703l-46.602-173.892 174.929 46.865c-19.076 61.078-67.257 108.677-128.327 127.027z" />
<glyph unicode="&#xe61b;" d="M510.724 239.592c-0.877 8.601-2.161 17.067-3.874 25.397-0.853 4.161-1.801 8.291-2.854 12.38-28.459 110.351-128.837 192.115-247.957 192.115v0 0c-119.12 0-219.498-81.764-247.957-192.123-1.053-4.089-2.009-8.219-2.862-12.38-1.706-8.322-2.096-16.796-2.974-25.398s-0.414-17.315-0.414-26.139v-247.988c0-4.4 2.646-7.573 7.047-7.573l123.353 0.311c2.113 0 2.71 0.447 4.209 1.937 1.499 1.498 0.909 3.133 0.909 5.245v248.068c0 63.996 51.592 116.067 115.588 116.067s115.588-52.063 115.588-116.067v-248.068c0-2.113 2.63-3.747 4.122-5.245 1.498-1.49 4.416-1.937 6.529-1.937h0.454l124.262-0.311c0.558 0 1.156 0.008 1.674 0.12 0.51 0.104 1.124 0.008 1.594 0.207 0.813 0.351 1.531 0.829 2.176 1.403 0.111 0.104 0.247 0.12 0.358 0.231 1.443 1.443 2.319 3.412 2.319 5.612v247.988c0 8.825-0.414 17.546-1.291 26.147zM17.776-26.572v104.341h103.631v-104.42l-103.631 0.079zM252.939 345.447c-72.788 0-131.531-59.221-131.531-132.010v-119.733h-103.631v119.742c0 4.137-0.813 8.25-0.606 12.332 0.829 16.35 2.846 32.269 6.8 47.599 0.988 3.834 1.841 7.629 3.014 11.392 30.451 97.668 121.607 168.774 229.175 168.774 107.561 0 198.78-71.106 229.224-168.774 1.172-3.762 2.224-7.557 3.212-11.392 3.954-15.329 6.385-31.249 7.214-47.599 0.207-4.089 0.263-8.195 0.263-12.332v-119.734h-111.603v119.733c0 72.789-58.743 132.002-131.531 132.002zM384.471 77.768h111.603v-104.341l-111.603-0.079v104.42z" />
<glyph unicode="&#xe61c;" d="M256.925 469.501c-141.177 0-255.091-114.863-255.091-256.048v-126.039c0-72.892 29.384-129.993 68.061-129.993s68.524 57.1 68.524 129.993-29.606 129.993-68.293 129.993c-21.555 0-44.378-17.753-52.349-46.052v42.106c0 132.393 106.755 240.105 239.148 240.105s239.148-107.704 239.148-240.096v-42.114c-15.943 28.299-31.448 46.052-53.003 46.052-38.686 0-68.963-57.101-68.963-129.993s30.268-129.993 68.954-129.993 68.954 57.101 68.954 129.993v0 126.047c0 141.185-113.906 256.040-255.091 256.040zM68.986 201.464c28.746 0 53.035-52.23 53.035-114.049s-24.29-114.049-53.035-114.049-53.043 52.23-53.043 114.049c0 61.82 24.289 114.049 53.043 114.049zM443.101-26.636c-28.745 0-53.035 52.23-53.035 114.050s24.289 114.049 53.035 114.049 53.035-52.23 53.035-114.049c0.008-61.82-24.281-114.049-53.035-114.049z" />
<glyph unicode="&#xe61d;" d="M138.65 165.815c-2.041 0-4.082 0.781-5.636 2.336-3.117 3.117-3.117 8.155 0 11.272l117.318 117.318c2.989 2.99 8.283 2.99 11.272 0l117.31-117.318c3.117-3.117 3.117-8.155 0-11.272s-8.155-3.117-11.272 0l-111.674 111.682-111.682-111.682c-1.563-1.563-3.603-2.336-5.636-2.336zM512.040 213.469c0 141.177-114.863 256.032-256.048 256.032-141.177 0-256.032-114.855-256.032-256.032 0-141.185 114.855-256.048 256.032-256.048 141.185 0 256.048 114.863 256.048 256.048zM496.096 213.469c0-132.393-107.712-240.105-240.105-240.105-132.385 0-240.089 107.713-240.089 240.105 0 132.385 107.704 240.089 240.089 240.089 132.4 0 240.105-107.697 240.105-240.089z" />
<glyph unicode="&#xe61e;" d="M256 127.726c-2.113 0-4.145 0.837-5.636 2.336l-117.318 117.318c-3.117 3.117-3.117 8.155 0 11.272s8.155 3.117 11.272 0l111.682-111.682 111.674 111.682c3.117 3.117 8.155 3.117 11.272 0s3.117-8.155 0-11.272l-117.31-117.318c-1.49-1.498-3.524-2.336-5.636-2.336zM512.080 213.325c0 141.185-114.863 256.048-256.048 256.048-141.177 0-256.032-114.863-256.032-256.048 0-141.177 114.855-256.032 256.032-256.032 141.185 0 256.048 114.855 256.048 256.032zM496.137 213.325c0-132.385-107.713-240.089-240.104-240.089-132.385 0-240.089 107.704-240.089 240.089 0 132.393 107.704 240.105 240.089 240.105 132.4 0 240.105-107.704 240.105-240.105z" />
<glyph unicode="&#xe61f;" d="M295.81 88.179c-2.041 0-4.082 0.781-5.636 2.336l-117.31 117.31c-1.499 1.498-2.335 3.524-2.335 5.636s0.837 4.145 2.335 5.636l117.318 117.318c3.117 3.117 8.155 3.117 11.272 0s3.117-8.155 0-11.272l-111.682-111.682 111.682-111.674c3.117-3.117 3.117-8.155 0-11.272-1.563-1.555-3.603-2.336-5.644-2.336zM512.176 213.421c0 141.177-114.863 256.040-256.048 256.040-141.177 0-256.032-114.855-256.032-256.040 0-141.185 114.855-256.048 256.032-256.048 141.185 0.008 256.048 114.871 256.048 256.048zM496.232 213.421c0-132.393-107.713-240.105-240.104-240.105-132.385 0-240.089 107.713-240.089 240.105 0 132.385 107.704 240.096 240.089 240.096 132.393 0 240.105-107.704 240.105-240.096z" />
<glyph unicode="&#xe620;" d="M216.365 88.091c-2.041 0-4.082 0.781-5.636 2.336-3.117 3.117-3.117 8.155 0 11.272l111.682 111.674-111.682 111.682c-3.117 3.117-3.117 8.155 0 11.272s8.155 3.117 11.272 0l117.318-117.318c1.498-1.498 2.336-3.524 2.336-5.636s-0.837-4.145-2.336-5.636l-117.318-117.31c-1.563-1.555-3.603-2.336-5.636-2.336zM512.080 213.341c0 141.177-114.855 256.040-256.032 256.040-141.185-0.008-256.048-114.863-256.048-256.040 0-141.185 114.863-256.048 256.048-256.048 141.177 0 256.032 114.863 256.032 256.048zM496.137 213.341c0-132.393-107.704-240.105-240.089-240.105-132.393 0-240.105 107.712-240.105 240.105 0 132.385 107.713 240.089 240.105 240.089 132.393 0 240.089-107.704 240.089-240.089z" />
<glyph unicode="&#xe621;" d="M503.327 279.665c-17.697 66.060-60.066 121.272-119.295 155.47-0.279 0.159-0.598 0.175-0.893 0.303-0.151 0.103-0.247 0.263-0.406 0.358-38.495 21.962-82.299 33.577-126.692 33.577-141.185 0-256.048-114.855-256.048-256.040 0-0.327 0.151-0.606 0.183-0.925-0.008-0.183-0.103-0.343-0.103-0.534 0.223-44.322 12.069-88.063 34.262-126.51 34.198-59.229 89.418-101.598 155.478-119.303 22.065-5.915 44.441-8.832 66.69-8.832 44.362 0 88.158 11.638 127.594 34.413 0.247 0.144 0.39 0.382 0.622 0.55 0.2 0.096 0.406 0.135 0.606 0.247 38.264 22.353 70.23 54.486 92.423 92.933 34.198 59.229 43.278 128.223 25.581 194.292zM15.839 212.847c0.008 0.168 0.095 0.311 0.095 0.487 0 132.385 107.713 240.096 240.104 240.096 12.779 0 25.501-1.029 38.048-3.045-36.725-6.824-70.389-28.993-90.358-63.589-11.607-20.096-17.729-42.935-17.705-66.021 0.048-45.391 23.675-87.72 61.899-111.73-1.49-39.643-23.325-78.010-57.858-97.995-17.561-10.164-37.626-17.322-58.034-17.322-0.008 0-0.016 0-0.016 0-63.231 0-115.261 53.25-115.995 116.505-0.008 0.287-0.152 2.327-0.184 2.615zM377.232 6.183c-0.255-0.151-0.399-0.399-0.63-0.574-0.159-0.072-0.327-0.072-0.478-0.159-55.538-32.070-120.243-40.583-182.183-23.986-61.947 16.597-113.731 56.327-145.792 111.873-6.386 11.065-11.861 20.806-16.381 32.683 24.265-28.395 60.297-48.244 100.251-48.244 0.008 0 0.008 0 0.016 0 23.214 0 46.036 7.908 66.021 19.466 39.284 22.743 64.124 65.264 65.798 110.367 35.075 18.534 77.683 18.359 112.256-1.563 17.594-10.132 32.277-24.601 42.472-42.274 31.615-54.765 13.065-125.329-41.349-157.59zM463.939 93.345c-6.385-11.065-13.632-21.571-21.651-31.424 12.452 35.219 10.084 75.443-9.901 110.040-11.599 20.105-28.307 36.821-48.324 48.348-39.332 22.656-87.807 23.349-127.713 2.256-33.584 21.109-54.334 58.32-54.382 98.218-0.024 20.287 5.357 40.36 15.569 58.034 31.607 54.757 102.188 74.080 157.343 43.102 0.255-0.151 0.542-0.151 0.813-0.263 0.144-0.096 0.223-0.239 0.375-0.335 55.538-32.062 95.269-83.837 111.865-145.792 16.597-61.94 8.075-126.645-23.995-182.183zM132.001 164.053c27.191 0 49.321 22.121 49.321 49.321s-22.121 49.321-49.321 49.321-49.321-22.121-49.321-49.321 22.121-49.321 49.321-49.321zM132.001 246.742c18.406 0 33.377-14.97 33.377-33.377s-14.97-33.377-33.377-33.377-33.377 14.971-33.377 33.377 14.971 33.377 33.377 33.377zM342.723 363.502c-7.493 4.32-16.007 6.616-24.616 6.616-17.586 0-33.967-9.454-42.752-24.664-13.591-23.556-5.493-53.776 18.055-67.368 7.493-4.32 16.007-6.617 24.616-6.617 17.586 0 33.967 9.455 42.743 24.664 6.592 11.408 8.339 24.696 4.926 37.418-3.412 12.723-11.567 23.357-22.974 29.95zM346.964 304.106c-5.939-10.3-17.036-16.692-28.937-16.692-5.82 0-11.575 1.546-16.644 4.48-15.935 9.199-21.42 29.647-12.221 45.59 5.947 10.299 17.043 16.692 28.945 16.692 5.812 0 11.575-1.547 16.644-4.48 7.716-4.456 13.241-11.654 15.553-20.264s1.116-17.61-3.34-25.326zM318.019 155.268c-8.61 0-17.123-2.288-24.616-6.616-23.548-13.599-31.647-43.82-18.055-67.368 8.784-15.218 25.166-24.664 42.752-24.664 8.618 0 17.123 2.288 24.616 6.616 23.548 13.599 31.647 43.82 18.048 67.368-8.776 15.218-25.159 24.664-42.743 24.664zM334.752 77.043c-5.070-2.933-10.825-4.48-16.644-4.48-11.909 0-22.998 6.401-28.937 16.692-9.199 15.943-3.723 36.391 12.212 45.589 5.070 2.933 10.825 4.48 16.644 4.48 11.909 0 22.998-6.401 28.945-16.692 9.192-15.943 3.715-36.39-12.221-45.589z" />
<glyph unicode="&#xe622;" d="M512.040 214.92v0c-0.901 140.261-115.74 254.358-255.992 254.358-140.261 0-255.099-114.106-256.024-254.573-0.032-0.471-0.064-0.949-0.064-1.427 0-0.55 0.071-1.084 0.080-1.634v0c0.916-140.252 115.748-254.35 256-254.35 140.26 0 255.099 114.105 256.024 254.573 0.032 0.471 0.064 0.949 0.064 1.427 0 0.55-0.080 1.076-0.087 1.626zM15.991 214.816c0.845 131.515 108.534 238.518 240.057 238.518 101.781 0 189.238-64.108 224.002-154.036-24.233 28.116-60.010 46.012-99.956 46.012-72.796 0-132.025-59.229-132.025-132.026 0 0 0 0 0 0s0 0 0 0c0-64.012-52.071-116.082-116.083-116.082-64.012 0-116.082 52.079-116.067 116.329 0.024 0.175 0.072 1.1 0.072 1.284zM496.096 211.755c-0.845-131.524-108.534-238.518-240.057-238.518-101.781 0-189.238 64.108-224.002 154.036 24.233-28.116 60.010-46.012 99.956-46.012 72.796 0 132.026 59.229 132.026 132.025 0 0 0 0 0 0s0 0 0 0c0 64.012 52.070 116.083 116.082 116.083 64.012 0 116.082-52.079 116.067-116.33-0.016-0.175-0.072-1.108-0.072-1.284zM380.102 262.662c-27.199 0-49.329-22.129-49.329-49.336 0-27.199 22.129-49.32 49.329-49.32s49.329 22.121 49.329 49.32c0 27.207-22.129 49.336-49.329 49.336zM380.102 179.948c-18.406 0-33.385 14.971-33.385 33.377 0 18.415 14.978 33.393 33.385 33.393s33.385-14.978 33.385-33.393c0-18.399-14.978-33.377-33.385-33.377zM131.994 163.909c27.199 0 49.328 22.129 49.328 49.336 0 27.199-22.129 49.321-49.328 49.321s-49.328-22.121-49.328-49.321c0-27.207 22.129-49.336 49.328-49.336zM131.994 246.623c18.406 0 33.385-14.97 33.385-33.377 0-18.414-14.978-33.393-33.385-33.393s-33.385 14.978-33.385 33.393c0 18.399 14.978 33.377 33.385 33.377z" />
<glyph unicode="&#xe623;" d="M503.644 221.178h-55.926v54.234c0 107.104-86.227 194.24-193.331 194.24-52.007 0-100.416-20.286-137.125-57.131-3.112-3.129-2.873-8.172 0.248-11.292 3.12-3.104 8.291-3.096 11.404 0.016 33.693 33.813 77.68 52.439 125.418 52.439 98.309 0 177.426-79.979 177.426-178.28v-54.234h-424.791c-4.405 0-7.981-3.495-7.981-7.909 0-141.339 114.988-256.287 256.327-256.287 141.331 0 256.319 114.932 256.319 256.271-0.008 4.413-3.575 7.933-7.988 7.933zM255.314-27.161c-129.863 0-236.010 104.702-240.231 232.387h426.475c0.008 0 0.008 0 0.016 0s0.008 0 0.016 0h53.939c-4.214-127.693-110.351-232.387-240.215-232.387zM267.899 83.454c15.322 5.267 26.43 19.663 26.43 36.75 0 21.515-17.501 39.024-39.024 39.024s-39.024-17.509-39.024-39.024c0-17.086 11.108-31.483 26.43-36.75l-30.094-52.127c-1.421-2.474-1.421-4.349 0-6.823 1.429-2.474 4.062-2.833 6.911-2.833h71.543c0.056 0 0.103 0 0.159 0 4.405 0 7.981 2.418 7.981 6.823 0 1.987-0.726 3.224-1.931 4.62l-29.384 50.339zM232.25 120.211c0 12.721 10.343 23.063 23.063 23.063s23.063-10.342 23.063-23.063c0-12.712-10.342-23.063-23.063-23.063s-23.063 10.351-23.063 23.063zM233.36 37.631l21.946 38.018 21.946-38.018h-43.892z" />
<glyph unicode="&#xe624;" d="M503.644 221.178h-55.926v54.234c0 107.104-84.423 194.24-191.527 194.24s-191.527-87.137-191.527-194.24v-54.234h-57.697c-4.405 0-7.981-3.504-7.981-7.909 0-141.339 114.988-256.287 256.327-256.287 141.331 0 256.319 114.932 256.319 256.271-0.008 4.405-3.575 7.925-7.988 7.925zM80.633 275.412c0 98.302 77.257 178.28 175.567 178.28s175.566-79.978 175.566-178.28v-54.234h-351.133v54.234zM255.314-27.161c-129.863 0-236.010 104.702-240.231 232.387h53.939c0.008 0 0.008 0 0.016 0s0.008 0 0.016 0h372.497c0.008 0 0.008 0 0.016 0s0.008 0 0.016 0h53.939c-4.205-127.693-110.344-232.387-240.207-232.387zM267.899 83.454c15.322 5.267 26.43 19.663 26.43 36.75 0 21.515-17.501 39.024-39.024 39.024s-39.024-17.509-39.024-39.024c0-17.086 11.108-31.483 26.43-36.75l-30.094-52.127c-1.421-2.474-1.421-4.349 0-6.823 1.429-2.474 4.062-2.833 6.911-2.833h71.543c0.056 0 0.103 0 0.159 0 4.405 0 7.981 2.418 7.981 6.823 0 1.987-0.726 3.232-1.931 4.628l-29.384 50.332zM232.25 120.203c0 12.721 10.343 23.063 23.063 23.063s23.063-10.342 23.063-23.063c0-12.712-10.342-23.063-23.063-23.063s-23.063 10.351-23.063 23.063zM233.36 37.631l21.946 38.018 21.946-38.018h-43.892z" />
<glyph unicode="&#xe625;" d="M508.481 18.478c-37.747 33.796-60.754 82.221-60.754 132.856v124.086c0 107.103-84.423 194.232-191.527 194.232s-191.527-87.129-191.527-194.232v-124.086c0-50.635-23.007-99.067-60.754-132.864-2.466-2.202-3.99-5.123-2.809-8.212 1.173-3.096 3.471-4.549 6.776-4.549h206.721c-0.239 0-0.399-4.253-0.399-6.121 0-23.151 18.841-42.279 42.001-42.279 23.151 0 41.993 19.272 41.993 42.423 0 1.86-0.168 5.977-0.407 5.977h206.721c3.312 0 5.594 1.469 6.776 4.549 1.181 3.096-0.343 6.017-2.809 8.219zM282.231-0.411c0-14.356-11.675-26.319-26.031-26.319-14.357 0-26.040 12.114-26.040 26.462 0 1.892 0.263 5.977 0.655 5.977h50.747c0.407 0 0.671-4.238 0.671-6.121zM27.253 21.67c32.408 31.921 53.38 81.12 53.38 129.664v124.086c0 98.301 77.266 178.272 175.567 178.272 98.301 0 175.566-79.971 175.566-178.272v-124.086c0-48.544 20.98-97.743 53.38-129.664h-457.894z" />
<glyph unicode="&#xe626;" d="M255.849 205.353c-143.733 0-256.327 58.049-256.327 132.154 0 74.105 112.586 132.146 256.327 132.146 143.725 0 256.319-58.041 256.319-132.146 0-74.105-112.594-132.154-256.319-132.154zM255.849 453.7c-132.537 0-240.367-52.12-240.367-116.185 0-64.066 107.83-116.193 240.367-116.193 132.529 0 240.358 52.128 240.358 116.193 0 64.058-107.83 116.185-240.358 116.185zM512.168 213.341c0 17.309-6.272 34.131-18.642 49.988-2.721 3.48-7.733 4.102-11.197 1.389-3.479-2.714-4.102-7.725-1.389-11.196 10.135-12.992 15.267-26.511 15.267-40.181 0-64.066-107.822-116.193-240.358-116.193-132.537 0-240.367 52.127-240.367 116.193 0 13.671 5.139 27.189 15.267 40.173 2.706 3.48 2.091 8.491-1.381 11.204-3.479 2.706-8.483 2.091-11.204-1.38-12.37-15.857-18.642-32.679-18.642-49.997 0-74.105 112.586-132.154 256.327-132.154 143.725 0 256.319 58.048 256.319 132.154zM512.168 89.168c0 17.31-6.272 34.132-18.642 49.988-2.721 3.479-7.733 4.094-11.197 1.389-3.479-2.714-4.102-7.725-1.389-11.197 10.135-12.992 15.267-26.51 15.267-40.181 0-64.066-107.822-116.193-240.358-116.193-132.537 0-240.367 52.127-240.367 116.193 0 13.671 5.139 27.189 15.267 40.173 2.714 3.479 2.091 8.491-1.381 11.204-3.479 2.705-8.483 2.091-11.204-1.38-12.37-15.857-18.642-32.68-18.642-49.996 0-74.105 112.586-132.153 256.327-132.153 143.725 0 256.319 58.048 256.319 132.153z" />
<glyph unicode="&#xe627;" d="M505.145 223.372l-55.016 0.008c-1.197 29.399-8.986 57.115-21.93 81.742l47.675 27.516c3.815 2.202 5.123 7.087 2.921 10.901-2.211 3.823-7.079 5.132-10.901 2.921l-47.698-27.532c-15.306 24.069-35.767 44.53-59.837 59.837l27.548 47.691c2.202 3.814 0.902 8.698-2.921 10.901-3.807 2.219-8.699 0.902-10.901-2.921l-26.399-47.666c-25.433 13.367-51.601 21.219-83.522 22.010v52.606c0 4.405-3.575 7.981-7.981 7.981s-7.981-3.575-7.981-7.981v-52.798c-31.921-1.58-56.157-9.305-79.971-21.818l-28.090 47.666c-2.202 3.822-7.374 5.123-11.18 2.921-3.823-2.202-5.267-7.087-3.064-10.901l27.468-47.698c-24.069-15.306-44.554-35.76-59.86-59.829l-47.698 27.54c-3.822 2.21-8.715 0.894-10.917-2.921s-0.902-8.699 2.921-10.901l47.666-27.923c-13.144-25.011-20.964-51.624-21.97-83.546h-56.971c-4.405 0-7.981-3.575-7.981-7.981s3.575-7.981 7.981-7.981h57.035c1.389-31.921 9.161-55.695 21.906-79.93l-47.682-27.325c-3.822-2.202-5.123-6.983-2.921-10.805 1.484-2.553 4.157-3.942 6.919-3.942 1.349 0 2.721 0.367 3.982 1.094l47.714 27.556c15.306-24.060 35.76-44.514 59.829-59.82l-27.556-47.706c-2.203-3.815-0.894-8.69 2.921-10.901 1.253-0.726 2.633-1.070 3.982-1.070 2.761 0 5.442 1.428 6.919 3.99l28.665 47.683c23.805-12.513 48.041-20.23 79.963-21.81v-55.638c0-4.405 3.575-7.981 7.98-7.981s7.981 3.575 7.981 7.981v55.439c31.921 0.79 58.080 8.642 83.506 22.002l26.95-47.683c1.485-2.562 3.878-3.99 6.639-3.99 1.349 0 2.577 0.343 3.839 1.070 3.815 2.202 5.051 7.087 2.849 10.901l-27.572 47.714c24.060 15.298 44.506 35.76 59.813 59.82l47.683-27.548c1.253-0.726 2.625-1.070 3.982-1.070 2.761 0 5.442 1.428 6.919 3.99 2.202 3.815 0.894 8.699-2.921 10.901l-47.666 27.532c12.944 24.619 20.741 52.343 21.946 81.742l55.016-0.008c4.405 0 7.98 3.575 7.98 7.981s-3.575 7.988-7.988 7.988zM256.838 37.878c-97.894 0-177.537 79.644-177.537 177.538s79.643 177.538 177.537 177.538c97.839 0 177.45-79.556 177.537-177.378 0-0.056-0.032-0.111-0.032-0.167s0.032-0.112 0.032-0.168c-0.103-97.815-79.707-177.362-177.538-177.362z" />
<glyph unicode="&#xe628;" d="M510.42 14.72l-16.87 16.87 16.304 16.304c3.121 3.12 3.121 8.164 0 11.284l-30.134 30.142c20.653 36.933 32.472 79.436 32.472 124.676 0 141.331-114.98 256.319-256.319 256.319-141.339 0-256.327-114.98-256.327-256.319 0-141.339 114.988-256.327 256.327-256.327 44.49 0 86.355 11.412 122.856 31.426 0 0 0 0 0.008 0 0.647 0.351 1.277 0.742 1.916 1.11l30.11-30.118c1.5-1.5 3.527-2.338 5.642-2.338s4.15 0.838 5.642 2.338l16.304 16.304 16.87-16.878c1.5-1.5 3.527-2.338 5.642-2.338s4.15 0.838 5.642 2.338l43.899 43.907c3.137 3.137 3.137 8.188 0.016 11.3zM451.486 74.58c-1.293-1.803-2.57-3.615-3.911-5.378-1.461-1.931-2.969-3.822-4.485-5.698-1.285-1.596-2.586-3.16-3.911-4.724-1.58-1.86-3.16-3.719-4.796-5.531-1.397-1.556-2.849-3.057-4.293-4.572-2.873-3.033-5.825-5.985-8.858-8.858-1.509-1.437-3-2.881-4.549-4.277-1.827-1.652-3.695-3.24-5.57-4.828-1.532-1.301-3.080-2.586-4.652-3.854-1.908-1.532-3.822-3.065-5.777-4.541-1.692-1.285-3.432-2.514-5.156-3.759-2.929-2.099-5.897-4.134-8.922-6.105-1.070-0.695-2.163-1.373-3.24-2.059-3.591 30.397-24.332 67.8-56.014 99.474-23.111 23.119-48.904 40.317-73.291 49.398 1.309 3.392 1.58 7.334 0.814 11.691 1.628-0.296 3.224-0.495 4.764-0.495 5.179 0 9.632 1.708 12.849 4.932 4.245 4.238 5.634 10.375 4.365 17.509 1.62-0.288 3.208-0.487 4.74-0.487 5.179 0 9.624 1.7 12.849 4.932 4.238 4.238 5.634 10.375 4.365 17.509 1.612-0.287 3.208-0.487 4.733-0.487 2.562 0 4.94 0.423 7.087 1.237 9.106-24.348 26.279-50.068 49.342-73.124 31.682-31.69 69.086-52.43 99.483-56.005-0.71-1.133-1.413-2.267-2.147-3.384-1.875-2.881-3.815-5.714-5.817-8.515zM250.542 241.248c0.088 0.064 0.566 0.263 1.564 0.263 4.262 0 12.361-3.512 20.079-11.237 10.733-10.733 12.043-20.23 10.981-21.627 0 0-0.399-0.264-1.572-0.264-4.262 0-12.361 3.512-20.079 11.228-10.733 10.734-12.042 20.238-10.973 21.635zM272.495 263.202c0.088 0.072 0.567 0.263 1.564 0.263 4.262 0 12.353-3.511 20.070-11.236 10.75-10.75 12.050-20.246 10.989-21.635 0 0-0.399-0.263-1.572-0.263-4.262 0-12.361 3.512-20.079 11.228-10.741 10.75-12.050 20.246-10.973 21.642zM250.231 208.33c10.717-10.726 12.043-20.23 10.973-21.635-0.088-0.072-0.567-0.264-1.564-0.264-4.262 0-12.353 3.512-20.078 11.236-10.75 10.75-12.050 20.246-10.981 21.635 0 0 0.399 0.264 1.572 0.264 4.262 0 12.362-3.519 20.078-11.237zM239.226 164.773c-0.088-0.072-0.566-0.264-1.564-0.264-4.262 0-12.362 3.519-20.078 11.236-10.733 10.733-12.042 20.238-10.973 21.635 0.088 0.064 0.566 0.264 1.564 0.264 4.262 0 12.362-3.512 20.078-11.236 10.733-10.741 12.042-20.238 10.973-21.635zM15.514 213.996c0 132.529 107.83 240.358 240.367 240.358 132.529 0 240.358-107.822 240.358-240.358 0-40.476-10.103-78.63-27.844-112.123-27.26 0.032-65.558 20.318-97.128 51.896-27.133 27.141-46.142 59.118-50.843 85.533-0.168 0.974-0.567 1.844-1.038 2.649-2.386 7.102-7.031 14.636-13.966 21.563-9.959 9.96-21.683 15.913-31.355 15.913-5.179 0-9.624-1.708-12.849-4.932-4.317-4.317-5.666-10.606-4.277-17.9-7.102 1.285-13.487 0.144-17.677-4.046-4.317-4.317-5.666-10.606-4.278-17.9-7.095 1.277-13.47 0.143-17.677-4.054-4.35-4.35-5.578-10.75-4.254-17.876-7.126 1.301-13.526 0.168-17.732-4.038-5.179-5.179-6.337-13.12-3.264-22.361 2.458-7.374 7.51-15.13 14.237-21.858 7.326-7.326 15.609-12.465 23.327-14.676 0.319-0.096 0.583-0.303 0.917-0.359 26.415-4.692 58.384-23.694 85.533-50.834 31.57-31.57 51.88-69.868 51.912-97.12-33.493-17.74-71.631-27.836-112.1-27.836-132.545 0-240.375 107.822-240.375 240.358zM416.42-22.971l-21.603 21.603c1.101 0.71 2.154 1.493 3.24 2.219 0.918 0.615 1.827 1.253 2.737 1.875 2.642 1.82 5.259 3.663 7.829 5.578 0.654 0.487 1.285 0.99 1.923 1.476 2.777 2.107 5.531 4.245 8.219 6.464 0.12 0.103 0.24 0.207 0.359 0.311 12.313 10.199 23.654 21.531 33.877 33.82 0.231 0.279 0.471 0.543 0.702 0.822 2.13 2.586 4.181 5.235 6.216 7.909 0.582 0.758 1.173 1.509 1.748 2.283 1.836 2.474 3.607 4.988 5.355 7.526 0.71 1.022 1.421 2.051 2.115 3.089 0.71 1.070 1.476 2.099 2.171 3.176l21.618-21.618-16.048-16.048c-0.096-0.088-0.224-0.111-0.311-0.2l-43.899-43.899c-0.096-0.096-0.127-0.224-0.216-0.327l-16.032-16.056zM460.878-23.538l-11.228 11.228 32.615 32.615 11.228-11.228-32.615-32.615z" />
<glyph unicode="&#xe629;" d="M69.948-42.978c-38.633 0-70.067 31.426-70.067 70.067s31.427 70.067 70.067 70.067 70.067-31.426 70.067-70.067-31.434-70.067-70.067-70.067zM69.948 81.195c-29.831 0-54.106-24.276-54.106-54.106s24.276-54.106 54.106-54.106 54.106 24.276 54.106 54.106-24.276 54.106-54.106 54.106zM388.346-34.99c0 209.81-170.683 380.492-380.485 380.492-4.405 0-7.981-3.575-7.981-7.981s3.575-7.981 7.981-7.981c201 0 364.524-163.532 364.524-364.532 0-4.405 3.575-7.981 7.981-7.981s7.981 3.567 7.981 7.981zM264.172-34.99c0 141.331-114.98 256.311-256.319 256.311-4.405 0-7.981-3.575-7.981-7.981s3.575-7.981 7.981-7.981c132.529 0 240.358-107.822 240.358-240.351 0-4.405 3.575-7.98 7.981-7.98s7.981 3.575 7.981 7.981zM512.519-34.982c0 278.265-226.385 504.65-504.65 504.65-4.405 0-7.981-3.575-7.981-7.981s3.575-7.98 7.981-7.98c269.463 0 488.69-219.227 488.69-488.69 0-4.405 3.575-7.981 7.981-7.981s7.98 3.567 7.98 7.981z" />
<glyph unicode="&#xe62a;" d="M503.389 160.022c5.522 15.961 8.411 42.176 8.411 64.784 0 34.538-6.815 67.729-20.158 99.267-0.103 0.343-0.248 0.526-0.399 0.854-3.057 6.935-4.62 14.261-4.62 21.922 0 17.357 7.973 33.262 21.874 43.7 3.512 2.642 4.222 7.613 1.58 11.133-2.642 3.503-7.629 4.205-11.156 1.572-17.947-13.471-28.243-34.068-28.243-56.485 0-9.536 1.86-18.769 5.538-27.452 0.088-0.303 0.2-0.606 0.319-0.894 12.76-29.831 19.224-61.536 19.224-94.255 0-19.033-2.298-37.531-6.504-55.288-21.012 4.062-40.356 13.766-56.293 28.426-0.008 0.008-0.016 0.024-0.024 0.032 0 0-0.008 0-0.008 0.008v0c-1.293 1.181-2.673 2.226-3.998 3.351-20.685 17.589-46.031 28.394-72.94 30.907-4.094 0.383-8.219 0.575-12.37 0.575-33.19 0-64.904-12.369-89.308-34.834-0.008-0.008-0.008-0.016-0.016-0.024-1.349-1.245-2.801-2.346-4.197-3.519-1.373-1.149-2.697-2.37-4.126-3.455-0.016-0.016-0.040-0.024-0.064-0.040-20.102-15.283-44.61-23.598-70.115-23.598-29.168 0-57.035 10.869-78.494 30.604-0.008 0.008-0.008 0.024-0.016 0.032 0 0 0 0-0.008 0.008 0 0 0 0 0 0-1.421 1.309-2.945 2.458-4.405 3.695-20.613 17.389-45.799 28.066-72.533 30.565-1.372 0.127-2.777 0.112-4.157 0.191 4.054 128.762 109.984 232.266 239.696 232.266 32.719 0 64.425-6.472 94.255-19.224 0.288-0.12 0.575-0.224 0.87-0.311 8.699-3.687 17.94-5.555 27.484-5.555 22.425 0 43.006 10.295 56.484 28.235 2.642 3.519 1.931 8.515-1.588 11.156-3.527 2.642-8.507 1.931-11.149-1.588-10.438-13.901-26.383-21.874-43.74-21.874-7.661 0-15.059 1.548-21.993 4.604-0.327 0.144-0.654 0.264-0.99 0.359-31.562 13.351-65.079 20.127-99.634 20.127-140.932 0-255.609-114.549-255.816-255.441 0-0.112-0.064-0.208-0.064-0.319 0-0.103 0.056-0.191 0.064-0.303 0.128-140.956 115.036-255.585 256.016-255.585 118.452 0 215.588 80.928 247.509 190.386 0 0.008 0 1.285 0 1.285h-0.2zM255.881-15.72c-129.505 0-235.291 103.161-239.689 231.612 22.505-1.588 43.947-9.584 61.871-23.207 0.024-0.016 0.056-0.032 0.080-0.056 1.421-1.086 2.745-2.307 4.126-3.455 1.404-1.173 2.849-2.283 4.206-3.527 0.008-0.008 0.016-0.024 0.024-0.032 24.412-22.464 56.126-34.834 89.308-34.834 4.15 0 8.275 0.192 12.369 0.575 26.917 2.514 52.255 13.311 72.94 30.908 1.325 1.133 2.714 2.171 3.998 3.351v0c0 0 0 0 0.008 0.008s0.008 0.016 0.016 0.024c21.451 19.736 49.326 30.596 78.486 30.596 25.497 0 50.012-8.315 70.115-23.59 0.016-0.016 0.048-0.032 0.072-0.048 1.421-1.086 2.745-2.307 4.118-3.455 1.404-1.173 2.857-2.283 4.205-3.527 0.008-0.008 0.016-0.024 0.024-0.032 17.852-16.423 39.462-27.421 62.949-32.168-30.245-97.839-121.556-169.142-229.226-169.142z" />
<glyph unicode="&#xe62b;" d="M511.521 224.239c0 0.008 0 0.008 0 0 0 141.036-114.733 255.761-255.752 255.761-141.036 0-255.768-114.725-255.768-255.752 0 0 0 0 0 0v0 0c0-141.028 114.74-255.752 255.768-255.752 141.020-0.016 255.745 114.717 255.752 255.744v0 0zM495.592 224.239c0-46.174-60.865-87.001-145.584-104.869 29.464 26.343 46.82 64.050 46.82 104.829 0 40.859-17.397 78.598-46.932 104.933 84.774-17.852 145.697-58.695 145.697-104.893 0 0 0 0 0 0zM286.58 110.815c-1.101-0.072-2.195-0.144-3.304-0.207-18.267-1.014-36.742-1.014-55.016 0-1.117 0.064-2.226 0.135-3.344 0.207-7.549 0.471-15.027 1.173-22.457 1.995-1.484 0.168-2.976 0.327-4.453 0.503-41.601 21.699-67.385 64.034-67.385 110.894 0 46.964 25.872 89.339 67.625 110.998 1.429 0.175 2.865 0.327 4.31 0.487 7.462 0.822 14.971 1.524 22.544 1.995 1.085 0.064 2.162 0.143 3.248 0.199 18.219 1.006 36.638 1.006 54.857 0 1.086-0.064 2.171-0.135 3.256-0.207 7.565-0.471 15.067-1.165 22.52-1.987 1.445-0.168 2.889-0.319 4.325-0.495 41.745-21.659 67.609-64.034 67.609-110.998 0-46.868-25.784-89.196-67.394-110.894-1.469-0.175-2.952-0.335-4.429-0.495-7.454-0.822-14.955-1.524-22.512-1.995zM15.928 224.239c0 46.198 60.93 87.041 145.713 104.901-29.543-26.343-46.94-64.082-46.94-104.933 0-40.779 17.349-78.486 46.821-104.829-84.727 17.86-145.593 58.687-145.593 104.861 0 0 0 0 0 0zM255.768 464.072c113.727 0 209.148-79.596 233.655-185.981-39.502 45.504-128.139 76.523-233.655 76.523-105.523 0-194.161-31.019-233.671-76.531 24.508 106.394 119.936 185.989 233.671 185.989zM255.768-15.592c-113.727 0-209.155 79.596-233.671 185.981 37.419-43.094 118.915-73.171 217.080-76.236 0.559-0.016 1.117-0.048 1.668-0.064 4.932-0.144 9.904-0.224 14.915-0.224s9.984 0.088 14.915 0.224c0.55 0.016 1.11 0.040 1.66 0.064 98.166 3.065 179.661 33.142 217.080 76.236-24.507-106.385-119.928-185.981-233.647-185.981zM255.761 262.832c-21.275 0-38.584-17.31-38.584-38.584s17.309-38.584 38.584-38.584 38.585 17.31 38.585 38.584c0 21.275-17.31 38.584-38.584 38.584zM255.761 201.584c-12.497 0-22.656 10.159-22.656 22.656s10.159 22.664 22.656 22.664 22.656-10.167 22.656-22.664-10.159-22.656-22.656-22.656z" />
<glyph unicode="&#xe62c;" d="M255.849 29.281c124.405 0 225.611 101.222 225.611 225.627 0 124.405-101.214 225.619-225.611 225.619-124.405 0-225.619-101.214-225.619-225.619 0-124.405 101.214-225.627 225.619-225.627zM255.849 46.271c-112.882 0-205.157 89.81-209.459 201.535h418.902c-4.286-111.724-96.561-201.535-209.443-201.535zM255.849 465.603c112.985 0 205.325-90.113 209.459-201.838h-418.926c4.142 111.724 96.482 201.838 209.467 201.838zM477.813-23.525c0-4.405-3.575-7.981-7.981-7.981h-430.936c-4.405 0-7.98 3.575-7.98 7.981s3.575 7.981 7.98 7.981h129.042c-98.165 31.921-168.416 129.815-168.416 240.287 0 4.405 3.575 7.477 7.981 7.477s7.981-3.559 7.981-7.964c0-132.537 107.83-240.327 240.367-240.327 132.529 0 240.358 107.894 240.358 240.423 0 4.405 3.575 8.108 7.981 8.108s7.98-3.32 7.98-7.725c0-110.472-70.243-208.35-168.408-240.271h126.065c4.413-0.008 7.988-3.575 7.988-7.988z" />
</font>
</defs>
</svg>
